<svg enable-background="new 0 0 500 78.006" height="78.006" viewBox="0 0 500 78.006" width="500" xmlns="http://www.w3.org/2000/svg"><g fill="#fff"><path d="m49.398 64.185c0 1.499.195 2.571.588 3.216.392.642 1.161.964 2.305.964h1.285c.499 0 1.072-.071 1.714-.215v8.465c-.428.141-.983.303-1.66.481-.68.178-1.377.339-2.09.484-.714.141-1.43.249-2.142.322-.716.068-1.324.105-1.823.105-2.501 0-4.572-.501-6.215-1.499s-2.715-2.749-3.214-5.252c-2.429 2.359-5.412 4.073-8.947 5.144-3.537 1.072-6.949 1.606-10.234 1.606-2.501 0-4.894-.339-7.179-1.018-2.286-.676-4.304-1.678-6.053-2.998-1.752-1.321-3.145-3.001-4.179-5.037-1.036-2.037-1.554-4.409-1.554-7.127 0-3.428.624-6.213 1.875-8.357 1.249-2.144 2.893-3.821 4.929-5.037 2.035-1.213 4.321-2.087 6.857-2.625 2.535-.535 5.091-.945 7.661-1.233 2.214-.427 4.321-.73 6.322-.911 1.999-.175 3.767-.481 5.304-.911 1.536-.427 2.749-1.089 3.643-1.983.892-.891 1.341-2.231 1.341-4.016 0-1.572-.376-2.856-1.126-3.858-.751-1.001-1.68-1.77-2.786-2.305-1.109-.535-2.342-.894-3.698-1.072-1.358-.178-2.643-.269-3.856-.269-3.429 0-6.253.716-8.466 2.144-2.214 1.431-3.466 3.643-3.75 6.643h-12.214c.214-3.572 1.07-6.536 2.571-8.892 1.5-2.359 3.411-4.251 5.733-5.682 2.32-1.428 4.946-2.427 7.876-2.998 2.929-.571 5.928-.86 9.001-.86 2.714 0 5.393.288 8.036.86 2.641.571 5.019 1.499 7.125 2.786 2.107 1.284 3.804 2.947 5.091 4.98 1.285 2.036 1.929 4.519 1.929 7.449zm-12.217-15.431c-1.858 1.216-4.143 1.949-6.858 2.197-2.715.252-5.429.625-8.144 1.126-1.285.212-2.535.518-3.75.911s-2.287.928-3.214 1.606c-.929.679-1.662 1.572-2.196 2.678-.536 1.109-.805 2.449-.805 4.019 0 1.358.392 2.5 1.179 3.428.785.93 1.731 1.663 2.839 2.197 1.107.535 2.32.911 3.643 1.126 1.321.215 2.518.322 3.59.322 1.356 0 2.821-.178 4.394-.537 1.57-.356 3.053-.964 4.446-1.821s2.554-1.946 3.483-3.269c.928-1.321 1.393-2.947 1.393-4.876z"/><path d="m100.962 39.648c-.501-3.431-1.875-6.018-4.125-7.769s-5.089-2.627-8.518-2.627c-1.572 0-3.252.269-5.037.806-1.786.535-3.428 1.536-4.928 2.998-1.5 1.465-2.752 3.501-3.752 6.109-1.001 2.608-1.499 6.018-1.499 10.232 0 2.288.267 4.573.803 6.858.536 2.288 1.393 4.324 2.572 6.109 1.178 1.785 2.695 3.233 4.553 4.338 1.857 1.109 4.106 1.663 6.751 1.663 3.571 0 6.517-1.109 8.839-3.323 2.32-2.214 3.767-5.32 4.34-9.322h12.216c-1.144 7.215-3.876 12.732-8.197 16.553-4.323 3.824-10.055 5.733-17.198 5.733-4.358 0-8.197-.732-11.519-2.195-3.322-1.465-6.126-3.464-8.411-6.001-2.288-2.534-4.019-5.554-5.198-9.056-1.178-3.498-1.768-7.285-1.768-11.358 0-4.14.571-8.035 1.715-11.677 1.141-3.645 2.855-6.804 5.143-9.486 2.285-2.678 5.125-4.782 8.518-6.321 3.392-1.536 7.376-2.305 11.947-2.305 3.214 0 6.269.413 9.162 1.233 2.893.823 5.464 2.056 7.715 3.696 2.25 1.646 4.088 3.716 5.518 6.216 1.428 2.5 2.285 5.464 2.572 8.894h-12.214z"/><path d="m119.164 21.109h9.215v-16.609h12.215v16.61h11.037v9.107h-11.037v29.573c0 1.287.054 2.395.161 3.323.107.93.356 1.714.751 2.359.392.642.98 1.123 1.768 1.445.785.322 1.857.484 3.214.484.857 0 1.715-.017 2.572-.054s1.714-.161 2.571-.376v9.429c-1.357.141-2.678.286-3.964.43-1.287.141-2.609.212-3.965.212-3.214 0-5.805-.303-7.769-.911-1.966-.605-3.501-1.499-4.607-2.678-1.109-1.179-1.858-2.658-2.251-4.446-.393-1.785-.625-3.821-.696-6.109v-32.682h-9.215z"/><path d="m232.843 21.109-13.502 42.538h-.214l-14.037-42.538h-10.062c5.815 5.591 8.036 12.187 8.79 17.365.342 2.357-.345 4.733-1.888 6.516-.325.376-.697.697-1.078 1.003l11.096 30.514h13.715l19.824-55.397h-12.644z"/><path d="m261.477 51.97c0 2.141.303 4.214.911 6.213.605 2.002 1.516 3.75 2.732 5.252 1.213 1.499 2.749 2.695 4.607 3.589 1.857.894 4.073 1.341 6.643 1.341 3.572 0 6.447-.769 8.626-2.305s3.805-3.841 4.876-6.912h11.574c-.645 3.001-1.753 5.679-3.323 8.038-1.572 2.356-3.466 4.338-5.679 5.948-2.216 1.606-4.698 2.822-7.448 3.643s-5.625 1.23-8.626 1.23c-4.357 0-8.214-.713-11.571-2.141-3.358-1.428-6.198-3.431-8.52-6.001-2.322-2.571-4.071-5.642-5.25-9.214-1.178-3.572-1.768-7.503-1.768-11.788 0-3.928.625-7.661 1.875-11.197 1.25-3.538 3.036-6.643 5.358-9.324 2.32-2.678 5.125-4.802 8.411-6.375 3.285-1.57 7.001-2.359 11.144-2.359 4.357 0 8.268.913 11.734 2.735 3.463 1.821 6.338 4.231 8.626 7.232 2.285 3.001 3.945 6.448 4.983 10.34 1.032 3.894 1.301 7.913.803 12.056h-40.718zm28.502-8.038c-.144-1.929-.554-3.784-1.232-5.571-.68-1.785-1.608-3.34-2.787-4.661-1.178-1.321-2.608-2.393-4.286-3.216-1.678-.82-3.554-1.233-5.625-1.233-2.142 0-4.089.376-5.84 1.126-1.751.749-3.251 1.787-4.5 3.108-1.251 1.324-2.251 2.876-3.001 4.661-.749 1.787-1.162 3.716-1.232 5.786z"/><path d="m318.168 36.859c1.285-4.997 3.821-9.036 7.608-12.107 3.785-3.071 8.607-4.607 14.466-4.607 3.785 0 7.142.786 10.071 2.356 2.927 1.572 5.373 3.682 7.339 6.324 1.966 2.644 3.464 5.716 4.502 9.214 1.035 3.501 1.553 7.181 1.553 11.038 0 4.143-.535 7.964-1.606 11.465-1.072 3.501-2.627 6.519-4.661 9.053-2.036 2.537-4.502 4.519-7.396 5.948-2.892 1.428-6.16 2.144-9.802 2.144-5.645 0-10.378-1.536-14.199-4.607-3.822-3.071-6.447-7.073-7.875-12.003h-.215v15.43h-2.142v-76.507h2.142v36.859zm1.285 22.396c1 3.216 2.446 6.038 4.34 8.465 1.892 2.429 4.232 4.358 7.018 5.786 2.786 1.431 5.929 2.144 9.43 2.144 3.571 0 6.697-.713 9.375-2.144 2.678-1.428 4.893-3.374 6.643-5.84 1.748-2.463 3.071-5.303 3.965-8.518.891-3.213 1.338-6.57 1.338-10.071 0-3.216-.41-6.411-1.23-9.59-.823-3.179-2.09-6.035-3.804-8.572-1.717-2.537-3.911-4.61-6.592-6.216-2.677-1.606-5.909-2.41-9.695-2.41-6.715 0-12.109 2.302-16.181 6.909-4.071 4.61-6.107 11.236-6.107 19.879 0 3.572.499 6.962 1.5 10.178z"/><path d="m374.688 59.739c.82 3.179 2.09 5.945 3.804 8.303 1.717 2.356 3.928 4.217 6.643 5.571 2.715 1.357 6.038 2.036 9.966 2.036 5.786 0 10.589-1.516 14.412-4.553 3.821-3.037 6.196-7.591 7.124-13.663h2.144c-.786 6.428-3.32 11.412-7.608 14.947-4.285 3.538-9.573 5.306-15.857 5.306-4.287.071-7.947-.608-10.984-2.036s-5.518-3.445-7.446-6.055c-1.929-2.608-3.36-5.679-4.287-9.214-.928-3.535-1.391-7.339-1.391-11.412 0-4.57.679-8.643 2.036-12.215 1.355-3.572 3.142-6.592 5.357-9.056 2.214-2.463 4.785-4.338 7.715-5.625s5.928-1.929 9.002-1.929c4.285 0 7.981.823 11.089 2.463 3.108 1.646 5.642 3.824 7.608 6.539s3.394 5.82 4.287 9.322c.891 3.501 1.267 7.144 1.126 10.928h-46.078c.071 3.716.518 7.164 1.338 10.343zm41.2-22.074c-.928-3.037-2.302-5.696-4.123-7.984-1.824-2.285-4.092-4.089-6.805-5.41-2.718-1.321-5.86-1.983-9.429-1.983-3.001 0-5.806.571-8.414 1.714s-4.893 2.803-6.858 4.983c-1.966 2.178-3.552 4.805-4.768 7.874-1.213 3.074-1.929 6.539-2.141 10.396h43.932c.001-3.357-.466-6.555-1.394-9.59z"/><path d="m431.293 31.234c.925-2.248 2.265-4.194 4.016-5.84 1.751-1.64 3.894-2.927 6.431-3.858 2.534-.928 5.518-1.391 8.945-1.391 2.429 0 4.731.252 6.912.749 2.178.501 4.089 1.377 5.733 2.625 1.643 1.253 2.964 2.876 3.965 4.876.998 2.002 1.536 4.502 1.606 7.5v35.041c0 1.072.215 1.858.645 2.356.427.501.998.843 1.714 1.018.713.181 1.482.252 2.302.215.82-.034 1.589-.088 2.305-.161v2.144h-3.216c-1.572 0-2.947-.376-4.123-1.126-1.179-.749-1.77-2.161-1.77-4.231v-7.181h-.212c-.574 1.787-1.485 3.501-2.732 5.144-1.253 1.643-2.825 3.105-4.717 4.392s-4.053 2.305-6.482 3.054-5.074 1.126-7.927 1.126c-5.574 0-10.04-1.233-13.394-3.696-3.36-2.466-5.037-6.163-5.037-11.092 0-3.428.551-6.177 1.66-8.25 1.106-2.07 2.554-3.696 4.341-4.876 1.785-1.179 3.818-1.999 6.106-2.463 2.285-.464 4.57-.769 6.858-.913 3.784-.212 7.036-.41 9.751-.588 2.712-.178 4.946-.535 6.697-1.072 1.748-.535 3.035-1.355 3.858-2.463.82-1.109 1.23-2.695 1.23-4.768 0-1.643-.141-3.357-.427-5.144-.286-1.785-.984-3.428-2.09-4.929-1.109-1.499-2.732-2.732-4.876-3.696s-5.037-1.445-8.68-1.445c-5.786 0-10.286 1.411-13.502 4.231-3.213 2.822-5 6.804-5.356 11.949h-2.144c.145-2.576.68-4.986 1.61-7.237zm35.253 12.913c-.716 1.001-1.821 1.768-3.323 2.302-1.499.537-3.213.947-5.142 1.233s-4.019.467-6.27.537c-2.251.071-4.446.178-6.59.32-2.144.144-4.234.413-6.267.803-2.036.396-3.843 1.109-5.413 2.144-1.572 1.038-2.822 2.466-3.75 4.287s-1.391 4.197-1.391 7.124c0 1.572.266 3.125.803 4.661.535 1.539 1.445 2.893 2.732 4.073 1.287 1.179 2.947 2.144 4.983 2.893s4.553 1.126 7.554 1.126c3.569 0 6.751-.605 9.536-1.821 2.786-1.213 5.125-2.803 7.017-4.768s3.323-4.234 4.287-6.804 1.445-5.215 1.445-7.93v-10.18z"/><path d="m487.57 65.791c0 2.073.232 3.679.699 4.822.464 1.143 1.052 2.002 1.768 2.571.713.574 1.499.913 2.356 1.018.857.107 1.717.161 2.574.161 1.072 0 2.036-.017 2.893-.054.857-.034 1.462-.124 1.821-.266v2.141c-.645.074-1.27.144-1.875.215-.608.074-1.734.107-3.377.107-2.5 0-4.624-.732-6.375-2.197-1.751-1.462-2.625-4.16-2.625-8.088v-42.649h-10.074v-2.141h10.074v-17.358h2.141v17.359h12.43v2.141h-12.43z"/></g><g fill="#ffe900"><path d="m190.712 27.112c-.164-.195-.358-.417-.624-.701-4.87-5.207-8.219-5.232-8.219-5.232s.026.021.031.025c-.19-.025-.379-.054-.571-.066v-.028h-7.299c-1.43-.05-4.788-.426-8.189-2.675-.658-.448-1.09-.779-1.14-.819-2.295-2.088-4.825-5.191-5.775-9.287-.246-1.062-1.776-.998-1.868.088-.495 5.857.863 13.501 8.585 20.083.702.51 1.272.808 1.775 1.032l-.01.016s1.814.803 1.814 2.356v44.511h12.105v-43.986c.027-.098.053-.229.075-.437.224-2.1 2.151-1.758 2.177-1.753 2.958 1.286 8.608 4.36 11.273 9.786.48.978 1.956.57 1.799-.509-.568-3.927-2.2-8.442-5.939-12.404z"/><path d="m175.277 16.755c3.384 0 6.128-2.743 6.128-6.128s-2.744-6.127-6.128-6.127-6.128 2.743-6.128 6.128 2.743 6.127 6.128 6.127z"/></g></svg>