<svg enable-background="new 0 0 500 212.418" height="212.418" viewBox="0 0 500 212.418" width="500" xmlns="http://www.w3.org/2000/svg"><g fill="#fff"><path d="m439.406 0c-33.41 0-60.593 27.183-60.593 60.593s27.183 60.593 60.593 60.593c33.412 0 60.594-27.183 60.594-60.593s-27.183-60.593-60.594-60.593zm44.031 60.593c0 24.278-19.752 44.03-44.031 44.03-24.278 0-44.03-19.752-44.03-44.03 0-24.279 19.752-44.031 44.03-44.031 24.279 0 44.031 19.752 44.031 44.031z"/><path d="m98.523 96.109h-49.931l-13.573 22.788h-35.019l75.232-117.287h32.674l28.316 117.287h-33.008zm-5.027-24.461-7.876-38.036-22.451 38.036z"/><path d="m164.036 116.134c-7.372-3.407-13.013-8.295-16.922-14.662-3.912-6.369-5.865-13.851-5.865-22.453 0-3.574.445-7.707 1.341-12.4l13.069-65.01h33.175l-12.901 64.508c-.67 3.349-1.006 6.424-1.006 9.214 0 12.289 6.477 18.433 19.436 18.433 7.038 0 12.592-2.151 16.671-6.453 4.076-4.297 7.121-11.365 9.132-21.194l12.902-64.507h32.674l-13.236 66.52c-7.15 35.41-27.873 53.114-62.163 53.114-10.166 0-18.934-1.705-26.307-5.11z"/><path d="m309.472 27.916h-36.025l5.362-26.306h105.057l-5.362 26.306h-35.857l-18.263 90.981h-33.177z"/></g><g fill="#e6e6e6"><path d="m62.909 149.514-40.094 62.368h-6.415l-15.236-62.368h6.771l13.098 54.083 34.925-54.083z"/><path d="m100.508 155.218-4.455 22.184h32.343l-1.07 5.614h-32.342l-4.633 23.166h37.51l-1.159 5.701h-44.014l12.474-62.368h42.767l-1.159 5.704h-36.262z"/><path d="m217.624 182.791c-3.356 4.07-8.063 6.817-14.122 8.243l11.761 20.848h-7.128l-11.226-19.869c-.653.061-1.723.09-3.207.09h-17.73l-3.921 19.779h-6.593l12.474-62.368h22.452c7.068 0 12.547 1.547 16.439 4.632 3.889 3.091 5.836 7.427 5.836 13.009-.001 6.356-1.679 11.569-5.035 15.636zm-7.306-1.114c3.831-3.146 5.747-7.781 5.747-13.899 0-4.099-1.396-7.216-4.187-9.354-2.792-2.138-6.771-3.207-11.939-3.207h-16.572l-6.325 31.181h16.839c7.127.001 12.606-1.572 16.437-4.721z"/><path d="m258.072 210.19c-4.187-1.486-7.349-3.386-9.488-5.704l3.208-5.168c2.078 2.259 4.958 4.07 8.643 5.434 3.682 1.367 7.484 2.051 11.403 2.051 5.524 0 9.964-1.085 13.321-3.252 3.355-2.17 5.033-5.181 5.033-9.045 0-2.077-.623-3.769-1.871-5.078-1.247-1.306-2.821-2.36-4.722-3.162-1.902-.802-4.486-1.679-7.752-2.629-3.861-1.127-6.993-2.212-9.399-3.252s-4.455-2.584-6.148-4.632c-1.692-2.051-2.539-4.709-2.539-7.976 0-3.859 1.054-7.2 3.163-10.022 2.108-2.821 5.048-4.991 8.821-6.506 3.772-1.515 8.092-2.27 12.963-2.27 3.743 0 7.306.459 10.692 1.38 3.385.921 6.266 2.241 8.643 3.964l-2.762 5.345c-2.258-1.66-4.842-2.924-7.752-3.785-2.911-.86-5.969-1.293-9.177-1.293-5.466 0-9.861 1.13-13.186 3.386-3.327 2.259-4.99 5.316-4.99 9.177 0 2.138.653 3.89 1.96 5.258 1.306 1.367 2.926 2.449 4.856 3.252 1.929.802 4.529 1.679 7.795 2.629 3.861 1.127 6.98 2.212 9.355 3.252s4.396 2.526 6.059 4.455 2.496 4.468 2.496 7.617c0 3.919-1.085 7.293-3.252 10.111-2.17 2.821-5.168 4.975-8.999 6.461-3.832 1.483-8.241 2.228-13.231 2.228-4.576.002-8.955-.743-13.143-2.226z"/><path d="m348.818 155.218-4.455 22.184h32.343l-1.07 5.614h-32.341l-4.633 23.166h37.51l-1.159 5.701h-44.014l12.474-62.368h42.767l-1.159 5.704h-36.263z"/><path d="m426.241 149.514h23.7c6.176 0 11.477 1.04 15.903 3.12 4.424 2.08 7.781 5.033 10.068 8.863 2.286 3.832 3.43 8.303 3.43 13.411 0 7.248-1.603 13.661-4.812 19.243-3.207 5.585-7.737 9.935-13.586 13.054-5.851 3.117-12.639 4.677-20.359 4.677h-26.818zm14.523 56.667c6.473 0 12.13-1.322 16.972-3.967 4.841-2.642 8.553-6.311 11.137-11.003 2.584-4.69 3.876-10.037 3.876-16.037 0-6.176-1.99-11.048-5.969-14.611-3.98-3.563-9.832-5.345-17.553-5.345h-17.64l-10.158 50.963z"/><path d="m462.041 30.152c.721.552 1.417 1.129 2.089 1.729-.125.058-.24.11-.351.163l-1.225.596c-2.565 1.239-5.134 2.483-7.694 3.732-2.118-1.667-4.534-3.083-7.147-4.154-1.575-.644-3.228-1.138-4.923-1.503l-.639-.139-.644-.106c-.427-.072-.869-.154-1.263-.192l-.61-.072c-.202-.024-.389-.053-.658-.062l-.74-.043-.37-.024-.187-.01-.091-.005-.043-.005h-.038c-3.482-.106-7.003.36-10.302 1.417-3.328 1.076-6.441 2.699-9.135 4.736-2.69 2.041-4.986 4.447-6.767 7.017-.461.634-.865 1.292-1.268 1.94-.197.327-.37.658-.557.985-.192.327-.36.658-.519.989-.682 1.316-1.206 2.656-1.662 3.953-.211.658-.432 1.297-.591 1.94-.082.317-.178.634-.245.946-.072.317-.139.629-.202.941-.034.154-.067.307-.101.456-.029.154-.053.307-.077.461-.048.303-.101.605-.149.898-.086.591-.135 1.138-.202 1.686-.048.576-.077 1.177-.11 1.734l-.005.106s0 .024-.005.024v.024l-.005.197c-.005.13-.005.259-.01.384 0 .259-.005.509 0 .754.005.985.053 1.888.13 2.699.149 1.628.389 2.896.571 3.756.091.432.158.73.221.975.058.231.091.351.091.351l-3.391.97s-.038-.115-.11-.346c-.072-.211-.192-.605-.327-1.071-.264-.941-.629-2.334-.918-4.14-.144-.908-.269-1.916-.35-3.016-.024-.278-.038-.557-.058-.845-.005-.144-.01-.288-.019-.437l-.01-.221v-.163l-.005-.106c0-.567-.014-1.133-.005-1.763.034-.653.043-1.35.101-2.032.034-.341.067-.687.101-1.037.014-.173.034-.351.048-.528.029-.173.053-.351.077-.533.053-.355.106-.716.163-1.086.053-.365.139-.73.206-1.105.135-.749.331-1.503.528-2.277.423-1.532.927-3.122 1.609-4.702.163-.399.331-.802.528-1.191.187-.399.37-.802.572-1.196.418-.788.84-1.595 1.326-2.373 1.892-3.156 4.404-6.191 7.459-8.852 3.059-2.656 6.691-4.894 10.687-6.494 4.001-1.59 8.367-2.478 12.771-2.627l1.585-.014c.231-.005.533.01.821.019l.869.043c.596.014 1.133.077 1.686.13l.826.082.816.12c2.19.312 4.351.807 6.436 1.499 4.178 1.379 8.063 3.449 11.411 6.018z"/><path d="m477.208 65.324c-.202 2.022-.509 3.597-.74 4.664-.24 1.066-.394 1.628-.394 1.628l-11.58-3.42s.134-.384.351-1.119c.216-.73.509-1.815.749-3.232.235-1.417.418-3.165.389-5.187-.029-2.017-.283-4.299-.898-6.719-.134-.5-.283-1.013-.442-1.527.269-.394.543-.793.816-1.186l5.797-8.4.202-.298c.697 1.109 1.311 2.233 1.868 3.362.836 1.647 1.484 3.319 2.041 4.947 1.076 3.271 1.652 6.407 1.888 9.207.237 2.794.15 5.258-.047 7.28z"/><circle cx="462.89" cy="83.089" r="5.508"/><path d="m451.648 95.103c-1.299 2.217-4.149 2.96-6.366 1.661s-2.96-4.149-1.661-6.366 4.149-2.96 6.366-1.661c2.216 1.299 2.96 4.149 1.661 6.366z"/><path d="m431.598 96.961c-1.983 1.11-4.49.403-5.6-1.579-1.11-1.983-.403-4.49 1.579-5.6 1.983-1.11 4.49-.403 5.6 1.579 1.111 1.983.404 4.49-1.579 5.6z"/><path d="m413.655 87.33c-1.407-.028-2.525-1.191-2.497-2.597.028-1.407 1.19-2.525 2.597-2.497s2.525 1.191 2.497 2.597-1.19 2.524-2.597 2.497z"/></g><path d="m466.48 36.882c.321-.141.629.226.431.515-.001.002-.003.004-.005.007-6.252 9.066-12.513 18.125-18.754 27.199-1.704 2.477-3.886 4.216-6.946 4.564-4.566.519-8.684-2.185-10.002-6.488-1.306-4.264.497-8.744 4.628-10.84 6.362-3.227 12.807-6.293 19.219-9.42 3.708-1.808 7.422-3.604 11.135-5.402.094-.046.19-.09.294-.135z" fill="#f14b40"/></svg>