<svg enable-background="new 0 0 500 94" height="94" viewBox="0 0 500 94" width="500" xmlns="http://www.w3.org/2000/svg" xmlns:xlink="http://www.w3.org/1999/xlink"><linearGradient id="a"><stop offset="0" stop-color="#4e6a91"/><stop offset="1" stop-color="#384866"/></linearGradient><linearGradient id="b" gradientUnits="userSpaceOnUse" x1="41.0618" x2="41.0618" xlink:href="#a" y1="72.3887" y2="30.6746"/><linearGradient id="c" gradientUnits="userSpaceOnUse" x1="382.1908" x2="425.6415" xlink:href="#a" y1="51.767" y2="51.767"/><g fill="#fff"><path d="m189.2 93.5c-1.7-.2-3.3-.5-5-.7-11.2-2.6-19-9.5-22.8-20.2-4.3-12.4-3.1-24 4.8-34.7 5-6.9 11.9-10.9 20.2-11.9 9.8-1.2 18.3 1.4 25.2 8.6 4.5 4.5 6.9 10.2 8.1 16.4 1 4 1 8.1 1 12.1v1c-17.1 0-34 0-51.4 0 .2 1.4.5 3.1 1 4.3 2.4 9 10 15.5 19 16.4 8.6 1 15.7-1.9 21.9-7.9.5-.2.7-.7 1.2-1h.2c2.1 1.9 4 3.6 6.4 5.7-1.9 1.7-3.6 3.6-5.5 5-4.5 3.6-9.5 6.2-15.2 6.9-1.2.2-2.4.2-3.6.5-1.9-.2-3.8-.2-5.5-.5zm21.4-38c0-.2 0-.5 0-.7-.5-3.1-1.2-6.2-2.4-9-5.2-11.5-16.9-13.9-25.2-10.3-5.7 2.4-9.3 6.9-11.7 12.4-1 2.4-1.7 4.8-1.9 7.4 13.6.1 27.4.1 41.2.2z"/><path d="m92.3.2c0 .5.2.7.2 1.2v35.2 1.2c.5-.5.5-.7.7-1.2 3.3-4.3 6.9-7.9 12.1-9.5 6.4-2.1 13.1-2.1 19.5.5 7.9 3.1 12.1 9.3 13.8 17.4.5 2.4.7 5 .7 7.4v38.8c0 1-.2 1.2-1.2 1.2-2.6 0-5.2 0-7.9 0-1 0-1.2-.2-1.2-1.2 0-11.9 0-24 0-35.9 0-3.6-.2-6.9-1.7-10.2-2.4-6-6.9-9-13.3-9.8-4.3-.5-8.3 0-12.1 2.1-5.9 3.1-8.8 8.3-9.8 14.8-.2 1.4-.2 3.1-.2 4.5v34.7c0 1-.2 1.2-1.2 1.2-2.9 0-5.7 0-8.8 0 0-.5 0-.7 0-1 0-30 0-60.2 0-90.2 0-.2 0-.7 0-1 4-.2 7.1-.2 10.4-.2z"/><path d="m325.6.2c0 .5.2.7.2 1.2v60.7 1.2l.7-.7 33.6-35c.2-.2.7-.5 1-.5h11.2.5c-9 9.3-18.1 18.6-27.1 27.8 9.3 12.4 18.6 24.8 28.1 37.1-.5 0-.7 0-1 0-3.3 0-6.9 0-10.2 0-.5 0-1-.2-1.2-.5-7.4-9.5-14.5-19-21.9-28.6-.2-.2-.5-.7-.7-1-1.7 1.7-3.1 3.1-4.8 4.5-2.6 2.6-5.2 5.2-7.6 7.9-.5.5-.7 1-.7 1.7v15c0 1-.2 1-1.2 1-2.9 0-6 0-8.8 0 0-.5 0-.7 0-1 0-30 0-60.2 0-90.2 0-.2 0-.7 0-1 3.2.4 6.5.4 9.9.4z"/><path d="m0 57.1c.2-2.1.5-4.5 1-6.4 1.9-9.3 7.1-16.2 15-21.2 6.7-4.3 14-6 21.9-5 1 0 2.1.2 3.1.5-.2 1.4-.2 2.9-.5 4.3s-.2 3.1-.5 4.5c0 .7-.2.7-1 .7-4-.5-7.9-1-11.7 0-8.8 2.1-14.8 7.6-17.1 16.7-1.9 7.9 0 14.8 4.8 21.2 4.3 5.9 10 9.5 17.4 10.5 6.4 1 12.1-.7 17.1-4.8 5-3.8 7.6-8.8 8.8-14.8.2-1.7.5-3.1 1-5 2.9.2 5.7.5 8.6.7-.2 1.4-.2 2.9-.5 4.3-.7 4.8-2.1 9.8-4.8 13.8-6 8.3-13.8 13.8-24 15.2-18.1 2.4-34.1-10.4-37.6-27.1-.5-2.4-.7-4.5-1-6.9 0-.7 0-.9 0-1.2z"/><path d="m278.9 26.2c-.2 2.1-.5 4.3-.7 6.7 0 .7-.2 1.4-.2 2.1s-.2.7-1 .7c-2.9-.2-5.7-.2-8.8-.2-4.8 0-8.8 1.9-12.4 4.8-5.2 4-7.9 9.5-8.3 16.2-.7 6.9 1 13.1 5.2 18.6 4.5 5.7 10.5 8.8 17.8 9.3 4.3.2 8.6-.2 12.4-2.1 6.9-3.6 11.2-9 13.1-16.7.5-1.9.7-3.6 1.2-5.7 2.9.2 5.7.5 8.6.7-.2 1.9-.5 3.6-.7 5.2-1 5-2.4 9.8-5.5 14-5.7 7.4-13.1 12.4-22.6 13.8-14.5 2.1-28.6-5.5-35-18.6-6.4-12.9-5.5-25.5 3.6-36.6 5.5-6.9 12.6-10.9 21.2-12.4 3.8-.7 7.6-.2 11.4.2.2-.3.5 0 .7 0z"/><path d="m470.5 74c-1.9 0-3.8 0-5.7 0-.2 0-.5-.2-.5-.5s0-.5 0-.7c0-12.9 0-25.5 0-38.3 0-1 .2-1.2 1.2-1.2h5.2v6.2h.2c.2-.2.5-.7.7-1 2.6-3.1 5.5-5.5 9.5-6 4.8-.7 9.3 0 13.3 3.1 3.1 2.6 4.8 6 5.2 9.8.2 1.2.2 2.4.2 3.3v24 1c-1.9 0-3.8 0-5.7 0-.2 0-.5-.2-.5-.5s0-.5 0-.7c0-7.9 0-15.7 0-23.6 0-1.7-.5-3.3-1-4.8-1.4-3.6-4.3-5.7-8.1-6.2-5.5-.7-10.5 1.7-12.6 6.7-.7 1.9-1.2 3.8-1.2 6v21.7c-.2.8-.2 1.2-.2 1.7z"/></g><path d="m30.2 55.5c.7-1 1.4-1.9 2.1-2.6 7.6-9.3 17.1-16.4 27.8-21.7.2-.2.7-.5 1-.2l1.4.7c.5.5 0 1-.5 1.4-2.6 2.4-5.2 4.8-7.6 7.4-8.1 8.6-14 18.6-17.6 30-.7 2.1-2.6 2.9-4.3 1.2-6.2-5.2-10.5-11.7-13.1-19-.5-1.7 0-3.1 1.4-3.8 1.7-1 3.6-.5 4.8 1 1.2 1.7 2.4 3.3 3.8 4.8.3.3.6.5.8.8z" fill="url(#b)"/><path d="m392.9 55.5c1.7-1.9 2.9-3.6 4.5-5.2 7.1-8.1 15.7-14.3 25.5-19 .2-.2.5-.2.7-.2.7-.2 1.2 0 1.7.7s0 1.2-.5 1.4c-1.2 1.2-2.6 2.4-3.8 3.6-10 9.5-17.4 20.7-21.4 34-.7 2.1-2.6 2.6-4.3 1.2-6.2-5.2-10.5-11.7-13.1-19-.5-1.7 0-3.1 1.4-3.8 1.7-1 3.6-.5 4.8 1 1.2 1.7 2.4 3.3 3.8 4.8.2 0 .5.2.7.5z" fill="url(#c)"/><path d="m448.4 33.3v40.7c-1.7 0-3.1 0-4.5 0-1.9 0-1.7.2-1.7-1.7 0-12.6 0-25.2 0-37.8 0-1.2 0-1.2 1.2-1.2z" fill="#fff"/><path d="m445.3 24.8c-1 0-1.9 0-2.9 0-.5 0-.7-.2-.7-.7 0-1.9 0-3.8 0-5.5 0-.5.2-.7.7-.7h6c.5 0 .7.2.7.7v5.4c0 .7-.2.7-.7.7-1.2.1-2.2.1-3.1.1z" fill="#fff"/></svg>