<svg viewBox="0 0 430 78.7" xmlns="http://www.w3.org/2000/svg"><g fill="#7b7c74"><path clip-rule="evenodd" d="m23.6 63.9h-.6c-4.5 0-8.2-3.8-8.2-8.3v-32.3c0-4.6 3.8-8.2 8.2-8.2h25.2c6.6 0 8.7.2 12.4-5.1l6.5-9.7h-44.1c-12.6 0-23 10.3-23 23v30c0 13.9 14.2 19.8 23.6 10.6" fill-rule="evenodd"/><path clip-rule="evenodd" d="m93.2 77.1c8.6-3.4 14.9-11.8 14.9-21.1v-56l-36.6 55.8.4-55.7-37.3 56c-6.3 9.6-17.5 22.4-30.3 12.7 4.2 5.9 11 9.8 18.8 9.8h2.3c7.8-.2 14.3-3.4 18.9-9.7l12.2-18.9v28.6h10.2c8.5 0 8-.1 12.6-7.2l13.9-21.5z" fill-rule="evenodd"/><path d="m209.7 68.9v-18.2h3.3l6.3 16.2 6.2-16.2h3.3v18.2h-2v-16.5l-6.3 16.5h-2.4l-6.3-16.5v16.5zm36.4 0v-18.2h12.8v1.8h-10.9v6h10.4v1.8h-10.4v6.7h10.8v2h-12.7zm28.7 0v-18.2h8.9c2.3 0 3.8.4 4.8 1.4.9.9 1.4 2.4 1.4 4.7v6c0 2.3-.5 3.9-1.5 4.8-.9.9-2.4 1.4-4.7 1.4h-8.9zm1.9-1.8h6.5c1.8 0 3-.3 3.6-.9s.9-1.8.9-3.5v-5.9c0-1.8-.3-2.9-.9-3.5s-1.8-.9-3.6-.9h-6.5zm29.7-16.4h2v18.2h-2zm21.8 11.8h7.8l-3.6-9.9h-.6zm-4.5 6.4 6.8-18.2h3.3l6.8 18.2h-2.1l-1.8-4.7h-9.2l-1.7 4.7zm-176.1-39.7v.9c0 4.1-.9 7.1-2.9 8.9-1.8 1.8-5 2.6-9.2 2.6h-2.9c-4.7 0-7.8-.9-9.8-2.7-1.8-2-2.7-5.3-2.7-9.9v-6.5c0-4.8.9-8 2.7-9.9 2-1.8 5.1-2.9 9.8-2.9h2.4c4.5 0 7.7.9 9.5 2.6s2.7 4.5 2.7 8.7v.6h-8.7v-.6c0-1.5-.3-2.4-.9-3-.8-.6-2-.9-3.6-.9-2 0-3.2.3-3.8 1.1s-.9 2.4-.9 5.1v5.1c0 2.6.3 4.2.9 5s1.8 1.1 3.8 1.1c1.8 0 3-.3 3.6-1.1.8-.6 1.1-1.7 1.1-3.3v-.8h8.9zm15.3-6v5.1c0 2.6.3 4.2.9 5s2 1.1 3.9 1.1h1.7c2 0 3.3-.5 3.9-1.1.6-.8.9-2.4.9-5v-5.1c0-2.7-.3-4.4-.9-5.1-.6-.8-2-1.1-3.9-1.1h-1.7c-2 0-3.3.3-3.9 1.1-.6.7-.9 2.4-.9 5.1m-9-.8c0-4.8 1.1-8 2.9-9.9 1.8-1.8 5.1-2.9 9.6-2.9h4.4c4.5 0 7.8 1.1 9.6 2.9 2 2 2.9 5.3 2.9 9.9v6.5c0 4.7-.9 8-2.9 9.9-1.8 1.8-5.1 2.7-9.6 2.7h-4.4c-4.5 0-7.8-.9-9.6-2.7-1.8-2-2.9-5.3-2.9-9.9zm37 18.9v-31.2h13.1l10 23.2v-23.2h8.3v31.1h-12.9l-10.1-23.3v23.3h-8.4zm66.6-12.1v.9c0 4.1-.9 7.1-2.9 8.9-1.8 1.8-4.8 2.6-9.2 2.6h-2.9c-4.7 0-7.8-.9-9.8-2.7-1.8-2-2.7-5.3-2.7-9.9v-6.5c0-4.8.9-8 2.7-9.9 2-1.8 5.1-2.9 9.8-2.9h2.4c4.5 0 7.7.9 9.6 2.6 1.8 1.7 2.7 4.5 2.7 8.7v.6h-8.7v-.6c0-1.5-.4-2.4-1.1-3-.8-.6-2-.9-3.6-.9-2 0-3.2.3-3.8 1.1s-.9 2.4-.9 5.1v5.1c0 2.6.3 4.2.9 5s1.8 1.1 3.8 1.1c1.8 0 3-.3 3.6-1.1.8-.6 1.1-1.7 1.1-3.3v-.8h9zm15.3-6v5.1c0 2.6.3 4.2.9 5s2 1.1 3.9 1.1h1.7c2 0 3.3-.5 3.9-1.1.6-.8 1.1-2.4 1.1-5v-5.1c0-2.7-.5-4.4-1.1-5.1-.6-.8-2-1.1-3.9-1.1h-1.7c-2 0-3.3.3-3.9 1.1-.6.7-.9 2.4-.9 5.1m-8.8-.8c0-4.8.9-8 2.7-9.9 1.8-1.8 5.1-2.9 9.6-2.9h4.4c4.5 0 7.8 1.1 9.6 2.9 2 2 2.9 5.3 2.9 9.9v6.5c0 4.7-.9 8-2.9 9.9-1.8 1.8-5.1 2.7-9.6 2.7h-4.4c-4.5 0-7.8-.9-9.6-2.7-1.8-2-2.7-5.3-2.7-9.9zm36.4-12.3h8.7v18.2c0 2.4.3 4.1 1.1 4.8.6.8 2 1.2 4.1 1.2h1.5c2.1 0 3.5-.5 4.1-1.2.8-.6 1.1-2.3 1.1-4.8v-18.2h8.6v18.8c0 2.7-.2 4.8-.4 6.2-.3 1.4-1.1 2.4-1.8 3.3-1.1 1.2-2.3 2-3.9 2.6-1.5.5-3.5.6-6.2.6h-4.2c-2.7 0-4.7-.1-6.2-.6-1.7-.6-2.9-1.4-3.9-2.6-.8-.9-1.5-2.1-1.8-3.5-.4-1.2-.6-3.3-.6-6v-18.8zm46.1 15.1h4.8c1.5 0 2.4-.3 3-.8.5-.4.8-1.4.8-2.7v-1.2c0-1.4-.3-2.3-.8-2.7-.6-.5-1.5-.8-3-.8h-4.8zm-8.7 16.1v-31.2h13.1c5 0 8.4.6 10.2 1.8 2 1.4 2.9 3.6 2.9 6.8v2.4c0 2.1-.4 3.8-1.7 5-1.1 1.2-2.6 2-4.7 2.3 2.3.3 3.8 1.1 4.8 2.1 1.1.9 1.5 2.4 1.5 4.4v6.5h-8.9v-5.6c0-1.4-.3-2.3-.9-2.7-.5-.6-1.5-.8-2.9-.8h-4.8v9zm32.8-9.7h8.4v.3c0 1.1.3 2 .9 2.4.6.5 1.8.6 3.3.6h2.3c1.2 0 2.3-.2 2.7-.5.6-.5.9-1.1.9-1.8v-1.4c0-.8-.3-1.4-.8-1.7-.3-.3-1.4-.6-2.9-.8l-7.1-.8c-2.6-.3-4.5-1.1-5.7-2.3-1.2-1.4-1.8-3.3-1.8-5.9v-2c0-1.4.2-2.7.6-3.9.6-1.1 1.2-2 2.1-2.7.9-.6 1.8-1.1 2.9-1.4 1.2-.3 2.9-.4 5.1-.4h5.3c3.2 0 5.7.7 7.4 2 1.8 1.2 2.6 3 2.6 5.4v2.1h-8.3v-.3c0-.9-.3-1.7-.8-2s-1.4-.6-2.4-.6h-2.1c-1.4 0-2.3.3-2.9.6-.5.3-.8.8-.8 1.5v1.4c0 1.2 1.2 1.8 3.5 2.1l6.5.6c2.9.5 5 1.2 6.3 2.4 1.4 1.2 2 3 2 5.3v3c0 2.6-.8 4.7-2.4 6.2-1.7 1.5-3.9 2.3-6.8 2.3h-7.1c-3.9 0-6.6-.6-8.4-1.8-1.7-1.2-2.6-3.3-2.6-6v-1.9zm34.6 9.7v-31.2h24.5v6.9h-15.8v5.4h15.3v6h-15.3v5.9h16.1v6.9h-24.8z"/></g></svg>