<svg width="284" height="61" viewBox="0 0 284 61" fill="none" xmlns="http://www.w3.org/2000/svg">
<path d="M33.0806 19.4274C34.9943 19.4301 36.8659 18.8627 38.4584 17.797C40.0509 16.7312 41.2929 15.2151 42.0271 13.4404C42.7613 11.6657 42.9548 9.71218 42.5831 7.82702C42.2114 5.94185 41.2912 4.20977 39.9389 2.84992C38.5866 1.49007 36.8631 0.563582 34.9863 0.187672C33.1095 -0.188238 31.1638 0.00332808 29.3955 0.738132C27.6272 1.47293 26.1156 2.71795 25.0521 4.31565C23.9886 5.91335 23.421 7.79193 23.421 9.7137C23.4239 12.2866 24.4422 14.7536 26.2527 16.5742C28.0632 18.3948 30.5184 19.4208 33.0806 19.4274Z" fill="#C477C5"/>
<path d="M9.65962 61C11.5734 61.0027 13.4449 60.4353 15.0374 59.3696C16.63 58.3038 17.8719 56.7877 18.6061 55.013C19.3404 53.2383 19.5339 51.2848 19.1622 49.3996C18.7904 47.5144 17.8702 45.7824 16.518 44.4225C15.1657 43.0627 13.4421 42.1362 11.5653 41.7603C9.68854 41.3844 7.74289 41.5759 5.97456 42.3107C4.20622 43.0455 2.69468 44.2905 1.63117 45.8882C0.567668 47.4859 1.88225e-06 49.3645 0 51.2863C0.00357825 53.8591 1.022 56.3256 2.83237 58.1461C4.64274 59.9666 7.09759 60.9928 9.65962 61Z" fill="#FFC100"/>
<path d="M56.5015 61C58.4151 61.0023 60.2865 60.4345 61.8787 59.3685C63.4709 58.3025 64.7125 56.7862 65.4464 55.0115C66.1803 53.2367 66.3735 51.2833 66.0015 49.3983C65.6295 47.5132 64.7091 45.7814 63.3568 44.4217C62.0044 43.0621 60.2808 42.1359 58.4041 41.7601C56.5274 41.3844 54.5818 41.5761 52.8136 42.311C51.0454 43.0458 49.534 44.2909 48.4706 45.8885C47.4072 47.4862 46.8396 49.3647 46.8396 51.2863C46.8432 53.8595 47.8619 56.3264 49.6728 58.147C51.4836 59.9675 53.9391 60.9934 56.5015 61Z" fill="#6BD185"/>
<path d="M33.0805 50.7051C35.8352 50.7087 38.5291 49.8917 40.8213 48.3575C43.1135 46.8232 44.901 44.6407 45.9576 42.0861C47.0143 39.5315 47.2926 36.7195 46.7574 34.006C46.2222 31.2925 44.8975 28.7993 42.9508 26.842C41.0042 24.8847 38.5232 23.5512 35.8217 23.0102C33.1202 22.4693 30.3196 22.7451 27.7742 23.8029C25.2289 24.8606 23.0531 26.6528 21.5223 28.9526C19.9915 31.2523 19.1744 33.9564 19.1744 36.7227C19.1792 40.4264 20.6453 43.9774 23.2516 46.598C25.8579 49.2187 29.3922 50.6955 33.0805 50.7051Z" fill="#00ABED"/>
<path d="M207.372 38.7367C210.974 38.7367 213.895 42.1426 213.895 46.3341C213.895 50.5257 210.965 53.9339 207.372 53.9339C206.836 53.9334 206.304 53.8569 205.789 53.7068C205.642 53.6614 205.493 53.6114 205.351 53.5569V39.109C205.592 39.0173 205.839 38.9415 206.09 38.882C206.511 38.7842 206.942 38.7355 207.374 38.7367H207.372ZM237.368 38.5096C234.834 38.5096 232.781 41.7861 232.781 45.8278C232.781 49.8695 234.834 53.1482 237.368 53.1482C239.903 53.1482 241.956 49.8717 241.956 45.8278C241.956 41.7838 239.901 38.5096 237.368 38.5096ZM223.627 45.4917C223.627 37.1745 229.027 30.9848 237.314 30.9848C255.055 30.9848 256.278 59.6535 237.606 60.6276C229.335 61.0568 223.627 54.6582 223.627 45.4917ZM107.45 38.4664C104.915 38.4664 102.862 41.7429 102.862 45.7869C102.862 49.8309 104.915 53.1028 107.45 53.1028C109.984 53.1028 112.038 49.8286 112.038 45.7869C112.038 41.7452 109.982 38.4664 107.45 38.4664ZM93.7607 46.2365C93.7607 25.4082 121.136 26.3959 121.136 45.4917C121.136 66.177 93.7607 65.0576 93.7607 46.2365ZM179.782 38.5164C177.249 38.5164 175.194 41.7929 175.194 45.8346C175.194 49.8763 177.249 53.1528 179.782 53.1528C182.314 53.1528 184.369 49.8785 184.369 45.8346C184.369 41.7906 182.314 38.5164 179.782 38.5164ZM166.273 43.9977C166.273 29.4181 187.218 26.2869 192.13 38.8275C193.452 42.1993 193.281 43.514 193.281 46.9699C193.281 58.4206 182.081 62.8823 174.409 59.6217C167.329 56.6132 166.269 51.0706 166.269 43.9977H166.273ZM122.841 32.111L123.972 36.843V58.6794C123.976 59.0442 124.124 59.3924 124.383 59.6478C124.643 59.9031 124.992 60.0448 125.356 60.0418H130.993C131.356 60.0454 131.707 59.904 131.966 59.6486C132.226 59.3931 132.375 59.0446 132.379 58.6794V48.4322H132.392V41.2207C132.535 38.8888 133.781 38.4506 136.198 38.362C139.73 38.4823 139.488 41.8133 139.465 42.3855V59.0019C139.465 59.5695 140.089 60.0327 140.851 60.0327H143.565C143.967 60.0543 144.37 60.0543 144.772 60.0327H146.493C147.255 60.0327 147.877 59.5786 147.877 59.0019V49.1905C147.911 47.5103 147.926 45.83 147.877 44.1952L147.793 42.3787C147.368 36.0505 145.588 30.978 139.266 30.978C137.898 30.9534 136.541 31.2447 135.302 31.8294C133.609 32.5969 133.525 33.0488 132.397 33.8435V31.7999C132.397 31.2323 131.773 30.7691 131.011 30.7691C128.235 30.7733 125.477 31.2209 122.841 32.0951V32.111ZM251.365 32.4584C251.365 32.4902 251.383 32.5265 251.394 32.5651C251.643 34.6087 257.237 41.8315 258.766 44.7333L250.82 56.8539C248.247 60.6026 252.658 59.985 256.174 59.985C259.03 59.985 260.041 56.1727 261.741 53.239C262.29 52.2729 262.779 51.2734 263.204 50.2464C263.582 51.1419 264.017 52.0126 264.504 52.853C266.37 56.0705 267.478 60.2507 270.61 60.2507C274.453 60.2507 279.301 60.9319 276.489 56.8175L269.585 46.5476C268.039 44.2338 268.654 44.6879 271.964 39.0545C275.13 33.6845 278.157 31.3617 271.342 31.3617C268.215 31.3617 267.67 31.9498 266.542 33.9729C265.992 34.9606 264.615 38.06 263.944 39.1749L263.898 39.1385C263.116 37.7262 261.762 34.7063 261.196 33.6891C259.955 31.4593 259.351 30.8099 255.903 30.8099C252.495 30.8099 251.322 31.3367 251.381 32.4652L251.365 32.4584ZM71.1922 45.1193C71.1922 63.3092 90.3125 62.6598 92.7748 57.5237C93.001 57.0469 95.8726 48.9317 91.0157 52.0106C85.4894 55.5142 79.7099 53.6795 79.7099 46.6089C79.7099 43.7275 79.8614 39.9787 83.0406 38.4347C90.023 35.0287 93.0304 45.6824 93.0304 36.2026C93.0304 31.6319 89.365 30.9939 84.8902 30.9939C76.7049 30.9939 71.2012 36.9474 71.2012 45.1284L71.1922 45.1193ZM152.266 30.2423C152.211 30.9579 152.008 31.654 151.669 32.2858C150.683 34.0728 149.315 35.031 149.263 37.3084L152.214 37.6922C152.214 50.2895 149.767 60.757 162.943 60.757C166.334 60.757 166.732 57.61 167.384 54.8035C165.364 53.7295 160.354 55.6459 160.354 51.0842V46.6656H160.424V37.867H164.431C164.717 37.8658 164.991 37.7516 165.194 37.5489C165.397 37.3462 165.513 37.0714 165.516 36.7839V34.9447C165.543 34.6578 165.543 34.3689 165.516 34.0819V32.3244C165.515 32.035 165.401 31.7575 165.197 31.5528C164.993 31.3481 164.717 31.2329 164.428 31.2323H160.424V24.8314C160.424 24.4701 160.281 24.1236 160.026 23.8681C159.772 23.6126 159.427 23.4691 159.067 23.4691C158.434 23.2738 154.608 24.9291 153.593 25.3173C152.82 25.6125 152.248 25.8873 152.248 26.632L152.266 30.2423ZM196.62 29.8745V49.9535C196.62 54.1087 195.906 56.1772 198.615 57.9914C206.244 63.123 221.398 61.5336 221.398 46.6089V44.0067C221.398 34.2749 213.393 27.1474 204.381 33.2168C204.381 28.4712 204.573 23.7688 204.573 19.0118C204.573 18.6505 204.43 18.304 204.175 18.0485C203.921 17.793 203.576 17.6495 203.216 17.6495C202.99 17.5791 202.312 17.7607 201.504 18.0378C201.294 18.1059 201.075 18.1853 200.849 18.2648C192.935 21.396 196.65 21.3052 196.602 29.8449" fill="black"/>
<path d="M280.106 27.4858H278.921V30.7078H278.63V27.4858H277.443V27.2473H280.102L280.106 27.4858Z" fill="black"/>
<path d="M281.061 27.2473L282.336 30.3104L283.616 27.2473H284V30.7168H283.708V29.2069L283.731 27.6583L282.444 30.7168H282.218L280.936 27.6697L280.959 29.1978V30.7168H280.667V27.2473H281.061Z" fill="black"/>
</svg>
