<?xml version="1.0" encoding="utf-8"?>
<!-- Generator: Adobe Illustrator 21.0.2, SVG Export Plug-In . SVG Version: 6.00 Build 0)  -->
<svg version="1.1" id="Layer_1" xmlns="http://www.w3.org/2000/svg" xmlns:xlink="http://www.w3.org/1999/xlink" x="0px" y="0px"
	 viewBox="0 0 836 217.2" style="enable-background:new 0 0 836 217.2;" xml:space="preserve">
<style type="text/css">
	.st0{fill:#DDDDDD;}
	.st1{fill:#A05EA5;}
	.st2{fill:#F4841F;}
	.st3{fill:#6BB145;}
	.st4{fill:#2689B4;}
	.st5{font-family:'Roboto-Bold';}
	.st6{font-size:31.3916px;}
</style>
<g>
	<polygon class="st0" points="156.6,131.4 127.1,114.4 127.1,114.4 127.1,114.5 127.1,114.5 127,114.6 127,114.6 127,114.7 
		126.9,114.7 126.9,114.7 126.9,114.7 126.8,114.9 126.8,114.9 126.8,114.9 126.8,114.9 126.8,115 126.7,115.1 126.7,115.2 
		126.6,115.3 126.6,115.4 126.5,115.4 126.5,115.4 126.5,115.5 126.4,115.6 126.4,115.7 126.3,115.8 126.3,115.8 126.2,116 
		126.2,116 126.1,116.1 126.1,116.1 126.1,116.1 126.1,116.2 126,116.3 126,116.3 126,116.4 125.9,116.4 125.9,116.5 125.9,116.5 
		125.9,116.6 125.8,116.7 125.7,116.8 125.7,116.8 125.7,116.9 125.7,116.9 125.6,116.9 125.6,117 125.6,117.1 125.6,117.1 
		125.5,117.1 125.5,117.1 125.5,117.2 125.5,117.3 125.4,117.3 125.4,117.3 125.4,117.4 125.3,117.6 125.2,117.6 125.2,117.7 
		125.2,117.7 125.2,117.8 125.2,117.8 125.2,117.8 125.1,117.8 125.1,117.9 125.1,117.9 125,118 125,118 125,118.1 125,118.1 
		124.9,118.2 124.9,118.3 124.8,118.4 124.8,118.5 124.7,118.5 124.7,118.5 124.7,118.6 124.7,118.6 124.6,118.7 124.6,118.8 
		124.5,118.8 124.5,118.9 124.5,119 124.4,119 124.4,119 124.4,119.1 124.4,119.1 124.4,119.2 124.3,119.3 124.2,119.4 124.2,119.4 
		124.2,119.4 124.1,119.6 124.1,119.6 124.1,119.7 124,119.8 123.9,119.9 123.9,119.9 123.9,119.9 123.9,120 123.9,120 123.9,120.1 
		123.8,120.1 123.8,120.1 123.8,120.2 123.7,120.3 123.7,120.4 123.6,120.4 123.6,120.5 123.6,120.5 123.6,120.5 123.5,120.7 
		123.5,120.7 123.4,120.8 123.4,120.8 123.4,120.9 123.3,121 123.3,121 123.2,121.1 123.2,121.2 123.1,121.3 123.1,121.4 
		123.1,121.4 123.1,121.4 123,121.5 123,121.5 123,121.5 123,121.5 122.9,121.7 122.9,121.7 122.9,121.8 122.8,121.9 122.8,122 
		122.7,122 122.6,122.2 122.6,122.2 122.5,122.3 122.5,122.4 122.5,122.5 122.4,122.5 122.4,122.6 122.4,122.6 122.4,122.6 
		122.3,122.7 122.2,122.8 122.2,122.9 122.2,123 122.1,123.1 122.1,123.2 122,123.2 122,123.2 122,123.3 122,123.3 122,123.3 
		121.9,123.4 121.9,123.5 121.9,123.5 121.8,123.6 121.8,123.6 121.7,123.7 121.7,123.8 121.6,123.9 121.6,124 121.5,124.1 
		121.5,124.1 121.4,124.3 121.4,124.3 121.3,124.4 121.3,124.5 121.3,124.6 121.2,124.6 121.1,124.8 121.1,124.8 121.1,124.8 
		121.1,124.9 121,124.9 121,125 121,125 121,125 121,125.1 120.9,125.1 120.9,125.2 120.8,125.4 120.7,125.4 120.7,125.4 
		120.7,125.5 120.7,125.5 120.7,125.5 120.7,125.6 120.6,125.7 120.6,125.7 120.6,125.8 120.6,125.8 120.5,125.8 120.5,125.9 
		120.4,126 120.4,126.1 120.3,126.2 120.3,126.3 120.2,126.4 120.2,126.4 120.1,126.5 120.1,126.6 120,126.7 120,126.7 119.9,126.9 
		119.9,126.9 119.9,126.9 119.9,126.9 119.8,127 119.8,127.1 119.7,127.2 119.7,127.2 119.7,127.2 119.7,127.3 119.7,127.3 
		119.6,127.4 119.6,127.5 119.5,127.6 119.5,127.7 119.5,127.7 119.4,127.7 119.4,127.8 119.4,127.8 119.4,127.9 119.3,127.9 
		119.3,127.9 119.2,128 119.2,128.1 119.2,128.1 119.2,128.2 119.1,128.2 119.1,128.3 119,128.5 119,128.5 118.9,128.6 118.9,128.7 
		118.9,128.7 118.9,128.7 118.8,128.8 118.8,128.8 118.7,129 118.7,129 118.6,129.1 118.6,129.2 118.5,129.3 118.5,129.4 
		118.4,129.5 118.4,129.6 118.4,129.6 118.3,129.6 118.3,129.6 118.3,129.7 118.3,129.8 118.2,129.9 118.2,129.9 118.1,130 
		118.1,130.1 118,130.1 118,130.1 118,130.2 117.9,130.3 117.9,130.4 117.9,130.4 117.8,130.6 117.8,130.6 117.7,130.7 117.7,130.8 
		117.6,130.9 117.6,130.9 117.5,131.1 117.5,131.1 117.5,131.1 117.4,131.2 117.4,131.2 117.4,131.2 117.4,131.3 117.3,131.4 
		117.3,131.4 117.3,131.4 117.2,131.5 117.2,131.6 117.2,131.7 117.1,131.7 117.1,131.8 117,131.9 117,131.9 117,132 116.9,132.2 
		116.9,132.2 116.8,132.3 116.8,132.4 116.7,132.5 116.7,132.5 116.7,132.5 116.6,132.6 116.6,132.7 116.5,132.7 116.5,132.8 
		116.5,132.9 116.4,133 116.4,133 116.3,133.2 116.2,133.2 116.2,133.3 116.2,133.3 116.2,133.3 116.2,133.4 116.1,133.5 
		116.1,133.5 116.1,133.5 116.1,133.5 116,133.7 116,133.7 116,133.7 115.9,133.8 115.9,133.9 115.8,134 115.8,134 115.8,134 
		115.8,134.1 115.7,134.2 115.7,134.2 115.6,134.3 115.6,134.4 115.6,134.4 115.5,134.5 115.5,134.6 115.5,134.6 115.4,134.7 
		115.3,134.8 115.3,134.9 115.3,135 115.2,135 115.2,135 115.2,135.1 115.2,135.1 115.1,135.2 115.1,135.3 115,135.4 114.9,135.5 
		114.9,135.6 114.8,135.7 114.8,135.8 114.7,135.8 114.7,135.9 114.7,135.9 114.7,136 114.6,136 144.1,153 144.2,152.9 144.2,152.9 
		144.3,152.7 144.3,152.7 144.3,152.6 144.4,152.6 144.4,152.6 144.4,152.5 144.4,152.5 144.5,152.4 144.5,152.4 144.5,152.3 
		144.5,152.3 144.6,152.2 144.6,152.1 144.6,152.1 144.7,152.1 144.7,152 144.7,151.9 144.8,151.9 144.8,151.8 144.9,151.7 
		144.9,151.7 144.9,151.6 144.9,151.6 145,151.5 145,151.4 145,151.4 145,151.4 145.1,151.4 145.1,151.3 145.2,151.2 145.2,151.2 
		145.2,151.2 145.2,151.1 145.3,151 145.3,150.9 145.3,150.9 145.3,150.9 145.4,150.8 145.4,150.8 145.5,150.7 145.5,150.6 
		145.5,150.6 145.6,150.5 145.6,150.4 145.6,150.4 145.7,150.3 145.7,150.3 145.8,150.2 145.8,150.1 145.9,150 145.9,149.9 
		145.9,149.9 145.9,149.9 145.9,149.9 146,149.8 146,149.7 146.1,149.6 146.1,149.5 146.1,149.5 146.2,149.5 146.2,149.4 
		146.3,149.3 146.3,149.3 146.3,149.2 146.4,149.1 146.4,149 146.4,149 146.5,149 146.5,148.9 146.5,148.8 146.6,148.7 146.6,148.7 
		146.6,148.6 146.7,148.6 146.7,148.5 146.7,148.5 146.7,148.5 146.7,148.5 146.8,148.4 146.8,148.3 146.9,148.2 146.9,148.2 
		147,148 147,148 147.1,147.9 147.1,147.8 147.2,147.6 147.3,147.6 147.3,147.5 147.3,147.4 147.4,147.3 147.5,147.2 147.5,147.1 
		147.5,147.1 147.6,147 147.7,146.9 147.7,146.8 147.7,146.8 147.7,146.7 147.8,146.6 147.8,146.6 147.9,146.5 148,146.4 148,146.3 
		148.1,146.2 148.1,146.2 148.1,146.1 148.1,146.1 148.1,146.1 148.2,145.9 148.2,145.9 148.2,145.9 148.3,145.7 148.4,145.7 
		148.4,145.5 148.5,145.4 148.5,145.4 148.6,145.3 148.6,145.2 148.7,145.2 148.7,145.2 148.7,145.1 148.8,145 148.8,144.9 
		148.9,144.8 148.9,144.7 148.9,144.7 148.9,144.6 149,144.6 149,144.5 149,144.5 149.1,144.4 149.1,144.4 149.1,144.4 149.2,144.2 
		149.3,144.1 149.3,144 149.4,143.9 149.4,143.9 149.5,143.8 149.5,143.7 149.5,143.6 149.6,143.5 149.6,143.5 149.6,143.5 
		149.6,143.4 149.7,143.4 149.7,143.3 149.7,143.3 149.8,143.2 149.8,143.1 149.9,143 150,142.9 150,142.8 150.1,142.7 150.1,142.7 
		150.1,142.6 150.2,142.6 150.2,142.5 150.2,142.5 150.2,142.5 150.3,142.4 150.3,142.3 150.3,142.3 150.4,142.2 150.4,142.1 
		150.4,142 150.5,142 150.5,142 150.5,141.9 150.6,141.9 150.6,141.8 150.7,141.7 150.7,141.6 150.7,141.6 150.7,141.6 150.8,141.4 
		150.9,141.3 150.9,141.3 150.9,141.3 150.9,141.2 151,141.1 151,141.1 151,141.1 151,141 151.1,140.9 151.1,140.8 151.2,140.8 
		151.2,140.8 151.2,140.8 151.2,140.7 151.2,140.7 151.2,140.7 151.2,140.7 151.3,140.6 151.3,140.5 151.3,140.5 151.4,140.4 
		151.4,140.4 151.5,140.3 151.5,140.2 151.6,140.1 151.7,139.9 151.7,139.8 151.7,139.8 151.8,139.7 151.8,139.6 151.9,139.5 
		152,139.4 152,139.4 152,139.4 152,139.4 152,139.3 152,139.3 152.1,139.2 152.1,139.1 152.2,139 152.3,138.9 152.3,138.9 
		152.3,138.9 152.3,138.8 152.4,138.7 152.4,138.6 152.5,138.6 152.5,138.4 152.5,138.4 152.5,138.4 152.5,138.4 152.6,138.4 
		152.6,138.2 152.7,138.2 152.7,138.2 152.8,138 152.8,137.9 152.9,137.9 152.9,137.7 153,137.6 153,137.5 153.1,137.5 153.1,137.4 
		153.2,137.3 153.2,137.3 153.2,137.3 153.2,137.2 153.3,137.1 153.4,137 153.4,136.9 153.5,136.8 153.6,136.6 153.6,136.5 
		153.7,136.4 153.7,136.3 153.8,136.2 153.9,136 153.9,136 153.9,136 154,136 154,135.9 154,135.8 154.1,135.8 154.2,135.5 
		154.2,135.5 154.3,135.4 154.5,135.1 154.5,135 154.5,135 154.5,135 154.6,134.9 154.7,134.7 154.7,134.7 154.7,134.6 154.7,134.6 
		154.8,134.5 154.8,134.5 154.8,134.5 154.8,134.5 154.8,134.5 154.9,134.4 154.9,134.3 154.9,134.3 155,134.1 155.1,134 
		155.2,133.9 155.3,133.6 155.3,133.6 155.4,133.5 155.4,133.5 155.4,133.5 155.4,133.4 155.4,133.4 155.5,133.4 155.5,133.3 
		155.5,133.3 155.5,133.2 155.6,133.1 155.6,133.1 155.6,133 155.7,132.9 155.8,132.7 155.9,132.6 155.9,132.6 155.9,132.5 
		156,132.5 156,132.4 156,132.3 156.1,132.3 156.2,132.1 156.2,132.1 156.2,132.1 156.2,132 156.2,132 156.2,132 156.3,131.9 
		156.3,131.9 156.4,131.6 156.4,131.6 156.5,131.5 	"/>
	<rect x="82.5" y="49" class="st0" width="24.8" height="25.2"/>
	<polygon class="st0" points="139.8,150.9 115.3,136.3 128.2,114.7 152.7,129.2 	"/>
	<polygon class="st0" points="51.4,150.9 75.9,136.3 63.1,114.7 38.6,129.2 	"/>
	<path d="M594.8,113.6c10.3,0,18.7,9.7,18.7,21.7s-8.4,21.7-18.7,21.7c-1.6,0-3.1-0.2-4.5-0.6c-0.4-0.1-0.9-0.3-1.3-0.4v-41.3
		c0.7-0.3,1.4-0.5,2.1-0.6C592.4,113.7,593.6,113.6,594.8,113.6 M680.9,112.9c-7.3,0-13.2,9.4-13.2,20.9c0,11.5,5.9,20.9,13.2,20.9
		c7.3,0,13.2-9.4,13.2-20.9C694,122.2,688.2,112.9,680.9,112.9 M641.5,132.9c0-23.8,15.5-41.4,39.3-41.4c50.9,0,54.4,81.9,0.8,84.7
		C657.8,177.3,641.5,159,641.5,132.9 M308.2,112.8c-7.3,0-13.2,9.4-13.2,20.9s5.9,20.9,13.2,20.9c7.3,0,13.2-9.4,13.2-20.9
		S315.5,112.8,308.2,112.8 M269,135c0-59.5,78.5-56.7,78.5-2.1C347.5,191.9,269,188.7,269,135 M515.7,113c-7.3,0-13.2,9.4-13.2,20.9
		c0,11.5,5.9,20.9,13.2,20.9c7.3,0,13.2-9.4,13.2-20.9C528.9,122.3,523,113,515.7,113 M477,128.6C477,87,537,78,551.1,113.8
		c3.8,9.6,3.3,13.4,3.3,23.3c0,32.7-32.1,45.5-54.1,36.1C480,164.7,477,148.8,477,128.6 M352.4,94.6l3.3,13.5v62.4
		c0,2.1,1.8,3.9,4,3.9h16.2c2.2,0,4-1.7,4-3.9v-29.3h0v-20.6c0.4-6.7,4-7.9,10.9-8.2c10.1,0.3,9.4,9.9,9.4,11.5v47.5
		c0,1.6,1.8,2.9,4,2.9h7.8c1.2,0.1,2.3,0.1,3.5,0h4.9c2.2,0,4-1.3,4-2.9v-28c0.1-4.8,0.1-9.6,0-14.2l-0.2-5.2
		c-1.2-18.1-6.3-32.6-24.5-32.6c-4.7,0-7.9,0.9-11.4,2.4c-4.9,2.2-5.1,3.5-8.3,5.7v-5.8c0-1.6-1.8-2.9-4-2.9
		C367.9,90.9,359.9,92.2,352.4,94.6 M721,95.7c0,0.1,0,0.2,0.1,0.3c0.7,5.8,16.8,26.5,21.1,34.8l-22.8,34.6
		c-7.4,10.7,5.3,8.9,15.4,8.9c8.2,0,11.1-10.9,16-19.3c1.7-2.9,2.3-4.4,4.2-8.5c1.4,3.2,2.1,4.7,3.7,7.4c5.4,9.2,8.5,21.1,17.5,21.1
		c11.1,0,24.9,1.9,16.8-9.8l-19.8-29.4c-4.4-6.6-2.7-5.3,6.8-21.4c9.1-15.3,17.8-22-1.8-22c-9,0-10.5,1.7-13.8,7.5
		c-1.6,2.8-5.5,11.6-7.5,14.9c0,0-0.1-0.1-0.1-0.1c-2.2-4-6.1-12.7-7.8-15.6c-3.6-6.4-5.3-8.2-15.2-8.2
		C724.3,90.9,720.9,92.4,721,95.7L721,95.7z M204.2,131.8c0,52,54.8,50.1,61.9,35.4c0.7-1.4,8.9-24.5-5-15.7
		c-15.9,10-32.5,4.8-32.5-15.4c0-8.2,0.4-18.9,9.6-23.4c20-9.7,28.7,20.7,28.7-6.4c0-13.1-10.5-14.9-23.4-14.9
		C220,91.4,204.2,108.4,204.2,131.8 M436.7,89.3c-0.2,2.1-0.7,4-1.7,5.9c-2.8,5.1-6.8,7.8-6.9,14.3l8.5,1.1c0,36-7,65.9,30.8,65.9
		c9.7,0,10.9-9,12.7-17c-5.8-3.1-20.2,2.4-20.2-10.6v-12.6h0.2v-25.1h11.5c1.7,0,3.1-1.4,3.1-3.1v-5.2c0.1-0.8,0.1-1.6,0-2.5v-5
		c0-1.7-1.4-3.1-3.1-3.1h-11.5V73.8c0-2.1-1.7-3.9-3.9-3.9c-1.8-0.6-12.8,4.2-15.7,5.3c-2.2,0.8-3.9,1.6-3.9,3.8V89.3z M564,88.2
		l0,57.4c0,11.9-2,17.8,5.7,23c21.9,14.6,65.4,10.1,65.4-32.5v-7.4c0-27.8-23-48.2-48.8-30.8c0-13.6,0.6-27,0.6-40.6
		c0-2.1-1.7-3.9-3.9-3.9c-0.7-0.2-2.6,0.3-4.9,1.1c-0.6,0.2-1.2,0.4-1.9,0.7C553.4,64.1,564.1,63.8,564,88.2"/>
	<path class="st1" d="M94.9,55.5c15.3,0,27.7-12.5,27.7-27.7C122.6,12.5,110.2,0,94.9,0S67.2,12.5,67.2,27.7
		C67.2,43,79.6,55.5,94.9,55.5"/>
	<path class="st2" d="M27.7,174.2c15.3,0,27.7-12.5,27.7-27.7c0-15.3-12.4-27.7-27.7-27.7S0,131.2,0,146.5
		C0,161.8,12.4,174.2,27.7,174.2"/>
	<path class="st3" d="M162.1,174.2c15.3,0,27.7-12.5,27.7-27.7c0-15.3-12.4-27.7-27.7-27.7s-27.7,12.5-27.7,27.7
		C134.4,161.8,146.8,174.2,162.1,174.2"/>
	<path class="st4" d="M94.9,144.8c22,0,39.9-17.9,39.9-39.9c0-22-17.9-39.9-39.9-39.9S55,82.9,55,104.9
		C55,126.9,72.9,144.8,94.9,144.8"/>
	<path d="M828.3,76.6l2.3,13.8h5.4L831.8,65h-5.4l-4.9,16.4L816.6,65h-5.4l-4.2,25.4h5.4l2.3-13.8l4.1,13.8h5.4L828.3,76.6z
		 M796.4,65h5.4h4.6v5.4h-4.6v20h-5.4v-20h-4.6V65H796.4z"/>
</g>
<text transform="matrix(1 0 0 1 202.952 216.6963)" class="st5 st6">THE ULTIMATE ENGAGEMENT PLATFORM</text>
</svg>
