<svg enable-background="new 0 0 500 157.062" height="157.062" viewBox="0 0 500 157.062" width="500" xmlns="http://www.w3.org/2000/svg" xmlns:xlink="http://www.w3.org/1999/xlink"><defs><path id="a" d="m359.922 18.157c-2.587 1.203-11.445 6.529-14.754 8.643-.696-.722-4.372.74-6.11 1.9l-27.493-2.025-2.409.75 18.912 4.228 5.941 2.034c-2.855 1.668-5.575 3.167-7.351 3.934l-8.866-6.468-2.766.866 3.051 9.803-10.749.491-1.284.865 5.673 1.231 4.701 1.017.402.088-.206.251-.473.58.625 2.016.079.259 1.231-.429 3.121-1.088 4.622 3.086 2.06-.642-.776-3.728 6.967-2.641 10.329-4.961s.161-.757 1.794-1.927l.009-.009 7.431 1.981 16.137 5.557 1.312-1.801-9.233-6.637 1.257-1.473c1.365-1.124-.678-2.846-2.23-2.829-1.544.019-2.989 1.33-3.22 1.562l-2.925-2.454c4.175-2.979 8.162-5.807 9.162-6.493 2.309-1.579 3.051-3.987 2.086-5.316-.527-.732-1.375-1.155-2.536-1.155-.959.002-2.136.292-3.521.934"/><clipPath id="b"><use xlink:href="#a"/></clipPath><clipPath id="c"><use xlink:href="#j"/></clipPath><clipPath id="d"><use xlink:href="#k"/></clipPath><clipPath id="e"><use xlink:href="#l"/></clipPath><clipPath id="f"><use xlink:href="#m"/></clipPath><clipPath id="g"><use xlink:href="#n"/></clipPath><clipPath id="h"><use xlink:href="#o"/></clipPath><clipPath id="i"><use xlink:href="#p"/></clipPath><path id="j" d="m7.325 67.124c-2.035 0-3.765.711-5.188 2.136-1.424 1.424-2.137 3.154-2.137 5.188v62.674h50.871v-13.024h-36.627v-17.905h19.942c2.034 0 3.764-.712 5.188-2.137 1.425-1.423 2.137-3.154 2.137-5.189v-4.68h-27.267v-15.058h36.627v-12.005z"/><path id="k" d="m59.215 86.455c-3.937 3.392-5.902 7.664-5.902 12.82 0 4.068 1.355 7.325 4.07 9.767 2.441 2.441 7.254 4.546 14.447 6.307 1.221.408 3.052.815 5.493 1.221 5.698 1.221 8.548 3.052 8.548 5.494 0 1.629-.815 2.917-2.442 3.866-1.764.95-3.866 1.424-6.309 1.424-3.391 0-6.103-.677-8.138-2.035-1.901-1.355-2.918-3.389-3.052-6.105h-13.838v.611c0 5.972 1.965 10.514 5.901 13.634 3.796 3.121 9.565 4.679 17.297 4.679 8.139 0 14.243-1.491 18.314-4.477 4.339-3.255 6.511-7.865 6.511-13.836 0-4.069-1.291-7.325-3.866-9.766-2.715-2.307-7.528-4.34-14.447-6.106-.544 0-1.119-.066-1.731-.203-.609-.135-1.322-.336-2.136-.609-7.056-1.493-10.581-3.324-10.581-5.496 0-1.627.61-2.848 1.831-3.663 1.354-.813 3.389-1.221 6.105-1.221 2.849 0 5.087.612 6.714 1.832.541.544 1.085 1.087 1.628 1.628 1.354 2.31 3.323 3.46 5.901 3.46h8.751c-.273-5.425-2.375-9.834-6.309-13.226-4.206-3.119-9.837-4.68-16.888-4.68-6.513 0-11.803 1.561-15.872 4.68"/><path id="l" d="m107.439 89.303c-4.206 4.884-6.307 11.668-6.307 20.349 0 9.088 2.168 16.072 6.511 20.957 4.34 5.021 10.378 7.529 18.11 7.529 6.374 0 11.666-1.558 15.871-4.679 4.204-2.983 7.053-7.326 8.547-13.024h-10.174c-1.628 0-2.849.34-3.662 1.018-.815.679-1.358 1.22-1.628 1.627-.407.408-.783.782-1.12 1.119-.34.341-.712.579-1.119.712-1.629.951-3.595 1.425-5.9 1.425-3.53 0-6.175-1.084-7.936-3.256-2.444-2.574-3.664-6.985-3.664-13.227 0-6.238 1.22-10.713 3.664-13.428 1.897-1.898 4.34-2.85 7.325-2.85 3.256 0 5.765.952 7.529 2.85.677.679 1.355 1.698 2.034 3.051h14.245c-1.087-3.932-2.849-7.392-5.292-10.377-4.475-4.883-10.784-7.325-18.922-7.325-7.733.001-13.772 2.512-18.112 7.529"/><path id="m" d="m166.246 125.524c-1.222-1.222-1.831-2.85-1.831-4.884 0-1.491.474-2.984 1.424-4.477 1.085-1.084 2.849-1.966 5.29-2.646l4.68-1.017c3.391-.814 6.035-1.695 7.936-2.647v5.089c0 3.797-1.087 6.785-3.255 8.954-2.172 2.171-5.157 3.255-8.954 3.255-2.307 0-4.068-.54-5.29-1.627m-7.935-39.069c-3.256 2.715-5.158 6.175-5.699 10.377h13.634c.678-1.491 1.761-2.508 3.257-3.052 1.49-.542 3.184-.815 5.086-.815 1.761 0 3.695.305 5.8.917 2.1.609 3.153 1.93 3.153 3.966 0 2.715-2.985 4.476-8.953 5.292-1.22.135-2.309.305-3.255.507-.951.204-1.766.305-2.443.305-5.156.815-9.394 2.442-12.717 4.884-3.326 2.441-4.985 6.511-4.985 12.207 0 6.106 1.831 10.481 5.494 13.125 3.661 2.647 7.936 3.968 12.821 3.968 2.44 0 5.254-.171 8.443-.507 3.186-.343 6.207-1.254 9.056-2.746 2.71-1.357 5.051-3.564 7.019-6.615 1.965-3.052 2.951-7.29 2.951-12.717v-18.516c0-4.884-1.968-8.68-5.901-11.394-3.799-2.578-9.495-3.866-17.093-3.866-6.785 0-12.007 1.561-15.668 4.68"/><path id="n" d="m215.896 121.859c-2.036-2.574-3.052-6.44-3.052-11.598 0-5.56.948-9.63 2.849-12.208 2.035-2.849 4.884-4.273 8.547-4.273 3.796 0 6.716 1.424 8.751 4.273 2.034 2.849 3.052 6.919 3.052 12.208 0 4.884-1.017 8.751-3.052 11.598-2.035 2.849-4.817 4.274-8.344 4.274-3.8 0-6.715-1.425-8.751-4.274m-8.546-34.896c-5.564 3.458-8.343 9.938-8.343 19.432v50.667h6.92c1.897 0 3.525-.679 4.883-2.034 1.355-1.358 2.034-2.986 2.034-4.884v-20.144c1.629 2.849 3.796 4.954 6.513 6.309 2.574 1.221 5.559 1.83 8.953 1.83 6.374 0 11.598-2.574 15.667-7.732 4.071-5.29 6.106-12.209 6.106-20.754 0-8.274-2.035-15.059-6.106-20.349-2.032-2.443-4.78-4.306-8.239-5.596-3.458-1.288-6.887-1.932-10.277-1.932-6.513-.001-12.549 1.727-18.111 5.187"/><path id="o" d="m268.802 96.426c1.897-1.898 4.34-2.85 7.325-2.85 3.256 0 5.765.952 7.529 2.85 1.628 1.762 2.575 4.476 2.849 8.139h-20.756c.135-3.528 1.151-6.239 3.053-8.139m-11.192-7.123c-4.206 4.884-6.306 11.668-6.306 20.349 0 9.088 2.167 16.072 6.511 20.957 4.338 5.021 10.377 7.529 18.109 7.529 6.373 0 11.665-1.558 15.87-4.679 4.204-2.983 7.054-7.326 8.549-13.024h-10.176c-1.627 0-2.883.34-3.765 1.018-.882.679-1.392 1.22-1.525 1.627-.406.408-.781.782-1.119 1.119-.339.341-.713.579-1.119.712-1.629.951-3.595 1.425-5.9 1.425-3.531 0-6.175-1.084-7.937-3.256-1.902-2.036-2.918-5.154-3.053-9.36h35.203c.134-.27.204-.745.204-1.424v-.815-1.423c0-8.954-2.173-15.94-6.513-20.96-4.476-4.883-10.784-7.325-18.923-7.325-7.733.002-13.77 2.513-18.11 7.53"/><path id="p" d="m312.198 50.113-1.088.419c-1.721.723-4.291 1.704-7.467 3.105-3.185 1.383-7.075 3.014-11.428 5.04-2.194.999-4.585 1.927-7.074 2.97-2.498 1.025-5.058 2.204-7.77 3.372-1.347.589-2.721 1.196-4.121 1.802-1.401.624-2.828 1.258-4.316 1.812-2.954 1.151-5.951 2.453-9.056 3.737-1.551.642-3.121 1.293-4.71 1.954-1.587.651-3.175 1.373-4.844 1.944-3.309 1.178-6.635 2.507-10.043 3.8-.311.118-.629.242-.94.362 2.971 1.272 5.594 3.032 7.852 5.283 2.086-.906 4.156-1.805 6.192-2.681 1.66-.679 3.222-1.502 4.8-2.26 1.561-.758 3.114-1.516 4.639-2.265 3.059-1.49 6.031-2.935 8.911-4.336 1.446-.678 2.827-1.435 4.184-2.167 1.356-.732 2.694-1.445 3.996-2.15 5.228-2.819 10.027-5.361 14.22-7.743 4.157-2.444 7.77-4.585 10.749-6.343 5.959-3.514 9.367-5.521 9.367-5.521l-.446-.741-.017-.027c-.002 0-.547.215-1.59.634m-215.322 27.184 19.486-.139 57.812-57.811 23.886 23.886-3.278 3.276-28.011 28.013h7.737l37.916-37.919 36.235 36.235c.131-.047.263-.097.394-.145 1.122-.384 2.186-.832 3.309-1.308.457-.194.912-.385 1.367-.573l4.701-1.947c.992-.412 1.975-.824 2.949-1.233.341-.145.666-.278 1.003-.419l-49.957-49.956-10.498 10.499-27.753-27.756z"/></defs><g fill="#fff"><use xlink:href="#a"/><path clip-path="url(#b)" d="m306.043 17.225h65.039v32.964h-65.039z"/><use xlink:href="#j"/><path clip-path="url(#c)" d="m0 67.124h50.871v69.997h-50.871z"/><use xlink:href="#k"/><path clip-path="url(#d)" d="m52.092 81.775h48.022v56.364h-48.022z"/><use xlink:href="#l"/><path clip-path="url(#e)" d="m101.132 81.775h49.039v56.364h-49.039z"/><use xlink:href="#m"/><path clip-path="url(#f)" d="m151.189 81.775h45.784v56.364h-45.784z"/><use xlink:href="#n"/><path clip-path="url(#g)" d="m199.007 81.775h51.073v75.287h-51.073z"/><use xlink:href="#o"/><path clip-path="url(#h)" d="m251.303 81.775h49.852v56.364h-49.852z"/><use xlink:href="#p"/><path clip-path="url(#i)" d="m-18.799 0h332.157v138.749h-332.157z"/><path d="m305.718 137.122v-63.322c0-2.056.72-3.803 2.159-5.242s3.187-2.159 5.243-2.159h7.196v26.315h29.194v-26.315h14.802v70.723h-14.802v-31.455h-29.194v31.455z"/><path d="m405.223 120.264h10.279c-1.51 5.756-4.388 10.144-8.635 13.158-4.249 3.154-9.595 4.729-16.036 4.729-7.812 0-13.912-2.534-18.297-7.607-4.388-4.934-6.579-11.991-6.579-21.176 0-8.77 2.124-15.625 6.373-20.559 4.385-5.069 10.485-7.607 18.297-7.607 8.224 0 14.597 2.467 19.12 7.401 4.385 5.073 6.579 12.13 6.579 21.176v1.439.822c0 .687-.071 1.166-.206 1.439h-35.567c.135 4.25 1.163 7.401 3.084 9.457 1.78 2.194 4.452 3.289 8.018 3.289 2.329 0 4.317-.478 5.962-1.439.411-.135.787-.375 1.131-.72.341-.341.72-.72 1.131-1.131.135-.411.649-.957 1.542-1.645.891-.682 2.16-1.026 3.804-1.026zm-24.67-16.036h20.97c-.276-3.701-1.234-6.44-2.878-8.224-1.782-1.917-4.317-2.878-7.607-2.878-3.016 0-5.483.961-7.401 2.878-1.921 1.921-2.949 4.662-3.084 8.224z"/><path d="m418.587 137.122v-26.521c0-5.345.788-9.833 2.364-13.466 1.574-3.63 3.733-6.543 6.476-8.738 2.602-2.056 5.654-3.562 9.149-4.523 3.495-.957 7.093-1.439 10.793-1.439h1.028 1.028v14.597h-4.729c-3.977 0-6.922.961-8.84 2.878-1.921 1.921-2.878 4.934-2.878 9.046v28.166z"/><path d="m488.898 120.264h10.279c-1.51 5.756-4.388 10.144-8.635 13.158-4.249 3.154-9.595 4.729-16.036 4.729-7.812 0-13.912-2.534-18.298-7.607-4.388-4.934-6.579-11.991-6.579-21.176 0-8.77 2.124-15.625 6.373-20.559 4.385-5.069 10.485-7.607 18.297-7.607 8.224 0 14.597 2.467 19.12 7.401 4.385 5.073 6.579 12.13 6.579 21.176v1.439.822c0 .687-.071 1.166-.206 1.439h-35.567c.135 4.25 1.163 7.401 3.084 9.457 1.78 2.194 4.452 3.289 8.018 3.289 2.329 0 4.317-.478 5.962-1.439.411-.135.788-.375 1.131-.72.341-.341.72-.72 1.131-1.131.135-.411.649-.957 1.542-1.645.892-.682 2.16-1.026 3.805-1.026zm-24.671-16.036h20.97c-.276-3.701-1.234-6.44-2.878-8.224-1.782-1.917-4.317-2.878-7.607-2.878-3.016 0-5.483.961-7.401 2.878-1.921 1.921-2.948 4.662-3.084 8.224z"/></g></svg>