<svg enable-background="new 0 0 72 72" height="72" viewBox="0 0 72 72" width="72" xmlns="http://www.w3.org/2000/svg"><path d="m68 0h-64c-2.2 0-4 1.8-4 4v64c0 2.2 1.8 4 4 4h34.5v-27.8h-9.3v-10.9h9.3v-8c0-9.3 5.7-14.4 14-14.4 2.8 0 5.6.1 8.4.4v9.7h-5.7c-4.5 0-5.4 2.1-5.4 5.3v6.9h10.8l-1.4 10.9h-9.4v27.9h18.2c2.2 0 4-1.8 4-4v-64c0-2.2-1.8-4-4-4z" fill="#444"/><path d="m49.7 72v-27.8h9.4l1.4-10.9h-10.8v-6.9c0-3.1.9-5.3 5.4-5.3h5.7v-9.7c-2.8-.3-5.6-.4-8.4-.4-8.3 0-14 5.1-14 14.4v8h-9.3v10.9h9.3v27.7z" fill="#fff"/></svg>