<svg enable-background="new 0 0 500.233 185.112" height="185.112" viewBox="0 0 500.233 185.112" width="500.233" xmlns="http://www.w3.org/2000/svg"><path d="m.233 182.955h15.203v-91.015h30.51v-12.225h-30.51v-65.642h32.256v-11.916h-47.459zm81.923-180.798-29.072 180.798h14.484l5.445-36.673h36.159l5.958 36.673h14.793l-32.153-180.798zm-7.192 131.49 15.306-102.315h.206l16.642 102.315zm122.759 20.339-28.456-151.829h-17.156v180.798h13.971v-77.455l-2.363-72.833 26.708 146.385h14.589l25.783-146.385-2.363 72.833v77.455h13.869v-180.798h-17.154zm114.727-139.913v-11.916h-47.767v180.798h47.459v-12.121h-32.152v-73.655h30.508v-12.43h-30.508v-70.676z" fill="#fff"/><path d="m.233 182.955h15.203v-91.015h30.51v-12.225h-30.51v-65.642h32.256v-11.916h-47.459zm81.923-180.798-29.072 180.798h14.484l5.445-36.673h36.159l5.958 36.673h14.793l-32.153-180.798zm-7.192 131.49 15.306-102.315h.206l16.642 102.315zm122.759 20.339-28.456-151.829h-17.156v180.798h13.971v-77.455l-2.363-72.833 26.708 146.385h14.589l25.783-146.385-2.363 72.833v77.455h13.869v-180.798h-17.154zm114.727-139.913v-11.916h-47.767v180.798h47.459v-12.121h-32.152v-73.655h30.508v-12.43h-30.508v-70.676z" fill="none" stroke="#fff" stroke-miterlimit="10" stroke-width=".4656"/><path d="m463.336 134.673v-88.036c0-11.847-1.37-20.458-4.109-25.835-2.74-5.375-7.123-8.064-13.149-8.064-6.027 0-10.342 2.671-12.943 8.013-2.604 5.342-3.904 13.937-3.904 25.784v88.139c0 13.286 1.3 22.908 3.904 28.866 2.601 5.957 6.915 8.937 12.943 8.937 6.025 0 10.409-2.98 13.149-8.937 2.739-5.959 4.109-15.58 4.109-28.867zm-91.799-117.107c5.118-3.813 9.034-9.179 11.766-15.426h-50.014v180.831h44.051v-157.597c-2.328 2.808-5.616 4.982-9.861 6.523-4.247 1.541-8.423 2.311-12.532 2.311v-9.554c5.819-.822 11.351-3.184 16.59-7.088zm87.774-15.426c4.896 1.859 8.79 4.928 11.679 9.211 5.101 7.568 7.653 19.708 7.653 36.416v86.392c0 17.807-2.586 30.75-7.756 38.831-3.003 4.693-7.046 8.013-12.116 9.981h41.462v-180.831zm-37.681 170.85c-5.069-8.081-7.602-21.024-7.602-38.831v-86.392c0-16.708 2.533-28.848 7.602-36.416 2.869-4.283 6.749-7.352 11.637-9.211h-40.62v180.831h40.971c-5.044-1.967-9.046-5.288-11.988-9.981z" fill="#ed2552"/></svg>