<svg xmlns="http://www.w3.org/2000/svg" viewBox="0 0 585.55 146.15"><g id="Layer_2" data-name="Layer 2"><g id="Layer_1-2" data-name="Layer 1"><path d="M127.42,74.56c-3.37,5.17-8.5,15.07-10.5,29.86a111.31,111.31,0,0,0,2.73,41.73h49.11Z" style="fill:#2c2c2c"/><path d="M115,53,84.38,0,29.74,94.65C58.13,72.07,88.88,59.82,115,53Z" style="fill:#2c2c2c"/><path d="M115.18,53.51l.07,0L115,53Z" style="fill:#2c2c2c"/><path d="M0,146.15H23.4s16.94-42.65,92.43-85.3C115.83,60.85,35.17,90.88,0,146.15Z" style="fill:#2c2c2c"/><path d="M42,146.15H64.66a138.62,138.62,0,0,1,15.66-36.21,189.49,189.49,0,0,1,40.76-46.1S68.89,90.45,42,146.15Z" style="fill:#2c2c2c"/><path d="M81.18,146.15h20.59s-5.29-21.26,4-45.93,17-29.94,17-29.94S92.81,91.2,81.18,146.15Z" style="fill:#2c2c2c"/><path d="M193.11,22.36h32.16a.72.72,0,0,1,.72.72v6.76a.72.72,0,0,1-.72.72H203a.72.72,0,0,0-.72.72V41a.72.72,0,0,0,.72.72h19.3a.72.72,0,0,1,.72.72v6.77a.72.72,0,0,1-.72.72H203a.72.72,0,0,0-.72.72V69.45a.72.72,0,0,1-.72.72h-8.42a.72.72,0,0,1-.72-.72V23.08A.72.72,0,0,1,193.11,22.36Z" style="fill:#2c2c2c"/><path d="M233.86,22.36h33.83a.72.72,0,0,1,.72.72v6.76a.72.72,0,0,1-.72.72h-24a.72.72,0,0,0-.72.72v9a.72.72,0,0,0,.72.72h22a.72.72,0,0,1,.72.72v6.76a.72.72,0,0,1-.72.72h-22A.72.72,0,0,0,243,50v11.3a.72.72,0,0,0,.72.72h25a.72.72,0,0,1,.72.72v6.76a.72.72,0,0,1-.72.72h-34.9a.72.72,0,0,1-.72-.72V23.08A.72.72,0,0,1,233.86,22.36Z" style="fill:#2c2c2c"/><path d="M297.56,22.36C312.63,22.36,318,28.89,318,46c0,16.47-5.74,24.14-20.54,24.14H278.34a.72.72,0,0,1-.72-.72V23.08a.72.72,0,0,1,.72-.72Zm-10.07,8.92v30a.72.72,0,0,0,.72.72h8c9.6,0,11.8-3.67,11.8-15.87,0-13-1.4-15.54-12.87-15.54h-7A.72.72,0,0,0,287.49,31.28Z" style="fill:#2c2c2c"/><path d="M326.5,22.36h33.83a.72.72,0,0,1,.72.72v6.76a.72.72,0,0,1-.72.72h-24a.72.72,0,0,0-.72.72v9a.72.72,0,0,0,.72.72h22a.72.72,0,0,1,.72.72v6.76a.72.72,0,0,1-.72.72h-22a.72.72,0,0,0-.72.72v11.3a.72.72,0,0,0,.72.72h25a.72.72,0,0,1,.72.72v6.76a.72.72,0,0,1-.72.72H326.5a.72.72,0,0,1-.72-.72V23.08A.72.72,0,0,1,326.5,22.36Z" style="fill:#2c2c2c"/><path d="M370.26,23.08a.72.72,0,0,1,.72-.72h20c9.94,0,18.61.27,18.61,14.34,0,8.79-3.44,12.38-8.41,13.82a.72.72,0,0,0-.39,1.08L412,69.06a.72.72,0,0,1-.61,1.11H401.13a.74.74,0,0,1-.61-.34L389.21,51.71a.72.72,0,0,0-.61-.34h-7.75a.72.72,0,0,0-.72.72V69.45a.72.72,0,0,1-.72.72H371a.72.72,0,0,1-.72-.72Zm9.87,8.2V42.44a.72.72,0,0,0,.72.72H389c7.94,0,10.6-.8,10.6-6.8,0-4.8-1.66-5.8-10-5.8h-8.75A.72.72,0,0,0,380.13,31.28Z" style="fill:#2c2c2c"/><path d="M449.69,69.64c-.79-3-1.68-6-2.58-9.09a.72.72,0,0,0-.69-.51H428.09a.72.72,0,0,0-.69.52c-.89,3-1.73,6.09-2.51,9.08a.71.71,0,0,1-.69.53h-8.94a.73.73,0,0,1-.7-.93A397.28,397.28,0,0,1,431.7,22.79a.71.71,0,0,1,.66-.43h10.13a.71.71,0,0,1,.66.43,373,373,0,0,1,17.21,46.45.73.73,0,0,1-.7.93h-9.28A.7.7,0,0,1,449.69,69.64ZM431.16,51.83h12.19a.72.72,0,0,0,.69-.95c-1.82-5.31-3.83-10.67-6.09-16a.73.73,0,0,0-1.34,0c-2.3,5.36-4.32,10.72-6.13,16A.72.72,0,0,0,431.16,51.83Z" style="fill:#2c2c2c"/><path d="M469.65,30.76h-13A.72.72,0,0,1,456,30v-7a.72.72,0,0,1,.72-.72h37.17a.72.72,0,0,1,.72.72v7a.72.72,0,0,1-.72.72H481a.72.72,0,0,0-.72.72v38a.72.72,0,0,1-.72.72h-8.43a.72.72,0,0,1-.72-.72v-38A.72.72,0,0,0,469.65,30.76Z" style="fill:#2c2c2c"/><path d="M501.37,22.36h33.84a.72.72,0,0,1,.72.72v6.76a.72.72,0,0,1-.72.72h-24a.72.72,0,0,0-.72.72v9a.72.72,0,0,0,.72.72h22a.72.72,0,0,1,.72.72v6.76a.72.72,0,0,1-.72.72h-22a.73.73,0,0,0-.72.72v11.3a.72.72,0,0,0,.72.72h25a.72.72,0,0,1,.72.72v6.76a.72.72,0,0,1-.72.72H501.37a.72.72,0,0,1-.72-.72V23.08A.72.72,0,0,1,501.37,22.36Z" style="fill:#2c2c2c"/><path d="M565.08,22.36c15.07,0,20.47,6.53,20.47,23.67,0,16.47-5.73,24.14-20.54,24.14H545.86a.72.72,0,0,1-.72-.72V23.08a.72.72,0,0,1,.72-.72ZM555,31.28v30a.72.72,0,0,0,.72.72h8c9.61,0,11.81-3.67,11.81-15.87,0-13-1.4-15.54-12.87-15.54h-6.95A.72.72,0,0,0,555,31.28Z" style="fill:#2c2c2c"/><path d="M193.11,97.27h32.16A.72.72,0,0,1,226,98v6.76a.72.72,0,0,1-.72.72H203a.72.72,0,0,0-.72.72V116a.72.72,0,0,0,.72.72h19.3a.72.72,0,0,1,.72.72v6.76a.72.72,0,0,1-.72.72H203a.73.73,0,0,0-.72.72v18.77a.72.72,0,0,1-.72.72h-8.42a.72.72,0,0,1-.72-.72V98A.72.72,0,0,1,193.11,97.27Z" style="fill:#2c2c2c"/><path d="M252.61,96.2c11.4,0,23.21,3.67,23.21,24.94,0,20.94-11.41,25-23,25-12.21,0-23.14-4.47-23.14-25C229.67,99.47,241.8,96.2,252.61,96.2Zm.53,41.55c6.67,0,12.67-1.34,12.67-16.88,0-12.2-3.73-16.27-13.27-16.27-8.87,0-12.87,3.54-12.87,16.81C239.67,135.28,244.07,137.75,253.14,137.75Z" style="fill:#2c2c2c"/><path d="M292.71,97.27a.72.72,0,0,1,.72.72v24.48c0,12.14.53,15.28,9.47,15.28,8.2,0,9.2-2.6,9.2-14.88V98a.72.72,0,0,1,.72-.72h8.43A.72.72,0,0,1,322,98v30.89c0,14.73-7.53,17.27-18.74,17.27-11.87,0-19.67-2.87-19.67-17.41V98a.72.72,0,0,1,.72-.72Z" style="fill:#2c2c2c"/><path d="M332.37,97.27h8.94a.72.72,0,0,1,.62.35L359,126.54a.72.72,0,0,0,1.34-.37V98a.72.72,0,0,1,.72-.72h8.43a.72.72,0,0,1,.72.72v46.37a.72.72,0,0,1-.72.72h-8.74a.72.72,0,0,1-.62-.35L342.86,115.6a.72.72,0,0,0-1.34.37v28.39a.72.72,0,0,1-.72.72h-8.43a.72.72,0,0,1-.72-.72V98A.72.72,0,0,1,332.37,97.27Z" style="fill:#2c2c2c"/><path d="M399.94,97.27c15.07,0,20.47,6.53,20.47,23.67,0,16.47-5.73,24.14-20.54,24.14H380.72a.72.72,0,0,1-.72-.72V98a.72.72,0,0,1,.72-.72Zm-10.07,8.92v30a.72.72,0,0,0,.72.72h8c9.6,0,11.8-3.67,11.8-15.87,0-13-1.4-15.54-12.87-15.54h-7A.72.72,0,0,0,389.87,106.19Z" style="fill:#2c2c2c"/><path d="M428.15,98a.72.72,0,0,1,.72-.72h20c9.94,0,18.61.26,18.61,14.34,0,8.79-3.44,12.38-8.41,13.82a.72.72,0,0,0-.39,1.08L469.92,144a.72.72,0,0,1-.61,1.11H459a.72.72,0,0,1-.61-.34L447.1,126.62a.72.72,0,0,0-.61-.34h-7.75a.72.72,0,0,0-.72.72v17.36a.72.72,0,0,1-.72.72h-8.43a.72.72,0,0,1-.72-.72Zm9.87,8.2v11.16a.72.72,0,0,0,.72.72h8.15c7.94,0,10.61-.8,10.61-6.8,0-4.8-1.67-5.8-10-5.8h-8.75A.72.72,0,0,0,438,106.19Z" style="fill:#2c2c2c"/><path d="M486,126.16A180.25,180.25,0,0,1,469.73,98.3a.72.72,0,0,1,.65-1h10a.72.72,0,0,1,.67.45,105.45,105.45,0,0,0,9.61,18.71.73.73,0,0,0,1.23,0,103.76,103.76,0,0,0,9.22-18.7.7.7,0,0,1,.67-.46h9.64a.72.72,0,0,1,.66,1,190.23,190.23,0,0,1-15.94,28,.74.74,0,0,0-.13.41v17.66a.72.72,0,0,1-.72.72h-8.43a.72.72,0,0,1-.72-.72V126.57A.67.67,0,0,0,486,126.16Z" style="fill:#2c2c2c"/></g></g></svg>