<svg width="200" height="50" viewBox="0 0 200 50" fill="none" xmlns="http://www.w3.org/2000/svg">
<g clip-path="url(#clip0)">
<path d="M43.5214 25.5078C42.3703 27.2765 40.6181 30.6635 39.935 35.7233C39.3425 40.4984 39.6589 45.3427 40.8675 49.9998H57.6415L43.5214 25.5078Z" fill="white"/>
<path d="M39.2794 18.1321L28.8208 0L10.158 32.3811C19.8549 24.6562 30.3578 20.4653 39.2794 18.1321Z" fill="white"/>
<path d="M39.3416 18.3066H39.3658L39.2794 18.1321L39.3416 18.3066Z" fill="white"/>
<path d="M0 50H7.99249C7.99249 50 13.7785 35.4088 39.5628 20.8176C39.5628 20.8176 12.0126 31.0913 0 50Z" fill="white"/>
<path d="M14.3455 49.9998H22.0852C23.2694 45.6361 25.0705 41.4646 27.434 37.6118C31.1857 31.63 35.8884 26.3026 41.356 21.8403C41.356 21.8403 23.53 30.944 14.3455 49.9998Z" fill="white"/>
<path d="M27.7279 50.0001H34.7606C34.7606 50.0001 32.9538 42.7268 36.1268 34.2868C39.2999 25.8469 41.9333 24.0439 41.9333 24.0439C41.9333 24.0439 31.7002 31.201 27.7279 50.0001Z" fill="white"/>
<path d="M65.9585 7.64966H76.943C77.0082 7.64966 77.0708 7.67561 77.1169 7.7218C77.163 7.768 77.1889 7.83065 77.1889 7.89598V10.2087C77.1889 10.274 77.163 10.3367 77.1169 10.3828C77.0708 10.429 77.0082 10.455 76.943 10.455H69.3365C69.2713 10.455 69.2087 10.4809 69.1626 10.5271C69.1165 10.5733 69.0906 10.636 69.0906 10.7013V14.0267C69.0906 14.092 69.1165 14.1546 69.1626 14.2008C69.2087 14.247 69.2713 14.273 69.3365 14.273H75.9286C75.9938 14.273 76.0563 14.2989 76.1025 14.3451C76.1486 14.3913 76.1745 14.454 76.1745 14.5193V16.8354C76.1745 16.9008 76.1486 16.9634 76.1025 17.0096C76.0563 17.0558 75.9938 17.0817 75.9286 17.0817H69.3365C69.2713 17.0817 69.2087 17.1077 69.1626 17.1539C69.1165 17.2001 69.0906 17.2627 69.0906 17.3281V23.7598C69.0906 23.8251 69.0646 23.8878 69.0185 23.934C68.9724 23.9802 68.9099 24.0061 68.8446 24.0061H65.9687C65.9035 24.0061 65.8409 23.9802 65.7948 23.934C65.7487 23.8878 65.7228 23.8251 65.7228 23.7598V7.89598C65.7227 7.83239 65.7472 7.77125 65.7911 7.72533C65.8351 7.67942 65.895 7.65231 65.9585 7.64966Z" fill="white"/>
<path d="M79.8771 7.64979H91.4321C91.4973 7.64979 91.5598 7.67575 91.606 7.72194C91.6521 7.76813 91.678 7.83079 91.678 7.89612V10.2088C91.678 10.2741 91.6521 10.3368 91.606 10.383C91.5598 10.4292 91.4973 10.4551 91.4321 10.4551H83.2347C83.1694 10.4551 83.1069 10.4811 83.0608 10.5273C83.0146 10.5735 82.9887 10.6361 82.9887 10.7015V13.7805C82.9887 13.8458 83.0146 13.9085 83.0608 13.9547C83.1069 14.0009 83.1694 14.0268 83.2347 14.0268H90.7489C90.7812 14.0268 90.8132 14.0332 90.8431 14.0456C90.8729 14.0579 90.9 14.0761 90.9228 14.099C90.9457 14.1218 90.9638 14.149 90.9762 14.1789C90.9885 14.2087 90.9949 14.2408 90.9949 14.2731V16.5858C90.9949 16.6182 90.9885 16.6502 90.9762 16.6801C90.9638 16.71 90.9457 16.7371 90.9228 16.76C90.9 16.7829 90.8729 16.801 90.8431 16.8134C90.8132 16.8258 90.7812 16.8321 90.7489 16.8321H83.2347C83.2008 16.8333 83.1676 16.8415 83.137 16.8562C83.1065 16.8709 83.0793 16.8917 83.0571 16.9174C83.035 16.9431 83.0184 16.9731 83.0084 17.0055C82.9984 17.038 82.9952 17.0721 82.999 17.1058V20.9717C82.999 21.0371 83.0249 21.0997 83.071 21.1459C83.1171 21.1921 83.1797 21.218 83.2449 21.218H91.7839C91.8162 21.218 91.8481 21.2244 91.878 21.2368C91.9078 21.2492 91.9349 21.2673 91.9578 21.2902C91.9806 21.3131 91.9987 21.3402 92.0111 21.3701C92.0234 21.4 92.0298 21.432 92.0298 21.4644V23.7771C92.0298 23.8094 92.0234 23.8414 92.0111 23.8713C91.9987 23.9012 91.9806 23.9284 91.9578 23.9512C91.9349 23.9741 91.9078 23.9923 91.878 24.0046C91.8481 24.017 91.8162 24.0234 91.7839 24.0234H79.8635C79.7983 24.0234 79.7357 23.9974 79.6896 23.9512C79.6435 23.905 79.6176 23.8424 79.6176 23.7771V7.89612C79.6175 7.86258 79.6243 7.82939 79.6375 7.79858C79.6507 7.76777 79.67 7.73998 79.6943 7.71692C79.7186 7.69386 79.7474 7.67601 79.7788 7.66447C79.8103 7.65292 79.8437 7.64793 79.8771 7.64979Z" fill="white"/>
<path d="M101.634 7.64966C106.782 7.64966 108.616 9.88366 108.616 15.7372C108.616 21.3719 106.655 23.9959 101.6 23.9959H95.0695C95.0043 23.9959 94.9418 23.9699 94.8956 23.9237C94.8495 23.8775 94.8236 23.8149 94.8236 23.7496V7.89598C94.8236 7.83065 94.8495 7.768 94.8956 7.7218C94.9418 7.67561 95.0043 7.64966 95.0695 7.64966H101.634ZM98.1948 10.7013V20.9647C98.1948 21.0301 98.2207 21.0927 98.2668 21.1389C98.313 21.1851 98.3755 21.2111 98.4407 21.2111H101.173C104.452 21.2111 105.204 19.9555 105.204 15.7817C105.204 11.3342 104.725 10.4653 100.808 10.4653H98.4168C98.3576 10.471 98.3024 10.4981 98.2615 10.5415C98.2207 10.5849 98.197 10.6417 98.1948 10.7013Z" fill="white"/>
<path d="M111.519 7.64966H123.074C123.139 7.64966 123.202 7.67561 123.248 7.7218C123.294 7.768 123.32 7.83065 123.32 7.89598V10.2087C123.32 10.274 123.294 10.3367 123.248 10.3828C123.202 10.429 123.139 10.455 123.074 10.455H114.877C114.811 10.455 114.749 10.4809 114.703 10.5271C114.657 10.5733 114.631 10.636 114.631 10.7013V13.7803C114.631 13.8457 114.657 13.9083 114.703 13.9545C114.749 14.0007 114.811 14.0267 114.877 14.0267H122.391C122.456 14.0267 122.519 14.0526 122.565 14.0988C122.611 14.145 122.637 14.2077 122.637 14.273V16.5857C122.637 16.651 122.611 16.7137 122.565 16.7599C122.519 16.8061 122.456 16.832 122.391 16.832H114.877C114.811 16.832 114.749 16.858 114.703 16.9042C114.657 16.9503 114.631 17.013 114.631 17.0783V20.9442C114.631 21.0095 114.657 21.0722 114.703 21.1184C114.749 21.1646 114.811 21.1905 114.877 21.1905H123.416C123.481 21.1905 123.543 21.2165 123.589 21.2627C123.636 21.3089 123.661 21.3715 123.661 21.4369V23.7496C123.661 23.8149 123.636 23.8775 123.589 23.9237C123.543 23.9699 123.481 23.9959 123.416 23.9959H111.519C111.487 23.9959 111.455 23.9895 111.425 23.9771C111.395 23.9647 111.368 23.9466 111.345 23.9237C111.322 23.9009 111.304 23.8737 111.292 23.8438C111.279 23.8139 111.273 23.7819 111.273 23.7496V7.89598C111.273 7.86363 111.279 7.8316 111.292 7.80172C111.304 7.77183 111.322 7.74468 111.345 7.7218C111.368 7.69893 111.395 7.68079 111.425 7.66841C111.455 7.65603 111.487 7.64966 111.519 7.64966Z" fill="white"/>
<path d="M126.466 7.89598C126.466 7.83065 126.491 7.768 126.538 7.7218C126.584 7.67561 126.646 7.64966 126.711 7.64966H133.543C136.938 7.64966 139.899 7.74203 139.899 12.5556C139.899 15.5628 138.724 16.791 137.027 17.2836C136.99 17.2949 136.957 17.3145 136.93 17.3407C136.902 17.367 136.881 17.3994 136.868 17.4352C136.855 17.471 136.851 17.5093 136.855 17.5471C136.86 17.5849 136.873 17.6212 136.893 17.6531L140.722 23.6264C140.746 23.6637 140.76 23.7068 140.761 23.7512C140.763 23.7956 140.752 23.8395 140.731 23.8785C140.71 23.9174 140.678 23.9498 140.64 23.9722C140.602 23.9947 140.558 24.0064 140.514 24.0061H137.01C136.968 24.0054 136.927 23.9944 136.891 23.9741C136.854 23.9539 136.824 23.9249 136.801 23.8898L132.938 17.6907C132.916 17.6552 132.885 17.6259 132.849 17.6056C132.813 17.5852 132.772 17.5745 132.73 17.5744H130.083C130.017 17.5744 129.955 17.6003 129.909 17.6465C129.863 17.6927 129.837 17.7554 129.837 17.8207V23.7598C129.837 23.7922 129.83 23.8242 129.818 23.8541C129.806 23.884 129.788 23.9111 129.765 23.934C129.742 23.9569 129.715 23.975 129.685 23.9874C129.655 23.9998 129.623 24.0061 129.591 24.0061H126.718C126.653 24.0061 126.591 23.9802 126.544 23.934C126.498 23.8878 126.472 23.8251 126.472 23.7598L126.466 7.89598ZM129.837 10.7013V14.5193C129.837 14.5517 129.843 14.5837 129.855 14.6136C129.868 14.6435 129.886 14.6706 129.909 14.6935C129.932 14.7164 129.959 14.7345 129.989 14.7469C130.018 14.7593 130.05 14.7656 130.083 14.7656H132.866C135.578 14.7656 136.487 14.4919 136.487 12.4393C136.487 10.7971 135.92 10.455 133.071 10.455H130.083C130.05 10.455 130.018 10.4614 129.989 10.4737C129.959 10.4861 129.932 10.5043 129.909 10.5271C129.886 10.55 129.868 10.5772 129.855 10.6071C129.843 10.6369 129.837 10.669 129.837 10.7013Z" fill="white"/>
<path d="M153.596 23.8248C153.326 22.7985 153.022 21.7721 152.714 20.715C152.699 20.6644 152.668 20.6202 152.625 20.5888C152.583 20.5573 152.532 20.5404 152.479 20.5405H146.218C146.165 20.5407 146.113 20.5581 146.071 20.5901C146.028 20.6222 145.997 20.6672 145.982 20.7184C145.678 21.7448 145.391 22.8019 145.125 23.8248C145.111 23.877 145.081 23.9231 145.038 23.9559C144.995 23.9887 144.943 24.0064 144.889 24.0061H141.836C141.797 24.006 141.759 23.997 141.725 23.9797C141.69 23.9625 141.66 23.9374 141.637 23.9066C141.614 23.8758 141.598 23.84 141.591 23.8021C141.584 23.7641 141.586 23.7251 141.597 23.688C143.216 18.2742 145.172 12.9668 147.451 7.79678C147.47 7.75271 147.501 7.71522 147.542 7.68904C147.582 7.66286 147.629 7.64916 147.676 7.64967H151.136C151.184 7.64916 151.231 7.66286 151.271 7.68904C151.312 7.71522 151.343 7.75271 151.362 7.79678C153.671 12.9575 155.634 18.2663 157.24 23.688C157.251 23.7251 157.252 23.7641 157.245 23.8021C157.238 23.84 157.223 23.8758 157.2 23.9066C157.176 23.9374 157.146 23.9625 157.112 23.9797C157.078 23.997 157.04 24.006 157.001 24.0061H153.831C153.777 24.007 153.725 23.9895 153.682 23.9566C153.639 23.9237 153.609 23.8773 153.596 23.8248ZM147.267 17.7318H151.43C151.469 17.7322 151.508 17.7232 151.543 17.7055C151.578 17.6879 151.609 17.662 151.632 17.6302C151.655 17.5984 151.67 17.5615 151.676 17.5226C151.682 17.4838 151.678 17.444 151.666 17.4068C151.044 15.5901 150.358 13.7564 149.586 11.9329C149.566 11.8882 149.534 11.8501 149.494 11.8234C149.453 11.7966 149.406 11.7824 149.357 11.7824C149.308 11.7824 149.261 11.7966 149.22 11.8234C149.179 11.8501 149.147 11.8882 149.128 11.9329C148.342 13.7667 147.653 15.6004 147.034 17.4068C147.022 17.4438 147.018 17.4832 147.024 17.5218C147.03 17.5604 147.045 17.5971 147.067 17.6288C147.09 17.6606 147.12 17.6865 147.155 17.7044C147.189 17.7223 147.228 17.7317 147.267 17.7318Z" fill="white"/>
<path d="M160.413 10.5234H155.973C155.91 10.5174 155.851 10.4868 155.81 10.4383C155.768 10.3898 155.747 10.3271 155.751 10.2634V7.86864C155.751 7.83629 155.757 7.80426 155.77 7.77437C155.782 7.74449 155.8 7.71733 155.823 7.69446C155.846 7.67159 155.873 7.65344 155.903 7.64106C155.933 7.62869 155.965 7.62231 155.997 7.62231H168.693C168.758 7.62231 168.82 7.64827 168.866 7.69446C168.913 7.74065 168.939 7.80331 168.939 7.86864V10.2634C168.939 10.3288 168.913 10.3914 168.866 10.4376C168.82 10.4838 168.758 10.5098 168.693 10.5098H164.29C164.225 10.5098 164.162 10.5357 164.116 10.5819C164.07 10.6281 164.044 10.6908 164.044 10.7561V23.7564C164.044 23.8218 164.018 23.8844 163.972 23.9306C163.926 23.9768 163.863 24.0027 163.798 24.0027H160.919C160.853 24.0027 160.791 23.9768 160.745 23.9306C160.699 23.8844 160.673 23.8218 160.673 23.7564V10.7561C160.671 10.7237 160.663 10.692 160.649 10.6628C160.635 10.6336 160.615 10.6074 160.591 10.5858C160.567 10.5642 160.539 10.5476 160.508 10.5369C160.478 10.5262 160.446 10.5216 160.413 10.5234Z" fill="white"/>
<path d="M171.248 7.64966H182.806C182.871 7.64966 182.934 7.67561 182.98 7.7218C183.026 7.768 183.052 7.83065 183.052 7.89598V10.2087C183.052 10.274 183.026 10.3367 182.98 10.3828C182.934 10.429 182.871 10.455 182.806 10.455H174.609C174.543 10.455 174.481 10.4809 174.435 10.5271C174.389 10.5733 174.363 10.636 174.363 10.7013V13.7803C174.363 13.8457 174.389 13.9083 174.435 13.9545C174.481 14.0007 174.543 14.0267 174.609 14.0267H182.123C182.188 14.0267 182.251 14.0526 182.297 14.0988C182.343 14.145 182.369 14.2077 182.369 14.273V16.5857C182.369 16.651 182.343 16.7137 182.297 16.7599C182.251 16.8061 182.188 16.832 182.123 16.832H174.609C174.544 16.8329 174.482 16.8591 174.436 16.9051C174.39 16.9511 174.364 17.0133 174.363 17.0783V20.9442C174.363 21.0095 174.389 21.0722 174.435 21.1184C174.481 21.1646 174.543 21.1905 174.609 21.1905H183.148C183.213 21.1905 183.275 21.2165 183.321 21.2627C183.368 21.3089 183.393 21.3715 183.393 21.4369V23.7496C183.393 23.8149 183.368 23.8775 183.321 23.9237C183.275 23.9699 183.213 23.9959 183.148 23.9959H171.248C171.182 23.9959 171.12 23.9699 171.074 23.9237C171.028 23.8775 171.002 23.8149 171.002 23.7496V7.89598C171.002 7.83065 171.028 7.768 171.074 7.7218C171.12 7.67561 171.182 7.64966 171.248 7.64966Z" fill="white"/>
<path d="M193.008 7.64966C198.155 7.64966 200 9.88366 200 15.7475C200 21.3821 198.043 24.0061 192.984 24.0061H186.443C186.378 24.0061 186.316 23.9802 186.27 23.934C186.223 23.8878 186.198 23.8251 186.198 23.7598V7.89598C186.198 7.83065 186.223 7.768 186.27 7.7218C186.316 7.67561 186.378 7.64966 186.443 7.64966H193.008ZM189.565 10.7013V20.9647C189.565 20.9971 189.572 21.0291 189.584 21.059C189.596 21.0889 189.614 21.116 189.637 21.1389C189.66 21.1618 189.687 21.1799 189.717 21.1923C189.747 21.2047 189.779 21.2111 189.811 21.2111H192.544C195.826 21.2111 196.577 19.9555 196.577 15.7817C196.577 11.3342 196.099 10.4653 192.182 10.4653H189.808C189.745 10.4661 189.685 10.491 189.64 10.5349C189.594 10.5788 189.568 10.6384 189.565 10.7013Z" fill="white"/>
<path d="M65.9585 33.2776H76.943C76.9759 33.2772 77.0085 33.2833 77.039 33.2957C77.0694 33.3081 77.0971 33.3265 77.1203 33.3497C77.1436 33.373 77.1619 33.4007 77.1743 33.4312C77.1867 33.4617 77.1928 33.4944 77.1924 33.5274V35.84C77.1924 35.9054 77.1664 35.968 77.1203 36.0142C77.0742 36.0604 77.0117 36.0864 76.9464 36.0864H69.3365C69.2713 36.0864 69.2087 36.1123 69.1626 36.1585C69.1165 36.2047 69.0906 36.2674 69.0906 36.3327V39.6854C69.0906 39.7507 69.1165 39.8134 69.1626 39.8596C69.2087 39.9058 69.2713 39.9317 69.3365 39.9317H75.9286C75.9938 39.9317 76.0564 39.9577 76.1025 40.0039C76.1486 40.0501 76.1745 40.1127 76.1745 40.1781V42.4907C76.1745 42.5561 76.1486 42.6187 76.1025 42.6649C76.0564 42.7111 75.9938 42.7371 75.9286 42.7371H69.3365C69.2716 42.738 69.2095 42.7642 69.1636 42.8102C69.1177 42.8562 69.0915 42.9183 69.0906 42.9834V49.4049C69.0906 49.4702 69.0647 49.5329 69.0185 49.5791C68.9724 49.6252 68.9099 49.6512 68.8447 49.6512H65.9687C65.9035 49.6512 65.841 49.6252 65.7948 49.5791C65.7487 49.5329 65.7228 49.4702 65.7228 49.4049V33.5274C65.7219 33.4632 65.746 33.4012 65.79 33.3545C65.834 33.3079 65.8945 33.2803 65.9585 33.2776Z" fill="white"/>
<path d="M86.2812 32.9114C90.175 32.9114 94.2088 34.1669 94.2088 41.4437C94.2088 48.6076 90.3116 49.9966 86.3529 49.9966C82.1825 49.9966 78.4492 48.4673 78.4492 41.4437C78.4458 34.0301 82.5889 32.9114 86.2812 32.9114ZM86.4622 47.1262C88.7404 47.1262 90.7898 46.6678 90.7898 41.3513C90.7898 37.1775 89.5158 35.7851 86.2573 35.7851C83.2276 35.7851 81.8614 36.9962 81.8614 41.5361C81.8614 46.2812 83.3643 47.1262 86.4622 47.1262Z" fill="white"/>
<path d="M99.9778 33.2776C100.043 33.2776 100.106 33.3035 100.152 33.3497C100.198 33.3959 100.224 33.4586 100.224 33.5239V41.8989C100.224 46.0521 100.405 47.1264 103.458 47.1264C106.259 47.1264 106.601 46.2369 106.601 42.0357V33.5273C106.601 33.462 106.627 33.3994 106.673 33.3532C106.719 33.307 106.781 33.281 106.847 33.281H109.726C109.759 33.2796 109.792 33.285 109.823 33.2967C109.854 33.3085 109.883 33.3264 109.906 33.3494C109.93 33.3724 109.949 33.4001 109.962 33.4306C109.975 33.4612 109.982 33.4941 109.982 33.5273V44.0952C109.982 49.1346 107.41 50.0036 103.581 50.0036C99.527 50.0036 96.8628 49.0217 96.8628 44.0473V33.5273C96.8628 33.462 96.8887 33.3994 96.9348 33.3532C96.9809 33.307 97.0435 33.281 97.1087 33.281L99.9778 33.2776Z" fill="white"/>
<path d="M113.524 33.2776H116.578C116.62 33.2775 116.662 33.2884 116.699 33.3094C116.736 33.3304 116.767 33.3607 116.789 33.3973L122.62 43.2913C122.647 43.3379 122.689 43.3741 122.739 43.3944C122.79 43.4147 122.845 43.4179 122.897 43.4035C122.949 43.3891 122.995 43.3579 123.028 43.3147C123.06 43.2716 123.078 43.2188 123.078 43.1647V33.5273C123.078 33.495 123.084 33.463 123.096 33.4331C123.109 33.4032 123.127 33.376 123.15 33.3532C123.172 33.3303 123.199 33.3121 123.229 33.2998C123.259 33.2874 123.291 33.281 123.323 33.281H126.203C126.268 33.281 126.331 33.307 126.377 33.3532C126.423 33.3994 126.449 33.462 126.449 33.5273V49.3912C126.449 49.4565 126.423 49.5192 126.377 49.5654C126.331 49.6115 126.268 49.6375 126.203 49.6375H123.218C123.175 49.6376 123.133 49.6267 123.096 49.6057C123.059 49.5847 123.028 49.5544 123.006 49.5178L117.107 39.5485C117.08 39.5019 117.038 39.4657 116.987 39.4454C116.937 39.4251 116.882 39.4219 116.83 39.4363C116.778 39.4507 116.732 39.4819 116.699 39.5251C116.667 39.5683 116.649 39.621 116.649 39.6751V49.3878C116.649 49.4201 116.643 49.4521 116.631 49.482C116.618 49.5119 116.6 49.5391 116.577 49.5619C116.554 49.5848 116.527 49.6029 116.498 49.6153C116.468 49.6277 116.436 49.6341 116.403 49.6341H113.524C113.459 49.6341 113.396 49.6081 113.35 49.5619C113.304 49.5157 113.278 49.4531 113.278 49.3878V33.5273C113.278 33.4947 113.284 33.4623 113.296 33.432C113.308 33.4017 113.326 33.3742 113.349 33.3509C113.372 33.3277 113.399 33.3093 113.429 33.2967C113.459 33.2841 113.491 33.2776 113.524 33.2776Z" fill="white"/>
<path d="M136.603 33.2776C141.751 33.2776 143.595 35.5116 143.595 41.3754C143.595 47.0101 141.638 49.6341 136.579 49.6341H130.039C129.973 49.6341 129.911 49.6081 129.865 49.5619C129.819 49.5157 129.793 49.4531 129.793 49.3878V33.5273C129.793 33.462 129.819 33.3994 129.865 33.3532C129.911 33.307 129.973 33.281 130.039 33.281L136.603 33.2776ZM133.164 36.3293V46.5927C133.164 46.658 133.19 46.7207 133.236 46.7669C133.282 46.8131 133.344 46.839 133.41 46.839H136.142C139.421 46.839 140.173 45.5834 140.173 41.4096C140.173 36.9622 139.694 36.0932 135.777 36.0932H133.386C133.327 36.0989 133.271 36.126 133.231 36.1695C133.19 36.2129 133.166 36.2696 133.164 36.3293Z" fill="white"/>
<path d="M146.239 33.5273C146.239 33.462 146.264 33.3993 146.311 33.3532C146.357 33.307 146.419 33.281 146.484 33.281H153.316C156.711 33.281 159.672 33.37 159.672 38.1869C159.672 41.1941 158.497 42.4223 156.8 42.9149C156.763 42.9262 156.73 42.9458 156.703 42.9721C156.675 42.9984 156.654 43.0307 156.641 43.0665C156.628 43.1023 156.624 43.1406 156.628 43.1784C156.633 43.2162 156.646 43.2525 156.666 43.2844L160.505 49.2646C160.529 49.3019 160.543 49.345 160.545 49.3894C160.546 49.4338 160.536 49.4777 160.514 49.5166C160.493 49.5556 160.461 49.588 160.423 49.6104C160.385 49.6329 160.341 49.6446 160.297 49.6443H156.776C156.734 49.6442 156.693 49.6335 156.656 49.6132C156.62 49.5928 156.589 49.5635 156.567 49.528L152.711 43.3186C152.689 43.2831 152.658 43.2538 152.622 43.2335C152.585 43.2131 152.544 43.2024 152.503 43.2023H149.856C149.79 43.2023 149.728 43.2283 149.682 43.2745C149.636 43.3207 149.61 43.3833 149.61 43.4486V49.3877C149.61 49.4201 149.603 49.4521 149.591 49.482C149.579 49.5119 149.561 49.539 149.538 49.5619C149.515 49.5848 149.488 49.6029 149.458 49.6153C149.428 49.6277 149.396 49.6341 149.364 49.6341H146.484C146.452 49.6341 146.42 49.6277 146.39 49.6153C146.361 49.6029 146.333 49.5848 146.311 49.5619C146.288 49.539 146.27 49.5119 146.257 49.482C146.245 49.4521 146.239 49.4201 146.239 49.3877V33.5273ZM149.61 36.3327V40.1507C149.61 40.216 149.636 40.2786 149.682 40.3248C149.728 40.371 149.79 40.397 149.856 40.397H152.639C155.351 40.397 156.263 40.1233 156.263 38.0706C156.263 36.4285 155.693 36.0863 152.848 36.0863H149.859C149.826 36.085 149.793 36.0902 149.763 36.1018C149.732 36.1133 149.704 36.1309 149.68 36.1536C149.656 36.1762 149.637 36.2034 149.624 36.2336C149.61 36.2638 149.603 36.2963 149.603 36.3292L149.61 36.3327Z" fill="white"/>
<path d="M165.998 43.1613C163.865 40.157 162.005 36.9671 160.441 33.63C160.425 33.5929 160.419 33.5525 160.422 33.5124C160.426 33.4723 160.439 33.4337 160.461 33.3999C160.483 33.3662 160.513 33.3383 160.548 33.3188C160.583 33.2992 160.622 33.2886 160.663 33.2879H164.078C164.127 33.2877 164.175 33.3023 164.216 33.3297C164.257 33.3572 164.289 33.3962 164.307 33.4418C165.186 35.6797 166.285 37.824 167.589 39.8428C167.612 39.8781 167.643 39.9072 167.68 39.9273C167.717 39.9474 167.758 39.958 167.8 39.958C167.841 39.958 167.883 39.9474 167.919 39.9273C167.956 39.9072 167.987 39.8781 168.01 39.8428C169.271 37.8216 170.326 35.6783 171.159 33.4453C171.176 33.3984 171.207 33.3581 171.248 33.3299C171.289 33.3017 171.338 33.287 171.388 33.2879H174.68C174.721 33.2881 174.761 33.2983 174.796 33.3176C174.832 33.3369 174.862 33.3647 174.884 33.3985C174.907 33.4324 174.92 33.4712 174.924 33.5116C174.928 33.552 174.921 33.5926 174.906 33.63C173.365 36.9715 171.543 40.1761 169.461 43.2092C169.433 43.2505 169.417 43.2993 169.417 43.3495V49.3912C169.417 49.4565 169.391 49.5192 169.345 49.5654C169.299 49.6116 169.236 49.6375 169.171 49.6375H166.292C166.226 49.6375 166.164 49.6116 166.118 49.5654C166.072 49.5192 166.046 49.4565 166.046 49.3912V43.3016C166.046 43.2508 166.029 43.2015 165.998 43.1613Z" fill="white"/>
</g>
<defs>
<clipPath id="clip0">
<rect width="200" height="50" fill="white"/>
</clipPath>
</defs>
</svg>
