<svg enable-background="new 0 0 500 168.956" height="168.956" viewBox="0 0 500 168.956" width="500" xmlns="http://www.w3.org/2000/svg"><g fill="#fff"><path d="m.977 115.424h13.03v-33.335-27.472h-14.007v-13.247h14.007l.109-14.442c0-18.024 10.207-26.928 25.191-26.928 10.967 0 19.111 6.189 20.848 17.048l-13.899 2.715c-.543-4.886-2.715-7.275-6.189-7.275-10.424 0-10.098 9.23-9.664 28.883h16.613v13.247h-16.613v60.915h17.591v13.247h-47.017z"/><path d="m157.836 115.424h17.482v-61.024h-18.133v-13.03h30.729s.543 17.048.76 19.002c5.864-13.899 16.722-20.522 28.992-20.522 1.629 0 12.921.434 12.921.434l-.543 15.202c-.326-.217-9.555-.326-10.641-.326-21.391 0-27.797 12.596-27.797 32.358v28.015h19.111v13.247h-52.88v-13.356z"/><path d="m233.083 115.533h16.613v-49.406-49.405h-16.613v-13.139h32.684v78.506l35.724-28.34h-15.202v-12.379h48.645v12.379h-14.333l-36.049 29.969 36.267 31.815h14.115v13.247h-45.713v-13.247h11.51l-34.964-30.729v30.729h11.292v13.247h-43.976z"/><path d="m345.68 115.424h16.505v-49.622-49.08h-16.179v-13.139h32.358v111.95h14.441v13.247h-47.125z"/><path d="m411.504 167.544.434-13.247s6.081 1.086 11.944 1.086c10.424 0 13.899-3.692 22.368-34.312l-10.315.109-28.665-66.78h-13.573v-13.03h44.085v13.356h-11.727l21.934 56.463h2.172l9.338-29.318 8.144-27.254h-12.487v-13.247h44.844v13.356h-14.007l-23.454 70.145c-9.772 27.58-14.333 44.085-35.181 44.085-8.144 0-15.854-1.412-15.854-1.412z"/><path d="m107.108 40.551c-28.449 0-46.365 20.196-46.365 45.279 0 10.668 3.251 20.523 9.148 28.336.78-.676 1.333-1.151 1.62-1.391 4.692-3.915 3.532-13.069 2.711-18.111-.821-5.043 2.174-9.097 4.326-11.249s33.987-29.218 35.929-30.842 3.129-2.811 4.136-1.804-2.645 4.34-5.015 6.922-20.7 23.596-22.421 25.318-1.493 2.646-.566 3.574c.928.928 2.072.925 3.279 0 1.207-.924 27.461-25.854 29.346-27.639 1.884-1.784 2.594-.959 2.774-.779.18.179.904 1.187-.08 2.171s-25.89 29.281-27.079 30.47-1.726 2.291-.313 3.704 2.515.876 3.704-.313 29.486-26.095 30.47-27.079 1.992-.26 2.171-.08c.18.18 1.005.89-.779 2.774s-26.714 28.139-27.638 29.346-.927 2.352 0 3.279 1.852 1.155 3.574-.566c1.722-1.722 22.736-20.051 25.318-22.421s5.916-6.022 6.922-5.015c1.007 1.007-.18 2.194-1.804 4.136s-28.69 33.777-30.842 35.929-6.207 5.147-11.249 4.326c-5.043-.821-14.196-1.981-18.111 2.711-.227.272-.672.79-1.294 1.508 7.429 5.338 16.878 8.5 27.913 8.5 28.34 0 46.474-20.631 46.474-45.714-.003-25.083-18.028-45.28-46.259-45.28z"/></g></svg>