<svg enable-background="new 0 0 450 111.464" height="111.464" viewBox="0 0 450 111.464" width="450" xmlns="http://www.w3.org/2000/svg"><g fill="#fff"><path d="m0 73.997v-36.397c0-23.015 7.761-37.6 32.516-37.6 23.952 0 31.713 12.846 31.713 31.713v6.958h-23.417v-8.831c0-6.825-.535-12.98-8.029-12.98-7.761 0-8.296 7.092-8.296 13.649v50.179c0 7.359 1.606 13.782 8.966 13.782 7.359 0 9.367-6.691 9.367-14.05v-12.712h-9.768v-14.05h31.312v56.201h-15.791l-1.338-8.966c-2.944 6.156-8.029 10.571-17.529 10.571-22.48 0-29.706-15.121-29.706-37.467z"/><path d="m77.876 75.737v-40.277c0-22.347 8.162-35.46 32.516-35.46 24.487 0 32.784 13.113 32.784 35.46v40.277c0 22.346-8.296 35.727-32.784 35.727-24.354 0-32.516-13.381-32.516-35.727zm40.812 6.021v-52.186c0-6.423-.803-12.712-8.296-12.712-7.092 0-8.028 6.289-8.028 12.712v52.186c0 6.155.535 12.712 8.028 12.712s8.296-6.557 8.296-12.712z"/><path d="m157.761 1.472h23.952v92.196h24.889v16.191h-48.841z"/><path d="m217.172 1.472h23.952v108.387h-23.952z"/><path d="m272.569 1.472h27.298l20.205 108.387h-22.079l-3.613-22.882h-15.923l-3.747 22.882h-22.614zm19.536 71.187-5.754-42.284-5.754 42.284z"/><path d="m335.058 19.269h-16.324v-17.797h56.602v17.797h-16.191v90.59h-24.086v-90.59z"/><path d="m385.236 1.472h23.952v43.89h16.726v-43.89h24.086v108.387h-24.085v-47.37h-16.726v47.37h-23.952v-108.387z"/></g></svg>