<?xml version="1.0" encoding="utf-8"?>
<!-- Generator: Adobe Illustrator 24.2.0, SVG Export Plug-In . SVG Version: 6.00 Build 0)  -->
<svg version="1.1" id="Layer_1" xmlns="http://www.w3.org/2000/svg" xmlns:xlink="http://www.w3.org/1999/xlink" x="0px" y="0px"
	 viewBox="0 0 960 540" style="enable-background:new 0 0 960 540;" xml:space="preserve">
<style type="text/css">
	.st0{fill-rule:evenodd;clip-rule:evenodd;fill:#0FA8D3;}
	.st1{fill-rule:evenodd;clip-rule:evenodd;fill:#225EA6;}
	.st2{fill-rule:evenodd;clip-rule:evenodd;fill:#1C72B5;}
	.st3{fill-rule:evenodd;clip-rule:evenodd;fill:#0D95C6;}
	.st4{fill-rule:evenodd;clip-rule:evenodd;fill:#FFFFFF;}
</style>
<g>
	<path class="st0" d="M538.8,111.4L538.8,111.4c-68.1-14.9-137.4,19.1-167.3,82l-15.1-2.1l26.7,49.1l55.7-37.8l-14.2-2
		c23-33.3,64-49.4,103.5-40.7L538.8,111.4z"/>
	<path class="st1" d="M656.9,276.2L656.9,276.2c10.1-78.8-43.3-151.8-121.5-166.1L533.5,95L493,133.5l50.9,44l-1.8-14.3
		c44.2,15.8,71.4,60.1,65.5,106.7L656.9,276.2z"/>
	<path class="st2" d="M438.4,388L438.4,388c42.1,22.3,92.4,23.2,135.3,2.4s73.3-60.8,81.9-107.7l15.1-1.9l-38.5-40.6l-44,50.9
		l14.3-1.8c-9.8,27.3-30.9,49-57.9,59.5c-27,10.5-57.3,8.7-82.9-4.8L438.4,388z"/>
	<path class="st3" d="M384.2,172.3L384.2,172.3c-24.3,36.1-31.7,81.1-20.1,123.1c11.5,42,40.8,76.9,80.2,95.5l-2.1,15.1l49.1-26.7
		l-37.8-55.6l-2,14.2l0,0c-45-31.1-56.6-92.5-26.1-137.8L384.2,172.3z"/>
	<path class="st0" d="M446.5,120.5c-33.1,14.5-59.8,40.4-75.3,73l-15.1-2.1l26.7,49.1l55.7-37.8l-14.2-2
		c10.6-15.3,25.1-27.3,42.2-34.7L446.5,120.5z"/>
	<path class="st4" d="M613.7,174.8l2.9,2.9l-4.5,4.5l2.5,2.5l4.5-4.5l2.9,2.9v-8.2H613.7z"/>
	<path class="st4" d="M606.3,187.9l-4.5,4.5l-2.9-2.9v8.2h8.2l-2.9-2.9l4.5-4.5L606.3,187.9z"/>
	<path class="st4" d="M614.5,187.9l-2.5,2.5l4.5,4.5l-2.9,2.9h8.2v-8.2l-2.9,2.9L614.5,187.9z"/>
	<path class="st4" d="M607.1,174.8h-8.2v8.2l2.9-2.9l4.5,4.5l2.5-2.5l-4.5-4.5L607.1,174.8z"/>
	<path class="st4" d="M577.2,368.6c0-0.4-0.1-0.8-0.4-1.2l4.6-6.4c0.2,0.1,0.4,0.1,0.6,0.1c1.1,0,2-0.9,2-2c0-1.1-0.9-2-2-2
		c-1.1,0-2,0.9-2,2c0,0.4,0.1,0.8,0.4,1.2l-4.6,6.4c-0.2-0.1-0.4-0.1-0.6-0.1c-0.3,0-0.6,0.1-0.9,0.2l-2.7-2.7
		c0.1-0.3,0.2-0.6,0.2-0.9c0-1.1-0.9-2-2-2c-1.1,0-2,0.9-2,2c0,0.3,0.1,0.6,0.2,0.9l-2.7,2.7c-0.3-0.1-0.6-0.2-0.9-0.2
		c-1.1,0-2,0.9-2,2c0,1.1,0.9,2,2,2c1.1,0,2-0.9,2-2c0-0.3-0.1-0.6-0.2-0.9l2.7-2.7c0.3,0.1,0.6,0.2,0.9,0.2c0.3,0,0.6-0.1,0.9-0.2
		l2.7,2.7c-0.1,0.3-0.2,0.6-0.2,0.9c0,1.1,0.9,2,2,2S577.2,369.8,577.2,368.6z"/>
	<path class="st4" d="M573.1,347.5L573.1,347.5c-0.3,0-0.5,0.2-0.6,0.4c-0.1,0.3-0.1,0.5,0.1,0.7l3.6,3.7c0.1,0.1,0.3,0.2,0.5,0.2
		c0.1,0,0.1,0,0.2,0c0.2-0.1,0.4-0.3,0.5-0.5l0.2-1c6.6,2.3,10.7,9.5,8.6,16.7c-1.3,4.6-5.2,8.1-9.8,9.4l-0.4,0.1
		c-0.4,0.1-0.6,0.5-0.5,0.8l0.4,1.3c0.1,0.3,0.4,0.6,0.8,0.5c7.3-1.6,12.8-8.2,12.8-16C589.5,354.8,582.2,347.5,573.1,347.5z"/>
	<path class="st4" d="M570,375.3c-0.1-0.1-0.3-0.2-0.5-0.2c-0.1,0-0.1,0-0.2,0c-0.2,0.1-0.4,0.3-0.5,0.5l-0.2,1
		c-6.6-2.3-10.7-9.5-8.6-16.7c1.3-4.6,5.2-8.1,9.8-9.4l0.4-0.1c0.4-0.1,0.6-0.5,0.5-0.8l-0.4-1.3c-0.1-0.3-0.4-0.6-0.8-0.5
		c-7.3,1.6-12.8,8.2-12.8,16c0,9,7.3,16.4,16.4,16.4h0c0.3,0,0.5-0.2,0.6-0.4c0.1-0.3,0.1-0.5-0.1-0.7L570,375.3z"/>
	<path class="st4" d="M437.4,143.3c-5.7,0-10.4,4.7-10.4,10.5c0,5.8,4.7,10.5,10.4,10.5c5.7,0,10.4-4.7,10.4-10.5
		C447.8,148,443.2,143.3,437.4,143.3z M437,152.9h0.9c1.7,0,3,1.4,3,3.1c0,1.5-1.1,2.8-2.6,3v0.9c0,0.5-0.4,0.9-0.9,0.9
		c-0.5,0-0.9-0.4-0.9-0.9V159h-1.7c-0.5,0-0.9-0.4-0.9-0.9c0-0.5,0.4-0.9,0.9-0.9h3c0.7,0,1.3-0.6,1.3-1.3c0-0.7-0.6-1.3-1.3-1.3
		H437c-1.7,0-3-1.4-3-3.1c0-1.5,1.1-2.8,2.6-3v-0.9c0-0.5,0.4-0.9,0.9-0.9c0.5,0,0.9,0.4,0.9,0.9v0.9h1.7c0.5,0,0.9,0.4,0.9,0.9
		c0,0.5-0.4,0.9-0.9,0.9h-3c-0.7,0-1.3,0.6-1.3,1.3C435.7,152.3,436.3,152.9,437,152.9z"/>
	<path class="st4" d="M457.4,152h-1c-0.8-9.2-8.1-16.6-17.3-17.4v-1c0-0.5-0.4-0.9-0.9-0.9h-1.7c-0.5,0-0.9,0.4-0.9,0.9v1
		c-9.1,0.8-16.4,8.2-17.3,17.4h-1c-0.5,0-0.9,0.4-0.9,0.9v1.8c0,0.5,0.4,0.9,0.9,0.9h1c0.8,9.2,8.1,16.6,17.3,17.4v1
		c0,0.5,0.4,0.9,0.9,0.9h1.7c0.5,0,0.9-0.4,0.9-0.9v-1c9.1-0.8,16.4-8.2,17.3-17.4h1c0.5,0,0.9-0.4,0.9-0.9v-1.8
		C458.2,152.4,457.9,152,457.4,152z M452.2,155.5h0.8c-0.8,7.3-6.6,13.1-13.8,13.9v-0.8c0-0.5-0.4-0.9-0.9-0.9h-1.7
		c-0.5,0-0.9,0.4-0.9,0.9v0.8c-7.2-0.8-13-6.6-13.8-13.9h0.8c0.5,0,0.9-0.4,0.9-0.9v-1.8c0-0.5-0.4-0.9-0.9-0.9h-0.8
		c0.8-7.3,6.6-13.1,13.8-13.9v0.8c0,0.5,0.4,0.9,0.9,0.9h1.7c0.5,0,0.9-0.4,0.9-0.9v-0.8c7.2,0.8,13,6.6,13.8,13.9h-0.8
		c-0.5,0-0.9,0.4-0.9,0.9v1.8C451.3,155.1,451.7,155.5,452.2,155.5z"/>
	<path class="st4" d="M407.4,297.4c-0.2-0.1-0.5-0.2-0.8,0c-0.2,0.1-0.4,0.4-0.4,0.6c0,0.7-0.1,1.5-0.2,2.3
		c-0.1,0.4,0.1,0.7,0.5,0.8c0.1,0.1,0.4,0.2,0.5,0.5c0.1,0.2,0,0.4-0.1,0.6c-0.1,0.2-0.3,0.3-0.4,0.3c-3.2,0.9-7.5,1.4-12.1,1.4
		c-4.6,0-8.9-0.5-12.1-1.4c-0.2-0.1-0.4-0.2-0.4-0.3c-0.1-0.2-0.1-0.4-0.1-0.6c0.1-0.3,0.3-0.4,0.5-0.5c0.3-0.1,0.6-0.5,0.5-0.8
		c-0.2-0.8-0.2-1.6-0.2-2.3c0-0.3-0.1-0.5-0.4-0.6c-0.2-0.1-0.5-0.1-0.8,0c-2,1.3-3.3,3-3.3,4.3v3c0,5.4,7.2,9.7,16.3,9.7
		c9.2,0,16.3-4.2,16.3-9.7v-3C410.7,300.4,409.3,298.7,407.4,297.4z"/>
	<path class="st4" d="M394.3,302.5c3.6,0,7-0.3,9.8-0.9c0.4-1.1,0.6-2.4,0.6-3.6c0-5.6-4.4-16.3-10.4-16.3c-6,0-10.4,10.7-10.4,16.3
		c0,1.2,0.2,2.4,0.6,3.6C387.4,302.2,390.7,302.5,394.3,302.5z M394.3,295c-1.2,0-2.2-1-2.2-2.2c0-1,0.6-1.8,1.5-2.1v-0.1
		c0-0.4,0.3-0.7,0.7-0.7c0.4,0,0.7,0.3,0.7,0.7h0.7c0.4,0,0.7,0.3,0.7,0.7c0,0.4-0.3,0.7-0.7,0.7h-1.5c-0.4,0-0.7,0.3-0.7,0.7
		c0,0.4,0.3,0.7,0.7,0.7c1.2,0,2.2,1,2.2,2.2c0,1-0.6,1.8-1.5,2.1v0.1c0,0.4-0.3,0.7-0.7,0.7c-0.4,0-0.7-0.3-0.7-0.7h-0.7
		c-0.4,0-0.7-0.3-0.7-0.7c0-0.4,0.3-0.7,0.7-0.7h1.5c0.4,0,0.7-0.3,0.7-0.7C395.1,295.4,394.7,295,394.3,295z"/>
</g>
</svg>
