<svg enable-background="new 0 0 500 53.25" height="53.25" viewBox="0 0 500 53.25" width="500" xmlns="http://www.w3.org/2000/svg"><g fill="#fff"><path d="m100.799 19.272c2.776 2.728 4.163 6.701 4.163 11.919v21.704h-5.053v-21.206c0-3.89-.973-6.855-2.918-8.895-1.946-2.039-4.721-3.06-8.325-3.06-4.034 0-7.224 1.198-9.572 3.594s-3.522 5.705-3.522 9.927v19.64h-5.052v-52.8h5.053v21.917c1.375-2.181 3.274-3.866 5.694-5.053 2.418-1.185 5.194-1.779 8.325-1.779 4.695 0 8.432 1.364 11.207 4.092z"/><path d="m149.507 35.745h-31.311c.285 3.891 1.78 7.034 4.485 9.428 2.703 2.396 6.118 3.594 10.247 3.594 2.324 0 4.459-.414 6.403-1.245 1.946-.83 3.63-2.052 5.053-3.665l2.848 3.274c-1.661 1.993-3.737 3.511-6.227 4.554-2.491 1.044-5.231 1.565-8.22 1.565-3.842 0-7.247-.818-10.212-2.455s-5.278-3.901-6.938-6.796c-1.661-2.892-2.49-6.166-2.49-9.819 0-3.652.793-6.926 2.383-9.82 1.588-2.893 3.772-5.147 6.546-6.76 2.776-1.612 5.895-2.419 9.357-2.419 3.463 0 6.571.807 9.322 2.419 2.752 1.613 4.909 3.855 6.476 6.724 1.565 2.871 2.348 6.156 2.348 9.856zm-27.148-12.773c-2.444 2.301-3.831 5.301-4.163 9.001h26.543c-.332-3.7-1.721-6.7-4.163-9.001-2.444-2.301-5.491-3.451-9.144-3.451-3.606 0-6.63 1.15-9.073 3.451z"/><path d="m182.51 18.845c2.608 2.444 3.913 6.061 3.913 10.852v23.198h-4.838v-5.835c-1.139 1.946-2.811 3.464-5.017 4.555-2.205 1.092-4.827 1.636-7.864 1.636-4.174 0-7.495-.996-9.962-2.988-2.467-1.993-3.7-4.625-3.7-7.899 0-3.178 1.15-5.739 3.452-7.685 2.299-1.945 5.965-2.918 10.993-2.918h11.885v-2.277c0-3.225-.903-5.681-2.704-7.365-1.804-1.683-4.437-2.526-7.899-2.526-2.374 0-4.65.391-6.831 1.174-2.184.783-4.057 1.862-5.622 3.238l-2.278-3.772c1.897-1.612 4.174-2.857 6.833-3.735 2.656-.878 5.455-1.316 8.396-1.316 4.885-.002 8.633 1.219 11.243 3.663zm-5.692 28.463c2.039-1.304 3.557-3.189 4.555-5.657v-6.12h-11.743c-6.405 0-9.607 2.231-9.607 6.689 0 2.182.83 3.903 2.491 5.159 1.66 1.257 3.985 1.885 6.973 1.885 2.848.001 5.29-.65 7.331-1.956z"/><path d="m196.333.094h5.053v52.8h-5.053z"/><path d="m233.501 50.617c-.95.854-2.124 1.507-3.522 1.957-1.401.451-2.86.676-4.376.676-3.511 0-6.216-.948-8.113-2.846-1.897-1.897-2.846-4.577-2.846-8.041v-22.629h-6.689v-4.27h6.689v-8.183h5.053v8.183h11.386v4.27h-11.386v22.344c0 2.23.557 3.926 1.672 5.088 1.115 1.163 2.715 1.744 4.803 1.744 1.043 0 2.053-.165 3.026-.498.972-.331 1.814-.806 2.525-1.423z"/><path d="m270.824 19.272c2.776 2.728 4.163 6.701 4.163 11.919v21.704h-5.053v-21.206c0-3.89-.973-6.855-2.918-8.895-1.946-2.039-4.721-3.06-8.325-3.06-4.034 0-7.224 1.198-9.572 3.594s-3.522 5.705-3.522 9.927v19.64h-5.053v-52.8h5.053v21.917c1.375-2.181 3.274-3.866 5.694-5.053 2.418-1.185 5.194-1.779 8.325-1.779 4.696 0 8.433 1.364 11.208 4.092z"/><path d="m315.716 15.464-16.651 37.43h-5.194l-16.58-37.43h5.266l14.019 31.88 14.16-31.88z"/><path d="m353.401 35.745h-31.311c.285 3.891 1.78 7.034 4.485 9.428 2.703 2.396 6.118 3.594 10.247 3.594 2.324 0 4.459-.414 6.403-1.245 1.946-.83 3.63-2.052 5.052-3.665l2.848 3.274c-1.661 1.993-3.737 3.511-6.227 4.554-2.491 1.044-5.231 1.565-8.22 1.565-3.842 0-7.247-.818-10.212-2.455s-5.278-3.901-6.938-6.796c-1.661-2.892-2.49-6.166-2.49-9.819 0-3.652.793-6.926 2.383-9.82 1.588-2.893 3.772-5.147 6.546-6.76 2.776-1.612 5.895-2.419 9.357-2.419 3.463 0 6.571.807 9.322 2.419 2.752 1.613 4.909 3.855 6.476 6.724 1.565 2.871 2.348 6.156 2.348 9.856zm-27.148-12.773c-2.444 2.301-3.831 5.301-4.163 9.001h26.543c-.332-3.7-1.721-6.7-4.163-9.001-2.444-2.301-5.491-3.451-9.144-3.451-3.606 0-6.63 1.15-9.073 3.451z"/><path d="m372.143 17.101c2.35-1.281 5.254-1.921 8.718-1.921v4.909l-1.209-.071c-3.939 0-7.021 1.21-9.251 3.629-2.231 2.42-3.346 5.812-3.346 10.176v19.071h-5.052v-37.43h4.839v7.33c1.185-2.514 2.953-4.412 5.301-5.693z"/><path d="m390.765 51.933c-2.776-.877-4.946-1.98-6.511-3.309l2.277-3.984c1.565 1.233 3.534 2.241 5.907 3.024 2.371.783 4.839 1.174 7.401 1.174 3.416 0 5.942-.534 7.579-1.601s2.455-2.573 2.455-4.519c0-1.375-.451-2.455-1.352-3.237-.901-.783-2.04-1.376-3.416-1.779-1.377-.403-3.202-.794-5.479-1.174-3.036-.57-5.479-1.15-7.329-1.744-1.85-.592-3.429-1.601-4.733-3.024-1.305-1.423-1.957-3.391-1.957-5.906 0-3.132 1.303-5.693 3.913-7.685 2.608-1.993 6.237-2.988 10.888-2.988 2.42 0 4.839.32 7.257.96 2.42.64 4.413 1.483 5.978 2.526l-2.206 4.056c-3.084-2.134-6.76-3.202-11.029-3.202-3.227 0-5.657.569-7.294 1.708-1.637 1.138-2.455 2.633-2.455 4.483 0 1.423.461 2.561 1.387 3.416.924.854 2.074 1.483 3.451 1.886 1.377.404 3.274.818 5.694 1.245 2.989.57 5.383 1.139 7.187 1.708 1.801.57 3.344 1.543 4.625 2.918 1.281 1.377 1.922 3.273 1.922 5.693 0 3.273-1.364 5.871-4.092 7.792-2.729 1.922-6.511 2.882-11.351 2.882-3.037-.002-5.943-.44-8.717-1.319z"/><path d="m456.239 35.745h-31.311c.285 3.891 1.78 7.034 4.485 9.428 2.703 2.396 6.118 3.594 10.247 3.594 2.324 0 4.459-.414 6.403-1.245 1.946-.83 3.63-2.052 5.052-3.665l2.848 3.274c-1.661 1.993-3.737 3.511-6.227 4.554-2.491 1.044-5.231 1.565-8.22 1.565-3.842 0-7.247-.818-10.212-2.455s-5.278-3.901-6.938-6.796c-1.661-2.892-2.49-6.166-2.49-9.819 0-3.652.793-6.926 2.383-9.82 1.588-2.893 3.772-5.147 6.546-6.76 2.776-1.612 5.895-2.419 9.357-2.419 3.463 0 6.571.807 9.322 2.419 2.752 1.613 4.909 3.855 6.476 6.724 1.565 2.871 2.348 6.156 2.348 9.856zm-27.148-12.773c-2.444 2.301-3.831 5.301-4.163 9.001h26.543c-.332-3.7-1.721-6.7-4.163-9.001-2.444-2.301-5.491-3.451-9.144-3.451-3.606 0-6.63 1.15-9.073 3.451z"/><path d="m500 .094v52.8h-4.839v-7.401c-1.518 2.515-3.522 4.437-6.012 5.764-2.491 1.329-5.302 1.993-8.433 1.993-3.512 0-6.689-.806-9.536-2.419-2.846-1.613-5.077-3.866-6.689-6.76-1.613-2.893-2.418-6.191-2.418-9.891s.806-6.997 2.418-9.891c1.613-2.893 3.843-5.135 6.689-6.724s6.024-2.384 9.536-2.384c3.035 0 5.776.629 8.218 1.885 2.444 1.258 4.448 3.096 6.013 5.515v-22.487zm-11.777 46.858c2.111-1.21 3.772-2.929 4.981-5.159 1.211-2.229 1.815-4.768 1.815-7.614 0-2.847-.605-5.384-1.815-7.615-1.209-2.229-2.87-3.949-4.981-5.159-2.111-1.209-4.472-1.814-7.081-1.814-2.657 0-5.04.605-7.151 1.814-2.112 1.21-3.772 2.93-4.981 5.159-1.211 2.231-1.815 4.768-1.815 7.615 0 2.846.605 5.384 1.815 7.614 1.209 2.23 2.869 3.949 4.981 5.159 2.111 1.21 4.494 1.814 7.151 1.814 2.609.001 4.97-.604 7.081-1.814z"/></g><g fill="#db6078"><path d="m40.578 34.584h5.853 6.001v-11.854h-6.001-5.853-6.001v11.854z"/><path d="m22.723 40.634v5.853 6.001h11.854v-6.001-5.853-6.001h-11.854z"/><path d="m29.709 0h-11.854v17.862h-17.855v11.854h17.855 11.854z"/></g></svg>