<svg enable-background="new 0 0 500 87.637" height="87.637" viewBox="0 0 500 87.637" width="500" xmlns="http://www.w3.org/2000/svg"><g fill="#FFF"><path d="m19.64 38.701-7.901 8.034-3.75 21.829h-7.989l11.248-64.992h7.989l-5.4 30.891 6.428-7.009 20.802-23.882h10.176l-25.844 29.06 15.622 35.932h-9.016z"/><path d="m62.715 69.458c-5.416-.06-9.463-2.01-12.14-5.847-2.678-3.84-3.66-9.079-2.946-15.714l.581-4.776c.922-7.5 3.206-13.368 6.852-17.611 3.644-4.239 8.279-6.285 13.903-6.136 4.582.12 8.028 1.689 10.333 4.709 2.307 3.021 3.4 7.27 3.282 12.743l-.403 5.359-.669 4.596-25.89-.046c-.387 2.681-.565 4.776-.535 6.295.06 3.006.804 5.363 2.233 7.076 1.427 1.71 3.466 2.582 6.115 2.611 1.904.06 3.785-.321 5.645-1.138 1.86-.82 3.817-2.254 5.87-4.31l3.616 5.045c-1.904 2.501-4.255 4.331-7.051 5.49-2.799 1.163-5.731 1.71-8.796 1.654zm5.759-43.344c-5.267-.237-8.957 2.946-11.07 9.553l-1.205 4.331 18.524.042.223-1.159c.18-1.371.268-2.798.268-4.285-.118-5.415-2.365-8.242-6.74-8.482z"/><path d="m102.846 69.458c-5.416-.06-9.463-2.01-12.14-5.847-2.678-3.84-3.66-9.079-2.946-15.714l.581-4.776c.922-7.5 3.206-13.368 6.852-17.611 3.644-4.239 8.279-6.285 13.903-6.136 4.582.12 8.028 1.689 10.333 4.709 2.307 3.021 3.4 7.27 3.282 12.743l-.403 5.359-.669 4.596-25.89-.046c-.387 2.681-.565 4.776-.535 6.295.06 3.006.804 5.363 2.233 7.076 1.427 1.71 3.466 2.582 6.115 2.611 1.904.06 3.785-.321 5.645-1.138 1.86-.82 3.817-2.254 5.87-4.31l3.616 5.045c-1.904 2.501-4.255 4.331-7.051 5.49-2.799 1.163-5.731 1.71-8.796 1.654zm5.758-43.344c-5.267-.237-8.957 2.946-11.07 9.553l-1.205 4.331 18.524.042.223-1.159c.18-1.371.268-2.798.268-4.285-.117-5.415-2.364-8.242-6.74-8.482z"/><path d="m144.137 69.5c-4.582-.117-8.034-1.978-10.355-5.578l-4.329 23.21h-7.678l11.605-66.865 6.919-.046-.892 5.402c3.273-4.253 7.186-6.352 11.739-6.295 4.285.06 7.484 1.66 9.597 4.801s3.081 7.489 2.902 13.057c-.09 2.586-.433 5.963-1.028 10.132-.595 4.165-1.473 7.663-2.634 10.489-3.273 8.005-8.554 11.902-15.846 11.693zm11.829-34.19c-.447-5.893-2.976-8.885-7.588-8.973-3.512-.088-6.636 1.802-9.374 5.67l-4.329 25.22c1.429 3.512 3.898 5.356 7.41 5.532 3.482.152 6.338-1.085 8.57-3.702 2.231-2.618 3.704-6.698 4.42-12.23.713-5.536 1.01-9.376.891-11.517z"/><path d="m204.706 55.263h-17.273l-5.668 13.301h-13.928l30.979-64.992h11.739l8.525 64.992h-13.257zm-12.587-10.937h11.695l-1.83-23.034z"/><path d="m244.526 55.306c.299-2.081-1.323-3.943-4.865-5.578-3.542-1.636-6.198-3.176-7.968-4.621-1.77-1.441-3.065-3.042-3.883-4.798-.82-1.756-1.183-3.748-1.093-5.981.207-4.374 2-7.984 5.379-10.824 3.377-2.84 7.505-4.232 12.386-4.176 4.819.12 8.62 1.558 11.404 4.31s4.147 6.391 4.084 10.913h-12.319c.09-2.095-.185-3.579-.825-4.451-.641-.873-1.645-1.307-3.013-1.307-1.429 0-2.641.484-3.637 1.448-.998.961-1.614 2.127-1.853 3.49-.357 1.929 1.153 3.649 4.531 5.161 3.377 1.512 5.811 2.773 7.299 3.784 4.434 2.946 6.5 6.977 6.204 12.096-.18 3.006-1.109 5.631-2.787 7.878-1.682 2.247-3.928 3.964-6.742 5.154-2.812 1.191-5.856 1.742-9.129 1.653-4.702-.12-8.54-1.653-11.517-4.6-2.975-2.946-4.434-6.709-4.374-11.291l11.739.042c-.09 2.321.283 3.988 1.116 4.999.832 1.014 2.127 1.519 3.883 1.519 1.547 0 2.863-.41 3.951-1.229 1.084-.815 1.762-2.012 2.029-3.591z"/><path d="m279.301 50.13-4.331 4.105-2.501 14.329h-12.315l11.915-68.564h12.319l-6.829 37.186 1.964-2.413 10.934-14.506h15.403l-17.586 20.487 9.818 27.81h-13.527z"/><path d="m315.992 68.564h-12.365l8.394-48.297h12.365zm-2.367-60.573c0-2.053.65-3.727 1.943-5.02 1.293-1.297 2.879-1.943 4.755-1.943 1.844-.06 3.413.544 4.706 1.809 1.297 1.265 1.943 2.833 1.943 4.709 0 2.081-.646 3.769-1.943 5.066-1.293 1.293-2.876 1.939-4.752 1.939-1.904.06-3.487-.541-4.752-1.805-1.267-1.264-1.9-2.851-1.9-4.755z"/><path d="m345.452 20.222-.894 4.865c3.391-3.957 7.157-5.875 11.294-5.758 3.395.06 5.974 1.335 7.747 3.819 1.766 2.484 2.639 6.02 2.607 10.602l-.268 4.105-5.13 30.71h-12.365l5.087-30.799.226-2.635c.117-3.48-1.194-5.221-3.928-5.221-1.282 0-2.367.35-3.261 1.049s-1.728 1.526-2.498 2.476l-6.119 35.13h-12.407l8.394-48.297z"/><path d="m390.138 19.374c4.282.12 7.408 1.876 9.372 5.267l1.516-4.419 11.248.046-8.21 48.297c-.866 6.278-3.268 11.072-7.21 14.375-3.943 3.303-8.906 4.865-14.887 4.684-2.618-.06-5.207-.594-7.769-1.607-2.558-1.01-4.699-2.409-6.426-4.193l5.045-8.662c2.469 2.798 5.55 4.257 9.238 4.377 5.356.205 8.631-2.738 9.821-8.839l.894-4.017c-2.886 3.211-6.073 4.819-9.553 4.819-4.225-.06-7.415-1.689-9.574-4.886-2.159-3.201-3.208-7.627-3.148-13.28 0-3.512.35-7.27 1.049-11.273.696-3.999 1.703-7.387 3.013-10.153 3.393-7.201 8.586-10.713 15.581-10.536zm-7.454 31.826c0 5.059 1.618 7.634 4.861 7.723 2.176.06 4.211-.862 6.119-2.77l4.147-23.21c-1.13-1.932-2.763-2.96-4.907-3.081-5.239-.265-8.39 3.96-9.464 12.679-.505 4.166-.756 7.052-.756 8.659z"/></g><path d="m473.681 2.612c-14.513 0-26.323 11.808-26.323 26.323 0 7.106 2.844 13.552 7.437 18.293l-14.743 18.291c-1.565 1.943-1.261 4.79.685 6.359.834.671 1.837 1 2.833 1 1.321 0 2.632-.576 3.526-1.685l15.03-18.644c3.494 1.717 7.406 2.708 11.555 2.708 14.513 0 26.319-11.808 26.319-26.321 0-14.515-11.807-26.324-26.319-26.324zm0 43.6c-3.274 0-6.328-.932-8.94-2.52-.728-.443-1.431-.923-2.083-1.465-3.819-3.172-6.256-7.952-6.256-13.292 0-9.528 7.751-17.279 17.279-17.279 9.524 0 17.275 7.751 17.275 17.279 0 9.526-7.751 17.277-17.275 17.277z" fill="#29abe2"/></svg>