<svg height="44.748" viewBox="0 0 184.07 44.748" width="184.07" xmlns="http://www.w3.org/2000/svg"><g fill="#404041"><path d="m748.629 90.7a16.322 16.322 0 0 1 -11.829-4.828 17.054 17.054 0 0 1 -5.157-12.013v-17.889h8.54v17.723a8.338 8.338 0 0 0 1.742 5.2 8.131 8.131 0 0 0 6.4 3.124h9.369v8.683z" transform="translate(-618.156 -47.289)"/><path d="m259.785 55.97a17.365 17.365 0 1 0 17.365 17.365 17.384 17.384 0 0 0 -17.365-17.365zm0 25.683a8.318 8.318 0 1 1 8.317-8.317 8.328 8.328 0 0 1 -8.317 8.317z" transform="translate(-204.818 -47.289)"/><path d="m500.8 55.97a17.365 17.365 0 1 0 17.366 17.365 17.384 17.384 0 0 0 -17.366-17.365zm0 25.683a8.318 8.318 0 1 1 8.319-8.317 8.327 8.327 0 0 1 -8.319 8.317z" transform="translate(-408.454 -47.289)"/></g><path d="m33.051 89.848 3.417-2.989-4.939-5.859a17.351 17.351 0 1 0 -14.149 7.353 17.18 17.18 0 0 0 7.157-1.553zm-24-18.981a8.325 8.325 0 1 1 8.325 8.376 8.36 8.36 0 0 1 -8.321-8.376z" fill="#1e7979" transform="translate(0 -45.1)"/><path d="m873.362.029v9.315l-3.062 10.346 9.769-2.364h39.31v-17.326z" fill="#1e7979" transform="translate(-735.308)"/><path d="m929.22 27.99h2.561l1.781 5.209 1.79-5.209h2.548v8.681h-1.694v-6.658h-.022l-2.018 6.659h-1.292l-1.942-6.659h-.023v6.659h-1.689z" fill="#fff" transform="translate(-785.089 -23.648)"/><path d="m990.79 27.99h6.079v1.736h-4.342v1.737h3.473v1.737h-3.473v1.737h4.342v1.736h-6.079z" fill="#fff" transform="translate(-837.109 -23.648)"/><path d="m1035.642 27.99h2.62c2.553 0 4.313 1.19 4.313 4.366 0 2.809-1.715 4.317-4.079 4.317h-2.856v-8.683z" fill="#fff" transform="translate(-875.002 -23.648)"/><path d="m1046.91 44.53h.907c1.624 0 2.544-.6 2.544-2.575a2.273 2.273 0 0 0 -2.421-2.575h-1.03z" fill="#1e7979" transform="translate(-884.524 -33.271)"/><path d="m168.443 4.342h1.737v8.683h-1.737z" fill="#fff"/><path d="m1106.325 27.99h1.507l3.6 8.681h-2.057l-.714-1.736h-3.214l-.689 1.736h-2.01z" fill="#fff" transform="translate(-931.703 -23.648)"/><path d="m1125.642 44.78-.862 2.573 1.736.031z" fill="#1e7979" transform="translate(-950.316 -37.834)"/></svg>