<svg enable-background="new 0 0 500 108.466" height="108.466" viewBox="0 0 500 108.466" width="500" xmlns="http://www.w3.org/2000/svg"><path d="m0 0h500v108.466h-500z" fill="#063191"/><g fill="#fff"><path d="m84.532 29.932v48.993h-7.536v-27.356l-16.568 23.523h-.132l-16.18-22.417v26.251h-7.342v-48.994h.067l23.587 33.398 23.975-33.398z"/><path d="m123.853 58.718c1.496 1.907 2.24 4.116 2.24 6.628 0 4.592-1.548 8.004-4.645 10.233-3.095 2.232-6.919 3.347-11.468 3.347h-14.75v-47.305h12.93c4.937 0 8.771 1.008 11.499 3.023 2.731 2.014 4.095 4.971 4.095 8.869 0 2.469-.53 4.604-1.591 6.401-1.062 1.798-2.565 3.238-4.516 4.321 2.643 1.083 4.71 2.576 6.206 4.483zm-21.022-6.954h6.562c2.168 0 3.803-.626 4.909-1.883 1.103-1.257 1.656-2.837 1.656-4.745 0-2.078-.661-3.639-1.982-4.677-1.323-1.04-3.152-1.56-5.493-1.56h-5.653v12.865zm13.062 18.488c1.602-1.106 2.403-2.719 2.403-4.841 0-2.252-.876-3.877-2.63-4.874-1.757-.996-3.932-1.495-6.531-1.495h-6.304v12.866h6.826c2.552 0 4.634-.552 6.236-1.656z"/><path d="m158.87 67.814h-17.222l-4.547 11.112h-7.471l20.921-49.254h.455l20.924 49.254h-8.706zm-2.535-6.497-5.914-14.946-6.107 14.946z"/></g><g fill="#e5e5e5"><path d="m189.345 31.946h12.863c5.849 0 10.688 1.16 14.522 3.476 3.834 2.319 6.629 5.308 8.383 8.967 1.754 3.661 2.633 7.527 2.633 11.599 0 4.548-1.064 8.567-3.183 12.053-2.124 3.488-4.963 6.173-8.515 8.058-3.55 1.885-7.407 2.826-11.564 2.826h-15.139zm13.904 40.872c3.464 0 6.562-.683 9.29-2.047s4.862-3.347 6.402-5.946c1.535-2.599 2.304-5.695 2.304-9.292 0-3.681-.801-6.844-2.403-9.487-1.602-2.642-3.736-4.646-6.402-6.011-2.661-1.365-5.534-2.047-8.608-2.047h-8.187v34.829h7.604z"/><path d="m264.979 31.946v6.043h-24.238v14.296h21.639v6.043h-21.639v14.491h25.148v6.107h-31.452v-46.98z"/><path d="m302.895 78.016c-3.054.952-5.88 1.429-8.482 1.429-4.896 0-9.205-1.006-12.93-3.021-3.725-2.014-6.596-4.776-8.608-8.284-2.015-3.51-3.023-7.451-3.023-11.826 0-5.111 1.082-9.541 3.25-13.288 2.165-3.747 5.089-6.618 8.771-8.611 3.681-1.992 7.712-2.988 12.086-2.988 2.643 0 5.133.314 7.474.942 2.338.628 4.438 1.462 6.301 2.502l-2.08 5.783c-1.385-.78-3.129-1.462-5.229-2.047-2.103-.585-3.997-.877-5.686-.877-3.64 0-6.854.738-9.649 2.209-2.795 1.474-4.95 3.574-6.464 6.304-1.519 2.728-2.276 5.912-2.276 9.551 0 3.379.757 6.39 2.276 9.032 1.514 2.643 3.658 4.69 6.433 6.141 2.77 1.452 5.932 2.177 9.487 2.177 1.643 0 3.247-.163 4.805-.487 1.56-.326 2.862-.791 3.901-1.398v-9.292h-9.357v-6.043h15.723v18.973c-1.427 1.128-3.67 2.167-6.723 3.119z"/><path d="m344.902 78.926-11.047-17.349c-.346.044-.865.065-1.558.065h-6.952v17.285h-6.304v-46.98h12.54c3.206 0 6.063.563 8.577 1.69 2.511 1.126 4.482 2.784 5.914 4.971 1.429 2.188 2.144 4.82 2.144 7.895 0 2.903-.641 5.566-1.917 7.992-1.279 2.427-3.24 4.268-5.88 5.524l11.825 18.909h-7.342zm-5.425-26.056c1.493-1.776 2.242-3.812 2.242-6.109 0-1.386-.315-2.75-.943-4.094-.628-1.342-1.625-2.458-2.989-3.347-1.364-.887-3.087-1.332-5.167-1.332h-7.275v17.545h6.82c3.38.001 5.816-.887 7.312-2.663z"/><path d="m389.865 31.946v6.043h-24.238v14.296h21.639v6.043h-21.639v14.491h25.148v6.107h-31.449v-46.98z"/><path d="m429.698 31.946v6.043h-24.238v14.296h21.639v6.043h-21.639v14.491h25.148v6.107h-31.449v-46.98z"/><path d="m457.899 38.12c-1.907-.563-3.705-.845-5.394-.845-2.555 0-4.581.575-6.074 1.722-1.496 1.148-2.242 2.719-2.242 4.711 0 1.949.876 3.541 2.633 4.776 1.754 1.235 4.255 2.459 7.505 3.671 2.423.867 4.472 1.81 6.138 2.826 1.669 1.019 3.054 2.427 4.159 4.224 1.106 1.798 1.656 4.083 1.656 6.855 0 2.512-.628 4.787-1.883 6.823-1.258 2.037-3.043 3.639-5.361 4.808-2.317 1.17-5.035 1.754-8.156 1.754-2.901 0-5.697-.465-8.381-1.396-2.687-.931-5.048-2.112-7.084-3.542l2.795-5.003c1.602 1.213 3.529 2.242 5.782 3.086 2.253.845 4.356 1.267 6.304 1.267 2.511 0 4.712-.65 6.596-1.949 1.883-1.3 2.826-3.227 2.826-5.783 0-2.165-.791-3.887-2.372-5.166-1.581-1.278-3.8-2.479-6.66-3.607-2.643-.996-4.841-1.97-6.596-2.923-1.754-.952-3.26-2.263-4.516-3.932-1.256-1.666-1.883-3.756-1.883-6.27 0-3.681 1.287-6.66 3.865-8.934 2.578-2.275 5.924-3.477 10.039-3.607 5.069 0 9.768 1.257 14.101 3.768l-2.405 4.874c-1.69-.909-3.488-1.645-5.392-2.208z"/></g></svg>