<svg enable-background="new 0 0 500 109.607" height="109.607" viewBox="0 0 500 109.607" width="500" xmlns="http://www.w3.org/2000/svg" xmlns:xlink="http://www.w3.org/1999/xlink"><mask id="a" height="71.526" maskUnits="userSpaceOnUse" width="66.166" x="252.086" y="27.081"><path d="m252.086 98.606h66.166v-71.525h-66.166z" fill="#fff"/></mask><mask id="b" height="70.27" maskUnits="userSpaceOnUse" width="65.554" x="304.393" y="27.081"><path d="m369.944 97.351v-70.27h-65.551v70.27z" fill="#fff"/></mask><g fill="#fff"><path d="m178.308 108.352c-6.683 0-9.651-2.26-11.136-5.271-8.533-17.817-15.831-34.004-23.496-50.571.125 17.944.62 36.015.865 53.96 0 1.129-.492 1.882-1.98 1.882h-6.798c-9.281 0-12.863-3.889-12.863-11.166 0-4.142 1.235-20.08 2.47-36.142 1.978-25.349 2.475-31.873 2.723-39.904 0-1.383.492-1.885 1.975-1.885h9.896c11.008 0 13.113 5.525 15.461 11.547 12.123 30.995 14.221 35.259 19.294 46.931 0-19.826-.37-42.54-.37-57.349 0-.626.617-1.129 2.103-1.129h6.803c10.761 0 12.491 4.52 12.491 12.176 0 12.295-4.573 71.275-5.07 74.912 0 1.383-1.113 2.009-2.228 2.009z"/><path d="m224.313 87.773c0 3.889 2.968 5.142 5.69 5.142 5.318 0 10.766-4.766 11.506-14.304-8.658-.001-17.196 2.511-17.196 9.162m18.306-19.451c.125-1.758.248-2.887.248-4.642 0-5.395-1.482-8.784-7.668-8.784-6.925 0-8.041 4.14-9.52 10.164-.373 1.504-1.365 1.755-3.838 1.755-8.41 0-12.613-3.011-12.613-9.662 0-10.54 9.398-19.073 28.322-19.073 18.306 0 26.096 8.031 26.096 22.084 0 3.764-2.105 21.082-2.105 24.849 0 8.406 7.298 5.647 7.298 8.279 0 7.405-3.46 16.313-14.838 16.313-7.913 0-11.628-4.14-12.863-10.918-3.958 5.773-9.893 10.918-20.161 10.918-9.896 0-17.934-4.515-17.934-16.691-.001-14.93 13.727-23.963 39.576-24.592"/><path d="m220.796 50.131c-1.115 12.549-2.35 25.851-2.35 30.62 0 4.267.987 5.395 3.212 5.395 3.71 0 5.07-3.262 7.298-3.262 1.113 0 2.347.878 2.347 5.647 0 9.163-4.45 14.933-16.448 14.933-11.87 0-17.436-5.647-17.436-17.067 0-5.147 1.113-12.549 2.843-36.267h-6.558c-1.235 0-1.355-.626-1.355-1.755l.367-6.403c.248-4.264 1.24-8.782 8.906-8.782 2.35-6.022 6.063-18.447 8.285-18.447h3.59c6.923 0 9.148 5.017 9.148 11.042 0 1.631-.122 4.142-.367 7.405h12.986c1.232 0 1.98.502 1.98 1.755l-.495 6.778c-.373 5.02-1.98 8.406-9.401 8.406h-6.552z" transform="translate(82.180851 6.143152)"/><path d="m342.921 13.733c7.05 0 10.143 3.141 10.143 8.031 0 6.149-4.703 10.794-13.358 10.794-6.553 0-10.021-2.636-10.021-8.031 0-6.652 5.195-10.794 13.236-10.794zm-4.45 94.62c-10.141 0-12.616-4.267-12.616-11.922 0-5.144 1.11-16.564 3.708-53.457.122-2.009.248-2.887.623-3.262.37-.378.862-.378 1.975-.378h4.825c10.141 0 12.616 4.269 12.616 11.42 0 4.893-1.11 19.073-3.96 55.088-.122 2.009-.617 2.511-2.72 2.511z"/><path d="m273.109 65.854c0 11.045 3.59 16.062 10.021 16.062 11.628 0 14.098-16.94 14.098-24.72 0-8.282-2.845-13.426-10.141-13.426-12.49 0-13.978 14.93-13.978 22.084m-21.023 1.382c0-20.207 8.78-40.155 37.102-40.155 20.779 0 29.064 10.791 29.064 29.362 0 15.811-5.935 42.164-36.98 42.164-22.631 0-29.186-13.929-29.186-31.371" mask="url(#a)" transform="translate(106.914894 11.000295)"/><path d="m349.165 52.3c0-4.391-1.608-8.406-7.546-8.406-11.375 0-14.591 9.411-17.441 50.946-.125 2.012-.617 2.511-2.72 2.511h-4.45c-10.143 0-12.616-4.264-12.616-11.92 0-5.147 1.113-16.564 3.708-53.46.122-2.006.248-2.884.623-3.259.37-.378.865-.378 1.975-.378h4.823c9.898 0 12.496 5.017 12.863 10.54 5.198-8.909 11.256-11.793 21.151-11.793 13.853 0 20.411 5.644 20.411 22.711 0 8.158-3.346 39.404-3.346 43.671 0 3.637-.495 3.889-3.338 3.889h-3.955c-10.391 0-12.741-4.016-12.741-11.042.002-7.281 2.599-25.725 2.599-34.01" mask="url(#b)" transform="translate(130.053191 11.000295)"/></g><path d="m108.038 49.261c0-27.207-24.186-49.261-54.019-49.261s-54.019 22.054-54.019 49.261 24.185 49.261 54.019 49.261c9.033 0 17.542-2.033 25.027-5.606l16.975 12.916-4.043-21.53c9.911-8.931 16.06-21.328 16.06-35.041z" fill="#f5a623"/><path d="m52.678 64.347-16.065 8.445 3.068-17.888-12.996-12.668 17.961-2.61 8.032-16.275 8.032 16.275 17.96 2.61-12.996 12.668 3.068 17.888z" fill="#fff"/></svg>