<svg id="Layer_1" data-name="Layer 1" xmlns="http://www.w3.org/2000/svg" viewBox="0 0 502 159.87"><defs><style>.cls-1{fill:#7ebb58;}.cls-2{fill:#fff;}.cls-3{fill:#1b4d9f;}.cls-4{fill:#ed3430;}</style></defs><rect class="cls-1" x="341.79" y="20.77" width="137.46" height="137.46" rx="16.5"/><path class="cls-2" d="M382.1,110l-6,21.57h-19.7l25.68-84H407l26.05,84H412.64L406.16,110Zm21.32-14.21L398.18,78c-1.49-5-3-11.22-4.24-16.21h-.25c-1.24,5-2.49,11.35-3.86,16.21l-5,17.82Z" transform="translate(0.5 -0.06)"/><path class="cls-2" d="M457.64,47.55v84H438.56v-84Z" transform="translate(0.5 -0.06)"/><path class="cls-3" d="M0,88.36C0,80.48-.24,73.76-.5,68.2H16.56l.9,8.66h.39A23.11,23.11,0,0,1,37.36,66.78C50.28,66.78,60,75.31,60,93.91v37.47H40.33v-35c0-8.14-2.84-13.7-9.95-13.7-5.43,0-8.66,3.75-9.95,7.37A13.64,13.64,0,0,0,19.66,95v36.43H0Z" transform="translate(0.5 -0.06)"/><path class="cls-3" d="M134,99.08c0,23.13-16.41,33.72-33.34,33.72C82.2,132.8,68,120.66,68,100.24s13.44-33.46,33.72-33.46C121.09,66.78,134,80.09,134,99.08Zm-45.74.65c0,10.85,4.52,19,12.92,19,7.62,0,12.53-7.62,12.53-19,0-9.43-3.62-19-12.53-19C91.76,80.73,88.28,90.43,88.28,99.73Z" transform="translate(0.5 -0.06)"/><path class="cls-3" d="M164,50.11V68.2h14.09V82.67H164v22.87c0,7.63,1.81,11.11,7.76,11.11a32,32,0,0,0,5.81-.51L177.7,131c-2.58,1-7.24,1.68-12.79,1.68-6.33,0-11.63-2.2-14.73-5.43-3.62-3.75-5.43-9.82-5.43-18.74V82.67h-8.4V68.2h8.4V54.51Z" transform="translate(0.5 -0.06)"/><path class="cls-3" d="M209.74,50.63c0,5.43-4.13,9.82-10.59,9.82-6.2,0-10.34-4.39-10.21-9.82-.13-5.69,4-10,10.34-10S209.61,44.94,209.74,50.63Zm-20.28,80.75V68.2H209.1v63.18Z" transform="translate(0.5 -0.06)"/><path class="cls-3" d="M228.43,131.38V82.67h-8.27V68.2h8.27V65.75c0-7.63,2.33-16,8-21.19,4.91-4.65,11.76-6.33,17.45-6.33a37.51,37.51,0,0,1,10.46,1.29l-.77,15.11a21.5,21.5,0,0,0-6.33-.9c-6.46,0-9.18,5-9.18,11.24V68.2h12.66V82.67H248.2v48.71Z" transform="translate(0.5 -0.06)"/><path class="cls-3" d="M289.15,68.2l9.43,31c1,3.75,2.33,8.4,3.11,11.76h.38c.91-3.36,1.94-8.14,2.85-11.76l7.75-31h21.06L319,109.81c-9,25.06-15.12,35.14-22.22,41.47a36.3,36.3,0,0,1-19,8.66l-4.13-16.67a24.9,24.9,0,0,0,8.53-3.36,22.59,22.59,0,0,0,8.14-7.88,5.18,5.18,0,0,0,1-2.84,7.08,7.08,0,0,0-.91-3.23L267.32,68.2Z" transform="translate(0.5 -0.06)"/><circle class="cls-4" cx="476.74" cy="25.26" r="25.26"/><path class="cls-2" d="M480.15,35.87h-4.49V20.56l-3.51,3.58-2.56-2.69,6.64-6.67h3.92Z" transform="translate(0.5 -0.06)"/></svg>