<svg id="Layer_1" data-name="Layer 1" xmlns="http://www.w3.org/2000/svg" viewBox="0 0 502 159.87"><defs><style>.cls-1{fill:#7ebb58;}.cls-2{fill:#fff;}.cls-3{fill:#ed3430;}</style></defs><rect class="cls-1" x="341.79" y="20.77" width="137.46" height="137.46" rx="16.5"/><path class="cls-2" d="M381.78,110.39l-6,21.56H356.1l25.68-84h24.93l26.05,84H412.32l-6.49-21.56Zm21.31-14.21-5.23-17.83c-1.5-5-3-11.22-4.24-16.2h-.25c-1.25,5-2.49,11.34-3.86,16.2l-5,17.83Z" transform="translate(0.82 -0.45)"/><path class="cls-2" d="M457.31,47.94v84H438.24v-84Z" transform="translate(0.82 -0.45)"/><path class="cls-2" d="M-.31,88.74c0-7.88-.26-14.6-.51-20.15H16.23l.91,8.65h.38A23.16,23.16,0,0,1,37,67.17c12.92,0,22.61,8.52,22.61,27.13v37.47H40v-35c0-8.14-2.84-13.69-9.94-13.69-5.43,0-8.66,3.74-9.95,7.36a13.41,13.41,0,0,0-.78,4.91v36.44H-.31Z" transform="translate(0.82 -0.45)"/><path class="cls-2" d="M133.69,99.47c0,23.12-16.41,33.72-33.33,33.72-18.48,0-32.69-12.15-32.69-32.56S81.1,67.17,101.39,67.17C120.77,67.17,133.69,80.47,133.69,99.47ZM88,100.11c0,10.86,4.52,19,12.92,19,7.63,0,12.54-7.62,12.54-19,0-9.43-3.62-19-12.54-19C91.44,81.12,88,90.81,88,100.11Z" transform="translate(0.82 -0.45)"/><path class="cls-2" d="M163.68,50.5V68.59h14.08V83.06H163.68v22.87c0,7.62,1.81,11.11,7.75,11.11a32,32,0,0,0,5.82-.52l.12,14.86c-2.58,1-7.23,1.68-12.79,1.68-6.33,0-11.63-2.2-14.73-5.43-3.61-3.74-5.42-9.82-5.42-18.73V83.06H136V68.59h8.4V54.89Z" transform="translate(0.82 -0.45)"/><path class="cls-2" d="M209.42,51c0,5.43-4.14,9.82-10.6,9.82-6.2,0-10.33-4.39-10.2-9.82-.13-5.68,4-9.94,10.33-9.94S209.29,45.33,209.42,51Zm-20.29,80.76V68.59h19.64v63.18Z" transform="translate(0.82 -0.45)"/><path class="cls-2" d="M228.11,131.77V83.06h-8.27V68.59h8.27V66.13c0-7.62,2.32-16,8-21.19,4.91-4.65,11.76-6.33,17.44-6.33A38,38,0,0,1,264,39.9L263.25,55a21.12,21.12,0,0,0-6.33-.9c-6.46,0-9.17,5-9.17,11.24v3.23h12.66V83.06H247.88v48.71Z" transform="translate(0.82 -0.45)"/><path class="cls-2" d="M288.83,68.59l9.43,31c1,3.74,2.33,8.39,3.1,11.75h.39c.9-3.36,1.94-8.14,2.84-11.75l7.75-31H333.4l-14.73,41.6c-9,25.07-15.11,35.14-22.22,41.48a36.17,36.17,0,0,1-19,8.65l-4.14-16.67a24.71,24.71,0,0,0,8.53-3.35,22.7,22.7,0,0,0,8.14-7.89,5.07,5.07,0,0,0,1-2.84,7.11,7.11,0,0,0-.91-3.23L267,68.59Z" transform="translate(0.82 -0.45)"/><circle class="cls-3" cx="476.74" cy="25.26" r="25.26"/><path class="cls-2" d="M479.82,36.25h-4.49V21l-3.51,3.57-2.56-2.69,6.64-6.67h3.92Z" transform="translate(0.82 -0.45)"/></svg>