<?xml version="1.0" standalone="no"?>
<!DOCTYPE svg PUBLIC "-//W3C//DTD SVG 20010904//EN"
 "http://www.w3.org/TR/2001/REC-SVG-20010904/DTD/svg10.dtd">
<svg version="1.0" xmlns="http://www.w3.org/2000/svg"
 width="2700.000000pt" height="945.000000pt" viewBox="0 0 2700.000000 945.000000"
 preserveAspectRatio="xMidYMid meet">
<metadata>
Created by potrace 1.16, written by Peter Selinger 2001-2019
</metadata>
<g transform="translate(0.000000,945.000000) scale(0.100000,-0.100000)"
fill="#000000" stroke="none">
<path d="M6090 9233 c-112 -11 -285 -40 -505 -83 -236 -46 -1356 -267 -2130
-420 -192 -38 -501 -99 -685 -135 -899 -178 -902 -178 -1134 -255 -377 -126
-701 -335 -895 -580 -216 -271 -322 -560 -353 -961 -20 -266 4 -508 97 -974
25 -126 74 -376 110 -555 98 -500 200 -1015 360 -1825 301 -1525 304 -1538
391 -1772 149 -401 405 -724 714 -900 173 -99 331 -154 556 -194 111 -20 163
-23 369 -23 173 0 276 5 370 18 142 19 191 28 1300 247 1460 288 1763 349
1819 369 143 49 268 162 335 303 56 117 66 170 65 332 0 116 -6 166 -32 290
-30 146 -285 1408 -497 2455 -57 283 -133 661 -170 840 -96 478 -129 595 -226
799 -131 276 -333 484 -563 580 -237 99 -514 114 -841 46 -552 -114 -863 -350
-1086 -822 -53 -113 -70 -157 -251 -633 -82 -217 -185 -487 -228 -600 -42
-113 -85 -237 -94 -277 -34 -152 -14 -327 56 -473 55 -115 184 -245 304 -307
131 -68 215 -88 374 -88 121 1 143 4 215 29 191 66 328 187 429 377 24 46 121
289 215 539 228 605 217 578 224 554 6 -18 38 -180 317 -1589 66 -335 141
-715 167 -843 36 -185 44 -236 33 -242 -7 -4 -49 -15 -94 -24 -72 -14 -1229
-242 -1765 -348 -178 -35 -218 -40 -310 -36 -91 3 -114 7 -163 31 -70 35 -140
110 -166 180 -20 53 -45 174 -282 1377 -72 366 -142 719 -155 785 -13 66 -87
440 -164 830 -77 391 -163 827 -192 970 -45 229 -50 271 -47 355 5 122 38 200
112 266 92 83 151 103 506 173 797 156 1657 326 3095 611 308 61 596 114 640
117 130 9 246 -30 322 -109 48 -50 100 -161 123 -263 11 -49 94 -468 185 -930
92 -462 206 -1042 255 -1290 81 -409 363 -1837 460 -2330 22 -110 71 -357 109
-550 38 -192 119 -604 181 -915 61 -311 118 -596 127 -635 69 -299 231 -488
473 -552 95 -25 286 -22 415 7 325 72 513 235 571 497 30 138 18 275 -64 683
-39 195 -139 699 -222 1120 -83 421 -193 979 -245 1240 -52 261 -225 1139
-385 1950 -398 2017 -386 1959 -425 2106 -205 784 -636 1264 -1268 1414 -160
38 -282 50 -507 48 -118 -1 -231 -3 -250 -5z"/>
<path d="M22350 5980 c0 -302 -2 -550 -4 -550 -3 0 -42 9 -88 21 -122 30 -350
37 -492 14 -257 -40 -448 -135 -607 -301 -93 -99 -129 -150 -185 -268 -183
-386 -140 -937 98 -1237 127 -161 293 -272 512 -344 175 -57 280 -70 546 -69
294 0 579 30 811 85 l89 21 -2 1586 -3 1587 -337 3 -338 2 0 -550z m-210
-1100 c94 -12 174 -35 194 -56 14 -14 16 -74 16 -495 l0 -479 -27 -12 c-16 -6
-95 -11 -188 -11 -148 -1 -166 1 -241 26 -188 63 -303 203 -335 410 -25 159 6
330 80 437 100 146 275 209 501 180z"/>
<path d="M23852 6455 c-227 -50 -355 -283 -280 -511 24 -72 91 -157 159 -200
101 -64 268 -72 374 -19 85 43 148 108 187 190 29 63 32 80 33 160 0 81 -3 97
-32 157 -58 123 -161 204 -292 228 -65 12 -70 12 -149 -5z"/>
<path d="M11060 6150 c-474 -65 -875 -337 -1087 -736 -129 -243 -190 -558
-164 -842 20 -218 57 -353 145 -537 207 -429 627 -718 1129 -776 l104 -12 264
-318 264 -318 409 -1 c380 0 407 1 395 17 -8 9 -150 179 -316 377 -167 199
-303 363 -303 366 0 3 42 27 94 53 188 98 377 267 498 447 111 164 179 330
220 532 19 95 23 144 22 308 0 216 -16 320 -76 495 -162 478 -583 837 -1093
931 -104 19 -406 27 -505 14z m400 -645 c242 -58 438 -254 515 -515 40 -132
48 -358 19 -499 -76 -369 -360 -610 -722 -611 -303 0 -565 173 -677 449 -106
259 -93 572 33 815 36 70 65 109 127 171 114 114 233 177 386 204 71 13 237 5
319 -14z"/>
<path d="M13930 6114 c-146 -24 -413 -68 -595 -97 l-330 -53 -3 -317 c-1 -174
1 -317 5 -317 5 0 116 14 248 30 132 16 243 30 248 30 4 0 7 -472 7 -1050 l0
-1050 345 0 345 0 0 1435 c0 789 -1 1435 -2 1434 -2 0 -122 -21 -268 -45z"/>
<path d="M15015 6098 c-5 -25 -20 -126 -60 -423 -14 -104 -37 -273 -51 -375
-14 -102 -36 -264 -49 -360 -13 -96 -40 -294 -60 -440 -47 -344 -97 -710 -135
-984 -16 -120 -30 -220 -30 -222 0 -2 160 -4 355 -4 297 0 355 2 355 14 0 8
38 292 85 632 47 341 99 726 117 857 17 130 34 237 37 237 3 0 59 -175 124
-388 66 -213 138 -450 162 -527 24 -77 69 -223 100 -325 31 -102 79 -255 105
-340 l48 -155 319 -3 318 -2 47 152 c92 304 393 1280 457 1483 l37 120 12 -75
c6 -41 32 -223 57 -405 25 -181 63 -454 84 -605 22 -151 51 -364 67 -472 l27
-198 354 0 c289 0 353 2 353 13 0 8 -18 146 -40 308 -23 162 -54 393 -71 514
-33 247 -85 628 -123 905 -60 435 -146 1075 -146 1082 0 5 -193 8 -430 8
l-429 0 -21 -72 c-12 -40 -28 -93 -35 -118 -8 -25 -39 -130 -69 -235 -30 -104
-86 -298 -124 -430 -39 -132 -91 -312 -117 -400 -146 -504 -178 -611 -185
-624 -5 -9 -13 2 -23 35 -16 49 -148 480 -214 694 -19 63 -54 178 -78 255 -57
183 -216 696 -250 808 l-26 87 -424 0 -425 0 -5 -22z"/>
<path d="M19392 5464 c-525 -88 -852 -521 -852 -1129 0 -592 318 -972 900
-1077 109 -19 439 -16 560 6 188 33 330 79 434 140 l46 27 0 279 c0 154 -2
280 -5 280 -3 0 -27 -11 -53 -24 -210 -105 -525 -163 -748 -139 -218 24 -393
120 -454 250 -37 80 -98 73 651 73 l672 0 -6 243 c-6 270 -20 368 -71 519 -82
240 -233 408 -444 494 -173 70 -423 93 -630 58z m322 -565 c107 -40 186 -165
189 -299 l2 -65 -352 -3 c-207 -1 -353 2 -353 7 0 19 43 148 62 186 45 87 120
155 201 181 67 20 187 17 251 -7z"/>
<path d="M25415 5465 c-165 -23 -299 -62 -427 -125 l-68 -33 0 -288 0 -288 73
39 c164 87 341 132 527 132 146 0 223 -19 291 -73 56 -45 79 -96 79 -185 l0
-72 -242 -5 c-196 -4 -262 -9 -341 -26 -119 -26 -237 -68 -297 -106 -195 -122
-280 -282 -280 -527 0 -298 155 -504 451 -599 279 -90 726 -89 1257 3 l122 21
0 743 c0 813 0 818 -59 970 -92 236 -315 384 -641 424 -111 13 -332 11 -445
-5z m475 -1510 l0 -204 -37 -8 c-21 -4 -92 -8 -158 -8 -101 0 -127 3 -165 21
-78 37 -111 79 -125 160 -15 92 45 189 133 218 63 20 87 23 230 25 l122 1 0
-205z"/>
<path d="M23600 4360 l0 -1070 340 0 340 0 0 1070 0 1070 -340 0 -340 0 0
-1070z"/>
</g>
</svg>
