<svg enable-background="new 0 0 500 85.162" height="85.162" viewBox="0 0 500 85.162" width="500" xmlns="http://www.w3.org/2000/svg" xmlns:xlink="http://www.w3.org/1999/xlink"><clipPath id="a"><path d="m370.968 19.011v20.321c0 6.253.656 11.14 1.968 14.653 1.327 3.513 3.648 6.166 6.994 7.95 3.189 1.722 7.216 2.587 12.017 2.664v.027h10.082v-9.781h-9.535c-7.014-.716-10.527-4.956-10.527-12.729v-1.23h20.29v-21.875z"/></clipPath><linearGradient id="b"><stop offset="0" stop-color="#dc1f26"/><stop offset=".0282" stop-color="#db1f26"/><stop offset="1" stop-color="#c32127"/></linearGradient><linearGradient id="c" gradientTransform="matrix(0 24.4468 24.4468 0 -8081.1743 3603.7812)" gradientUnits="userSpaceOnUse" x1="-146.6356" x2="-144.7697" xlink:href="#b" y1="346.3761" y2="346.3761"/><clipPath id="d"><path d="m407.976 19.011v9.786h9.534c7.019.717 10.529 4.956 10.529 12.726v1.235h-20.29v21.868h31.287v-20.319c0-6.249-.654-11.138-1.966-14.654-1.323-3.51-3.648-6.166-6.99-7.952-3.192-1.715-7.219-2.587-12.019-2.659v-.031z"/></clipPath><linearGradient id="e" gradientTransform="matrix(0 24.4468 24.4468 0 -8061.4717 3603.7812)" gradientUnits="userSpaceOnUse" x1="-146.6356" x2="-144.7697" xlink:href="#b" y1="347.0746" y2="347.0746"/><g fill="#fff"><path d="m1.726 64.805v-15.518h10.53c.091 2.117 1.069 3.801 2.933 5.055 1.864 1.261 4.163 1.888 6.897 1.888 2.358 0 4.198-.403 5.518-1.235 1.321-.824 1.983-1.87 1.983-3.141 0-1.181-.608-2.099-1.818-2.751-1.213-.649-3.59-1.272-7.126-1.866-7.298-1.184-12.566-2.981-15.796-5.388-3.234-2.403-4.847-5.596-4.847-9.569 0-3.727 1.522-6.871 4.566-9.426 3.043-2.566 7.081-3.846 12.114-3.846 4.069 0 7.872.753 11.413 2.26v-1.563h10.296v13.091h-10.297c-.931-3.135-4.224-4.706-9.876-4.706-4.163 0-6.243 1.154-6.243 3.444 0 .872.429 1.538 1.282 1.989.855.45 3.036.986 6.547 1.605 5.555.957 9.72 1.923 12.486 2.886 2.76.965 4.975 2.555 6.635 4.777 1.663 2.221 2.493 4.885 2.493 7.99 0 4.413-1.577 8.021-4.73 10.831-3.152 2.81-7.615 4.213-13.391 4.213-5.373 0-9.057-1.09-11.04-3.28v2.26z"/><path d="m73.425 74.772v10.39h-31.027v-10.39h7.595v-44.675h-6.339v-10.393h20.733v5.663c4.008-4.237 8.477-6.359 13.419-6.359 5.961 0 10.658 2.364 14.092 7.104 3.431 4.741 5.149 10.259 5.149 16.562 0 6.679-1.775 12.208-5.314 16.588-3.541 4.377-8.262 6.563-14.16 6.563-4.818 0-9.21-1.873-13.186-5.634v14.581zm8.854-32.371c0-3.951-.817-6.899-2.448-8.856-1.633-1.957-3.78-2.936-6.454-2.936-2.7 0-4.898 1.001-6.59 3.006-1.693 2-2.538 4.993-2.538 8.966 0 3.572.836 6.448 2.514 8.62 1.677 2.172 3.915 3.262 6.712 3.262 2.577 0 4.688-.977 6.334-2.934 1.645-1.958 2.47-4.997 2.47-9.128"/><path d="m124.414 65.825c-6.648 0-12.261-2.095-16.84-6.308-4.583-4.209-6.872-9.978-6.872-17.309 0-7.333 2.29-13.095 6.872-17.302 4.579-4.214 10.191-6.313 16.84-6.313 6.677 0 12.299 2.099 16.866 6.313 4.566 4.207 6.846 9.969 6.846 17.302 0 7.24-2.259 12.987-6.773 17.232-4.521 4.261-10.168 6.385-16.939 6.385m-.045-11.177c2.67 0 4.838-1.024 6.497-3.079 1.663-2.048 2.491-5.255 2.491-9.64 0-3.846-.806-6.86-2.42-9.016-1.618-2.159-3.806-3.237-6.568-3.237-5.934 0-8.899 4.29-8.899 12.861 0 3.508.739 6.405 2.213 8.686 1.475 2.281 3.702 3.425 6.686 3.425"/><path d="m182.624 54.415v10.39h-31.724v-10.39h8.338v-24.317h-7.827v-10.395h21.012v11.466c.807-3.295 2.646-6.148 5.521-8.553 2.871-2.405 6.266-3.609 10.178-3.609.655 0 1.431.019 2.325.048v13.601c-3.629 0-6.597.405-8.895 1.214-2.3.813-4.19 2.576-5.682 5.31-1.491 2.733-2.239 5.96-2.239 9.689v5.547h8.993z"/><path d="m195.776 12.623 14.395-10.343v17.424h8.298v10.394h-8.298v19.557c0 1.775.226 2.965.678 3.568.447.609 1.483.911 3.097.911 1.335 0 2.84-.31 4.524-.933v9.967c-3.694 1.531-7.319 2.292-10.856 2.292-7.891 0-11.837-3.925-11.837-11.764v-41.073z"/><path d="m224.25 64.805v-15.518h10.533c.093 2.117 1.075 3.801 2.933 5.055 1.862 1.261 4.161 1.888 6.899 1.888 2.358 0 4.198-.403 5.521-1.235 1.316-.824 1.975-1.87 1.975-3.141 0-1.181-.601-2.099-1.819-2.751-1.206-.649-3.586-1.272-7.124-1.866-7.3-1.184-12.564-2.981-15.792-5.388-3.233-2.402-4.847-5.594-4.847-9.567 0-3.727 1.524-6.871 4.566-9.426 3.043-2.566 7.081-3.846 12.116-3.846 4.062 0 7.87.753 11.406 2.26v-1.563h10.302v13.091h-10.302c-.926-3.135-4.22-4.706-9.873-4.706-4.163 0-6.243 1.154-6.243 3.444 0 .872.427 1.538 1.28 1.989.856.45 3.036.986 6.547 1.605 5.559.957 9.72 1.923 12.486 2.886 2.762.965 4.982 2.555 6.634 4.777 1.667 2.221 2.495 4.885 2.495 7.99 0 4.413-1.574 8.021-4.727 10.831-3.152 2.81-7.617 4.213-13.392 4.213-5.375 0-9.057-1.09-11.042-3.28v2.26h-10.532z"/><path d="m289.611 0v24.814c3.604-4.152 7.875-6.221 12.81-6.221 5.78 0 10.478 2.185 14.093 6.566 3.619 4.381 5.43 9.983 5.43 16.819 0 7.294-1.811 13.034-5.43 17.207-3.615 4.18-8.193 6.275-13.721 6.275-4.967 0-9.362-1.961-13.182-5.853v5.197h-22.22v-10.39h7.828v-44.025h-7.828v-10.389zm17.566 41.884c0-3.855-.791-6.757-2.376-8.71-1.585-1.965-3.681-2.941-6.29-2.941-2.485 0-4.614.961-6.385 2.894-1.771 1.923-2.653 5.062-2.653 9.41 0 3.66.831 6.532 2.489 8.616 1.662 2.085 3.797 3.116 6.41 3.116 2.511 0 4.61-1.006 6.283-3.029 1.68-2.011 2.522-5.134 2.522-9.356"/><path d="m357.597 54.415v10.39h-31.728v-10.39h8.338v-24.317h-7.828v-10.395h21.01v11.466c.809-3.295 2.653-6.148 5.521-8.553 2.875-2.405 6.261-3.609 10.179-3.609.652 0 1.432.019 2.332.048v13.601c-3.641 0-6.6.405-8.899 1.214-2.3.813-4.191 2.576-5.682 5.31-1.491 2.733-2.241 5.96-2.241 9.689v5.547h8.998z"/><path d="m444.599 64.805v-10.39h7.268v-44.026h-7.268v-10.389h21.621v40.929l15.482-12.599h-9.523v-8.626h27.256v9.134h-4.519l-13.191 11.256 12.025 14.321h6.25v10.39h-13.847l-19.933-23.876v13.992h5.449v9.884z"/></g><path clip-path="url(#a)" d="m370.968 19.011h31.289v45.616h-31.289z" fill="url(#c)"/><path clip-path="url(#d)" d="m407.749 19.011h31.287v45.616h-31.287z" fill="url(#e)"/></svg>