<svg enable-background="new 0 0 500 83.503" height="83.503" viewBox="0 0 500 83.503" width="500" xmlns="http://www.w3.org/2000/svg"><g fill="#fff"><path d="m210.307 61.387-3.652-10.334h-21.117l-5.167 10.334h-6.407l21.875-41.769h5.047l15.381 41.769zm-22.392-15.14h17.052l-6.89-19.877z"/><path d="m250.37 19.618h5.753l-3.29 41.769h-4.633l-21.427-31.503-2.515 31.503h-5.632l3.221-41.769h4.633l21.427 31.451z"/><path d="m257.346 56.702 2.515-4.461c1.947 1.551 4.143 2.762 6.493 3.583 2.375.764 4.86 1.137 7.355 1.102 2.545.151 5.078-.447 7.286-1.722 1.636-1.054 2.593-2.895 2.515-4.84.039-1.197-.43-2.355-1.292-3.186-.917-.869-2.001-1.543-3.186-1.981-1.24-.5-3.014-1.085-5.305-1.722-2.429-.675-4.811-1.51-7.131-2.498-1.802-.771-3.4-1.95-4.668-3.445-1.346-1.788-2-4.003-1.843-6.235-.043-2.29.645-4.534 1.964-6.407 1.434-1.919 3.38-3.394 5.615-4.254 2.712-1.046 5.603-1.549 8.509-1.481 2.8-.015 5.583.439 8.233 1.343 2.425.794 4.656 2.091 6.545 3.807l-2.515 4.461c-1.731-1.497-3.722-2.665-5.873-3.445-2.082-.78-4.288-1.177-6.511-1.171-2.542-.181-5.078.42-7.269 1.722-1.667 1.107-2.644 2.995-2.584 4.995-.024 1.28.459 2.519 1.344 3.445.918.988 2.041 1.764 3.29 2.274 1.326.534 3.186 1.137 5.581 1.843 2.342.653 4.643 1.446 6.89 2.377 1.734.748 3.268 1.892 4.478 3.341 1.291 1.625 1.952 3.662 1.86 5.736.119 3.462-1.504 6.754-4.323 8.767-3.49 2.314-7.635 3.438-11.816 3.204-5.822.222-11.539-1.6-16.157-5.152z"/><path d="m348.841 19.618h5.977l-17.999 41.769h-5.047l-8.75-32.261-13.779 32.261h-5.047l-11.385-41.769h6.097l8.612 33.208 14.141-33.208h4.461l8.75 33.329z"/><path d="m387.268 24.527h-21.134l-.982 13.159h19.946l-.396 4.926h-19.963l-1.12 13.779h21.117l-.413 4.926h-27.042l3.221-41.769h27.18z"/><path d="m418.736 44.576c.853 1.157 1.489 2.458 1.877 3.841l3.979 12.97h-6.39l-4.22-13.9c-.306-1.309-1.15-2.429-2.325-3.083-1.4-.627-2.928-.916-4.461-.844h-8.612l-1.412 17.827h-6.011l3.273-41.769h17.724c3.538-.223 7.041.815 9.887 2.928 2.343 2.046 3.614 5.058 3.445 8.164.117 2.803-.727 5.563-2.394 7.82-1.823 2.186-4.362 3.657-7.165 4.151 1.104.333 2.083.994 2.805 1.895zm-8.336-5.891c6.189 0 9.278-2.543 9.267-7.63 0-4.375-2.716-6.562-8.147-6.562h-11.454l-1.102 14.193h11.436z"/><path d="m460.057 24.527h-21.117l-1.068 13.142h19.963l-.413 4.926h-19.928l-1.12 13.779h21.134l-.413 4.926h-27.025l3.238-41.769h27.162z"/><path d="m465.758 19.618h14.434c6.304 0 11.184 1.688 14.641 5.064 3.456 3.376 5.179 8.101 5.167 14.175 0 7.131-1.9 12.665-5.701 16.604s-9.158 5.914-16.07 5.925h-15.726zm12.057 36.722c5.317 0 9.335-1.487 12.057-4.461 2.721-2.974 4.059-7.332 4.013-13.073 0-4.651-1.188-8.181-3.583-10.558s-5.942-3.583-10.679-3.583h-8.095l-2.515 31.675z"/><path d="m16.415 13.176-16.415 64.643 79.059-4.323-.534 10.007 17.086-10.748 63.902-3.617 34.241-69.138zm30.693 37.635c-1.171 8.957-10.334 9.129-15.605 9.129-5.395-.282-10.673-1.678-15.502-4.099l4.289-8.75c1.499.913 13.986 6.597 15.622 2.325s-17.327-7.269-12.453-19.446c3.652-9.112 11.489-8.319 19.532-8.319h6.614l-3.841 9.37h-7.32c-1.412 0-5.167 0-5.167 2.308-.103 3.6 15.364 5.942 13.831 17.482zm30.401-19.687h-8.405l-2.291 28.334h-9.973l2.342-28.334h-10.334l.758-9.473h32.726zm17.827 28.73c-10.334 0-14.813-6.631-14.813-14.744 0-.482.034-1.223.103-2.222l1.722-21.237h10.024s-1.722 22.495-1.722 23.201c-.295 2.542 1.527 4.841 4.068 5.136.182.021.365.031.548.031 3.066 0 4.754-2.704 4.995-5.581l1.86-22.77h10.024l-1.722 22.133c-.395 5.34-3.633 16.053-15.087 16.053zm40.735-23.494-4.53 9.335h-7.441l-.706 13.779h-11.73l2.98-37.893h28.73l-4.719 9.473h-13.487l-.413 5.167zm28.644 0-4.651 9.318h-7.131l-.878 13.779h-11.609l2.963-37.893h28.54l-4.668 9.473h-13.349l-.396 5.167z"/></g></svg>