<svg enable-background="new 0 0 500 179.611" height="179.611" viewBox="0 0 500 179.611" width="500" xmlns="http://www.w3.org/2000/svg"><g fill="#fff"><path d="m43.179 179.611c-20.095 0-33.739-8.186-42.174-26.049-2.233-4.961-.744-7.937 4.465-9.674l8.435-2.73c5.209-1.737 7.939.249 10.172 4.961 4.713 9.428 10.667 11.66 19.102 11.66 8.186 0 14.14-3.225 14.14-10.172 0-6.698-4.217-11.162-18.358-18.109-13.893-6.947-21.335-12.155-27.04-17.614-6.202-5.954-9.676-13.891-9.676-22.824 0-19.102 16.374-32.993 38.7-32.993 18.11 0 30.514 6.698 38.949 21.087 2.481 3.969 1.24 8.681-3.474 10.418l-8.434 3.225c-4.714 1.737-7.94-.246-10.421-4.217-3.969-6.449-9.179-9.425-16.372-9.425-7.691 0-13.645 3.471-13.645 9.674 0 6.449 1.489 9.923 20.095 19.102 15.133 7.442 21.584 10.916 26.793 15.877 6.202 5.705 9.428 13.645 9.428 22.824 0 21.087-16.126 34.979-40.685 34.979z"/><path d="m145.881 177.13h-8.931c-23.072 0-31.01-8.186-31.01-31.01v-60.036c0-3.969-2.728-7.442-6.946-7.442h-3.721c-3.97 0-7.195-2.978-7.195-6.947v-7.937c0-4.961 2.233-7.196 7.195-7.196h3.721c4.465 0 6.946-2.727 6.946-7.193v-22.576c0-3.722 3.474-6.698 6.947-6.698h11.163c3.225 0 6.698 3.72 6.698 6.947v22.078c0 4.715 1.984 7.442 7.195 7.442h5.953c3.97 0 7.195 2.978 7.195 6.947v8.435c0 3.969-3.472 6.698-7.195 6.698h-6.202c-4.217 0-6.946 2.73-6.946 6.947v55.569c0 11.66 2.728 13.892 11.412 13.892h3.969c2.977 0 6.947 3.474 6.947 6.947v8.186c0 3.722-3.474 6.947-7.195 6.947z"/><path d="m234.94 177.13h-10.172c-3.969 0-7.193-2.976-7.193-6.947v-4.713c0-2.976-1.24-2.481-3.721 0-9.924 9.923-18.854 13.396-29.026 13.396-14.884 0-21.831-8.93-21.831-27.537v-85.835c0-4.217 3.474-7.196 7.442-7.196h10.172c4.217 0 7.195 2.978 7.195 7.196v73.927c0 10.421 2.233 13.894 9.427 13.894 5.458 0 11.66-2.978 16.87-8.189 2.233-2.232 3.474-3.969 3.474-7.193v-72.439c0-3.971 3.225-7.196 7.193-7.196h10.419c3.722 0 6.947 3.474 6.947 7.196v104.688c-.001 3.972-3.226 6.948-7.196 6.948z"/><path d="m310.106 22.327h-3.969c-8.684 0-11.412 2.234-11.412 13.894v15.133c0 3.969 3.474 6.945 6.946 6.945h6.203c3.721 0 7.193 2.73 7.193 6.698v8.435c0 3.474-4.217 6.947-7.193 6.947h-5.954c-5.21 0-7.195 2.73-7.195 7.442v82.362c0 3.971-2.977 6.947-6.698 6.947h-11.163c-3.97 0-6.947-2.481-6.947-6.698v-82.611c0-4.961-2.232-7.442-6.946-7.442h-3.721c-3.97 0-7.195-3.225-7.195-7.196v-7.937c0-4.217 2.977-6.947 7.195-6.947h3.721c3.721 0 6.946-3.969 6.946-7.442v-19.847c0-21.087 9.179-31.01 32.003-31.01h7.939c3.969 0 7.195 3.474 7.195 7.193v8.189c-.001 3.969-2.731 6.945-6.948 6.945z"/><path d="m377.582 22.327h-3.969c-8.684 0-11.412 2.234-11.412 13.894v15.133c0 3.969 3.474 6.945 6.946 6.945h6.203c3.721 0 7.193 2.73 7.193 6.698v8.435c0 3.474-4.217 6.947-7.193 6.947h-5.954c-5.21 0-7.195 2.73-7.195 7.442v82.362c0 3.971-2.977 6.947-6.698 6.947h-11.163c-3.97 0-6.947-2.481-6.947-6.698v-82.611c0-4.961-2.232-7.442-6.946-7.442h-3.721c-3.97 0-7.195-3.225-7.195-7.196v-7.937c0-4.217 2.977-6.947 7.195-6.947h3.721c3.721 0 6.946-3.969 6.946-7.442v-19.847c0-21.087 9.179-31.01 32.003-31.01h7.939c3.969 0 7.195 3.474 7.195 7.193v8.189c-.001 3.969-2.73 6.945-6.948 6.945z"/></g><g fill="#b3b3b3"><path d="m383.166 175.236c-.782-.856-1.172-1.915-1.172-3.176 0-1.209.416-2.255 1.248-3.136s1.776-1.323 2.835-1.323c1.107 0 2.078.442 2.91 1.323s1.248 1.927 1.248 3.136c0 1.262-.405 2.321-1.21 3.176-.807.858-1.79 1.285-2.948 1.285-1.161-.001-2.131-.427-2.911-1.285z"/><path d="m400.554 174.177c-2.143-2.118-3.213-4.913-3.213-8.392v-16.329c0-3.425 1.083-6.211 3.251-8.354 2.166-2.14 5.014-3.212 8.542-3.212 2.369 0 4.461.48 6.275 1.437s3.212 2.229 4.195 3.816c.983 1.59 1.474 3.339 1.474 5.256v.754c0 .505-.253.757-.755.757l-3.856.152c-.202 0-.378-.063-.529-.19-.151-.124-.226-.289-.226-.49v-.607c0-1.663-.618-3.11-1.852-4.347-1.235-1.234-2.81-1.851-4.725-1.851s-3.465.668-4.649 2.003c-1.184 1.336-1.776 3.088-1.776 5.253v15.572c0 2.168.592 3.92 1.776 5.256 1.185 1.336 2.733 2.003 4.649 2.003s3.49-.617 4.725-1.854c1.234-1.234 1.852-2.684 1.852-4.347v-.528c0-.503.251-.757.755-.757l3.856.076c.503 0 .755.251.755.757v.83c0 3.024-1.096 5.533-3.288 7.521-2.193 1.993-5.078 2.986-8.656 2.986-3.58.003-6.439-1.054-8.58-3.171z"/><path d="m430.943 174.177c-2.143-2.118-3.213-4.913-3.213-8.392v-16.329c0-3.425 1.083-6.211 3.251-8.354 2.166-2.14 5.039-3.212 8.618-3.212 3.578 0 6.463 1.072 8.656 3.212 2.193 2.143 3.288 4.928 3.288 8.354v16.329c0 3.479-1.084 6.274-3.25 8.392-2.168 2.118-5.066 3.174-8.694 3.174s-6.514-1.057-8.656-3.174zm13.38-3.514c1.235-1.336 1.852-3.062 1.852-5.18v-15.649c0-2.166-.617-3.918-1.852-5.253-1.235-1.336-2.81-2.003-4.724-2.003-1.916 0-3.477.668-4.687 2.003-1.21 1.336-1.814 3.088-1.814 5.253v15.649c0 2.118.604 3.844 1.814 5.18s2.771 2.003 4.687 2.003c1.915 0 3.489-.668 4.724-2.003z"/><path d="m497.505 141.292c1.663 2.219 2.495 5.292 2.495 9.222v25.478c0 .503-.253.754-.757.754h-3.78c-.504 0-.755-.251-.755-.754v-25.023c0-2.57-.542-4.598-1.626-6.086-1.084-1.485-2.507-2.229-4.271-2.229-1.916 0-3.428.731-4.536 2.191-1.108 1.463-1.663 3.453-1.663 5.972v25.175c0 .503-.253.754-.755.754h-3.856c-.504 0-.755-.251-.755-.754v-25.023c0-2.57-.542-4.598-1.626-6.086-1.084-1.485-2.482-2.229-4.195-2.229-1.916 0-3.441.731-4.574 2.191-1.134 1.463-1.701 3.453-1.701 5.972v25.175c0 .503-.253.754-.755.754h-3.78c-.505 0-.757-.251-.757-.754v-36.741c0-.503.251-.757.757-.757h3.78c.503 0 .755.254.755.757v2.344c0 .102.038.165.114.188.075.028.163-.01.264-.112.957-1.259 2.091-2.194 3.402-2.798 1.31-.604 2.695-.906 4.158-.906 1.915 0 3.578.467 4.989 1.399 1.41.932 2.495 2.255 3.25 3.969.049.102.126.15.227.15.1 0 .175-.074.226-.226.908-1.815 2.142-3.149 3.705-4.007 1.562-.856 3.225-1.285 4.989-1.285 3.025-.001 5.368 1.109 7.031 3.325z"/></g></svg>