<svg id="system1" xmlns="http://www.w3.org/2000/svg" width="159.254" height="43.433" viewBox="0 0 159.254 43.433">
  <rect id="Rectangle_14" data-name="Rectangle 14" width="159.254" height="43.433" rx="6" fill="rgba(0,0,0,0.5)"/>
  <path id="Path_83" data-name="Path 83" d="M25.964,22.428l-3.409-1.011a12.041,12.041,0,0,1-3.389-1.338,2.5,2.5,0,0,1-.838-2,3.433,3.433,0,0,1,1.462-2.93,5.967,5.967,0,0,1,3.441-.887c3.975,0,5.06,2.172,5.53,3.111.044.089.107.223.178.371a8.776,8.776,0,0,0,.475.93,1.539,1.539,0,0,0,1.417.754,1.976,1.976,0,0,0,2.135-1.986,7.5,7.5,0,0,0-2.639-4.619c-1.66-1.4-3.932-2.085-6.946-2.085-5.791,0-9.25,2.9-9.25,7.752a5.925,5.925,0,0,0,3.449,5.782,24.518,24.518,0,0,0,3.033,1.062l2.82.789c2.013.6,3.6,1.068,4.613,1.933a3.458,3.458,0,0,1,1.286,2.715,3.873,3.873,0,0,1-1.506,3.048,7.058,7.058,0,0,1-4.072,1.032,7.59,7.59,0,0,1-4.488-1.186,5.394,5.394,0,0,1-2.086-3.45l-.062-.227a1.556,1.556,0,0,0-1.751-1.277c-.83,0-2.4.423-2.4,2.023a8.409,8.409,0,0,0,3.095,5.6,12.2,12.2,0,0,0,7.352,2.154c7.372,0,10-4.159,10-8.052,0-5.845-4.665-7.2-7.453-8m30.4-9.556a2.136,2.136,0,0,0-2.136-1.949,1.9,1.9,0,0,0-1.646.948l-6.028,9.66a15.417,15.417,0,0,0-.943,1.7c-.554-1.086-1.364-2.445-1.567-2.749l-5.425-8.606a1.919,1.919,0,0,0-1.761-.952,2.081,2.081,0,0,0-2.1,1.911,2.261,2.261,0,0,0,.34,1.152l8.346,13.264V36.4a1.827,1.827,0,0,0,1.021,1.721,2.464,2.464,0,0,0,.965.21,1.845,1.845,0,0,0,2.024-1.949V27.251l8.529-13.259a1.945,1.945,0,0,0,.381-1.12M69.8,22.428l-3.409-1.011A12.028,12.028,0,0,1,63,20.079a2.5,2.5,0,0,1-.838-2,3.433,3.433,0,0,1,1.462-2.93,5.971,5.971,0,0,1,3.441-.887c3.974,0,5.06,2.172,5.53,3.111.045.089.108.223.179.371a8.775,8.775,0,0,0,.475.93,1.537,1.537,0,0,0,1.417.754,1.976,1.976,0,0,0,2.135-1.986,7.5,7.5,0,0,0-2.639-4.619c-1.66-1.4-3.933-2.085-6.947-2.085-5.791,0-9.25,2.9-9.25,7.752a5.926,5.926,0,0,0,3.45,5.782,24.43,24.43,0,0,0,3.033,1.062l2.819.789c2.014.6,3.6,1.068,4.613,1.933a3.458,3.458,0,0,1,1.286,2.715,3.873,3.873,0,0,1-1.506,3.048,7.051,7.051,0,0,1-4.07,1.032,7.594,7.594,0,0,1-4.49-1.186,5.4,5.4,0,0,1-2.085-3.45l-.062-.227a1.557,1.557,0,0,0-1.752-1.277c-.83,0-2.4.423-2.4,2.023a8.409,8.409,0,0,0,3.095,5.6,12.2,12.2,0,0,0,7.352,2.154c7.372,0,10-4.159,10-8.052,0-5.845-4.665-7.2-7.453-8m27.7-11.1a1.911,1.911,0,0,0-.867-.178H79.9a1.688,1.688,0,0,0-1.8,1.836,1.7,1.7,0,0,0,1.8,1.874H86.26V36.347a1.835,1.835,0,0,0,2.024,1.986,1.867,1.867,0,0,0,2.059-1.968V14.859h6.289a1.688,1.688,0,0,0,1.8-1.836,1.87,1.87,0,0,0-.931-1.7M117.987,34.4h-13.1v-8.27h11.83a1.672,1.672,0,0,0,1.8-1.8,1.655,1.655,0,0,0-1.8-1.836h-11.83V14.933H117.35a1.689,1.689,0,0,0,1.873-1.873,1.739,1.739,0,0,0-1.873-1.912H102.824c-1.671,0-1.958,1.072-2.024,2.024V36.1a1.823,1.823,0,0,0,2.024,2.012h15.163a1.7,1.7,0,0,0,1.8-1.873,1.654,1.654,0,0,0-1.8-1.836m16.291-14.253q-2.641-4.214-5.294-8.421a1.622,1.622,0,0,0-.774-.608,4.215,4.215,0,0,0-1.56-.23c-1.566,0-2.031.463-2.218.648a1.97,1.97,0,0,0-.517,1.413V36.573a1.726,1.726,0,0,0,.379,1.316,1.836,1.836,0,0,0,1.354.444,1.612,1.612,0,0,0,1.56-.787,2.4,2.4,0,0,0,.221-1.158c.006-.7.129-15.567-.011-19.93,1.9,3.063,7.807,12.281,7.874,12.353a1.946,1.946,0,0,0,1.5.521,2.184,2.184,0,0,0,1.971-1.14l.244-.374Z" transform="translate(-3.582 -2.964)" fill="#fff" fill-rule="evenodd"/>
  <path id="Path_84" data-name="Path 84" d="M202.013,35.23l-.114-.069a1.909,1.909,0,0,0-.867-.177h-2.985V13c0-.885-.28-2.061-2.7-2.061a2.77,2.77,0,0,0-2.032.583c-.245.235-3.138,4.723-5.715,8.9l2.28,3.7c2.535-4.027,4.662-7.385,4.662-7.385V34.983h-3.388a1.856,1.856,0,0,0,0,3.71h9.876a1.688,1.688,0,0,0,1.8-1.836,1.717,1.717,0,0,0-.818-1.627" transform="translate(-51.8 -3.022)" fill="#49a4db" fill-rule="evenodd"/>
</svg>
