<svg enable-background="new 0 0 500 98.486" height="98.486" viewBox="0 0 500 98.486" width="500" xmlns="http://www.w3.org/2000/svg" xmlns:xlink="http://www.w3.org/1999/xlink"><mask id="a" height="97.946" maskUnits="userSpaceOnUse" width="72.173" x="0" y=".435"><path clip-rule="evenodd" d="m0 .435h72.173v97.946h-72.173z" fill="#fff" fill-rule="evenodd"/></mask><mask id="b" height="97.959" maskUnits="userSpaceOnUse" width="53.761" x="-149.761" y="-.039"><path clip-rule="evenodd" d="m-149.761-.039h53.761v97.959h-53.761z" fill="#fff" fill-rule="evenodd"/></mask><g clip-rule="evenodd" fill-rule="evenodd" transform="translate(0 -1)"><path d="m45.863 41.707-12.035-3.57c-2.844-.799-9.503-2.672-11.962-4.722-.692-.555-2.956-2.704-2.956-7.071 0-5.875 3.23-8.997 5.159-10.341 2.893-2.05 7.093-3.133 12.149-3.133 14.031 0 17.862 7.666 19.52 10.983.159.314.381.787.632 1.311.828 1.74 1.395 2.91 1.676 3.284 1.561 2.345 3.406 2.663 5.003 2.663 4.438 0 7.538-2.885 7.538-7.012 0-4.058-3.827-11.757-9.317-16.306-5.86-4.953-13.881-7.358-24.521-7.358-20.446 0-32.653 10.229-32.653 27.362 0 9.627 4.326 16.876 12.176 20.41 2.453 1.117 5.951 2.341 10.707 3.749l9.953 2.788c7.106 2.105 12.718 3.766 16.283 6.822 1.365 1.094 4.541 4.211 4.541 9.582 0 4.176-1.99 8.198-5.315 10.755-4.815 3.644-12.008 3.644-14.372 3.644-4.31 0-10.642-.434-15.846-4.186-5.072-3.659-6.237-7.99-7.361-12.178l-.217-.802c-.45-1.576-1.288-4.507-6.182-4.507-2.928.001-8.463 1.493-8.463 7.143 0 2.199 1.945 12.634 10.924 19.76 5.983 4.761 15.685 7.605 25.955 7.605 26.023 0 35.294-14.683 35.294-28.423 0-20.635-16.469-25.403-26.31-28.252" mask="url(#a)" transform="translate(0 .565)"/><path d="m153.184 8.539c0-3.937-3.981-6.879-7.541-6.879-3.041 0-4.837 1.814-5.81 3.345l-21.281 34.103c-1.669 2.711-2.366 3.966-3.33 5.995-1.958-3.836-4.814-8.63-5.533-9.703l-19.151-30.379c-1.34-2.231-3.43-3.36-6.218-3.36-3.028 0-7.408 2.402-7.408 6.746 0 1.676.564 2.923 1.201 4.065l29.461 46.821.002 32.312c.121 1.659.32 4.436 3.604 6.075 1.124.483 2.302.738 3.406.738 5.267 0 7.144-3.554 7.144-6.879v-32.24l30.107-46.806c.933-1.396 1.347-2.617 1.347-3.954"/><path d="m200.615 42.272-12.035-3.57c-2.844-.799-9.503-2.672-11.962-4.722-.692-.555-2.956-2.704-2.956-7.071 0-5.875 3.23-8.997 5.159-10.341 2.892-2.05 7.093-3.133 12.148-3.133 14.032 0 17.862 7.666 19.52 10.983.159.314.381.787.631 1.311.828 1.74 1.395 2.91 1.677 3.284 1.561 2.345 3.406 2.663 5.003 2.663 4.438 0 7.538-2.885 7.538-7.012 0-4.058-3.828-11.757-9.317-16.306-5.86-4.953-13.881-7.358-24.521-7.358-20.445 0-32.652 10.229-32.652 27.362 0 9.627 4.326 16.876 12.176 20.41 2.453 1.117 5.951 2.341 10.707 3.749l9.953 2.788c7.106 2.105 12.718 3.766 16.283 6.822 1.365 1.094 4.541 4.211 4.541 9.582 0 4.176-1.99 8.198-5.315 10.755-4.815 3.644-12.008 3.644-14.372 3.644-4.31 0-10.642-.434-15.846-4.186-5.072-3.659-6.237-7.99-7.362-12.178l-.217-.802c-.449-1.576-1.288-4.507-6.181-4.507-2.928 0-8.463 1.492-8.463 7.142 0 2.199 1.945 12.634 10.924 19.76 5.982 4.761 15.685 7.605 25.955 7.605 26.023 0 35.294-14.683 35.294-28.423-.001-20.634-16.469-25.402-26.31-28.251"/><path d="m298.39 3.081c-.846-.421-1.847-.629-3.062-.629h-59.077c-3.071 0-6.349 1.704-6.349 6.483 0 6.138 4.86 6.616 6.349 6.616h22.462v75.855c0 2.107.695 7.011 7.145 7.011 6.775 0 7.147-5.228 7.27-6.945l.002-75.921h22.198c3.072 0 6.348-1.705 6.348-6.483.001-3.861-2.489-5.546-3.286-5.987"/><path d="m370.714 84.527h-46.252v-29.195h41.76c3.069 0 6.349-1.669 6.349-6.35 0-4.119-2.315-6.483-6.349-6.483h-41.76v-26.685h44.003c4.265 0 6.613-2.348 6.613-6.613 0-4.227-2.471-6.749-6.613-6.749h-51.278c-5.898 0-6.912 3.785-7.144 7.144v80.926c.084 1.943.311 7.101 7.144 7.101h53.527c1.49 0 6.347-.475 6.347-6.613 0-4.119-2.313-6.483-6.347-6.483"/><path d="m428.221 34.212c-8.195-13.083-18.521-29.465-18.69-29.726-.596-.925-1.541-1.669-2.732-2.147-1.779-.716-3.783-.813-5.507-.813-5.53 0-7.171 1.636-7.83 2.288-1.617 1.783-1.823 3.603-1.823 4.988v83.001l-.005.401c-.023 1.285-.056 3.224 1.338 4.645 1.02 1.04 2.633 1.569 4.781 1.569 2.67 0 4.526-.936 5.507-2.777.782-1.457.78-3.074.78-4.089.021-2.469.455-54.953-.038-70.353 6.705 10.814 27.559 43.353 27.794 43.606 1.519 1.63 3.624 1.837 5.298 1.837 3.004 0 5.22-1.277 6.957-4.022.123-.192.433-.663.862-1.32z"/><path d="m-98.887 85.696-.4-.245c-.844-.422-1.848-.627-3.062-.627h-10.538v-77.587c0-3.123-.989-7.275-9.526-7.275-2.535 0-5.175.161-7.173 2.06-.866.828-11.078 16.674-20.175 31.428l8.047 13.063c8.951-14.215 16.459-26.069 16.459-26.069l.002 64.381h-11.958c-3.069 0-6.348 1.704-6.348 6.483 0 6.138 4.857 6.614 6.348 6.614h34.862c3.072 0 6.349-1.702 6.349-6.483 0-3.86-2.123-5.32-2.887-5.743" fill="#49a4db" mask="url(#b)" transform="translate(596 1.565)"/></g></svg>