<svg enable-background="new 0 0 500 191.555" height="191.555" viewBox="0 0 500 191.555" width="500" xmlns="http://www.w3.org/2000/svg"><g fill="#FFF"><path d="m2.841 90.607c1.186-2.699 2.403-4.938 3.654-6.715 1.909-2.699 4.708-4.05 8.395-4.05l2.37.1h3.162l4.74.098 13.332.098c2.897 0 5.844-.033 8.84-.098 2.995-.065 6.205-.164 9.629-.296 1.052 0 2.188-.1 3.407-.296 1.219-.198 2.355-.46 3.408-.79-1.976 4.083-3.639 6.847-4.988 8.295-1.35 1.449-3.012 2.174-4.987 2.174l-3.16-.198-4.643-.199-3.555-.098c-.924 0-1.68.196-2.272.592-.592.394-1.186 1.876-1.778 4.444l-7.703 43.752-.396 3.358c0 1.251.362 2.14 1.086 2.666l2.864.988-1.678 3.061c-.988 1.778-1.812 2.881-2.47 3.308-.658.43-1.974.642-3.95.642h-5.135l-10.371-.098 1.382-2.766c1.251-2.962 2.403-6.945 3.458-11.949l8.099-45.134.098-.692v-.494c0-.658-.511-1.102-1.53-1.332-1.022-.231-3.21-.346-6.568-.346l-4.839.098c-2.567 0-5.202.627-7.901 1.877z"/><path d="m43.629 151.444 1.186-2.172c1.382-2.568 2.534-6.222 3.456-10.963l5.037-28.739.494-3.458c0-2.37-1.647-3.883-4.938-4.543l1.382-2.37c1.119-1.842 2.074-3.028 2.864-3.556 1.119-.921 2.568-1.382 4.346-1.382h1.482l2.074.1 1.283.098c2.436 0 4.608-.46 6.519-1.382l-2.468 12.147.394.098c.461-1.052.84-1.876 1.136-2.468s.873-1.58 1.728-2.962c2.568-4.477 5.728-6.716 9.482-6.716l2.863.396c1.713.461 3.062.69 4.05.69h1.58c.723-.198 1.217-.329 1.482-.394-2.37 4.083-4.413 6.947-6.124 8.591-.856.857-1.678 1.516-2.468 1.976-.79.263-1.976.396-3.556.396-3.555 0-6.321 1.219-8.295 3.653-1.714 2.239-3.129 6.289-4.248 12.149l-2.567 14.517-.79 4.544c0 2.699 1.382 4.246 4.147 4.641l-1.876 3.26c-.988 1.713-1.876 2.831-2.666 3.357-.79.396-2.14.594-4.049.594h-1.58l-1.58-.1h-9.78z"/><path d="m110.589 117.273.198-2.468.494-4.05v-1.086c0-5.069-3.95-7.605-11.851-7.605-2.041 0-3.589.034-4.642.098-1.053.067-2.701.296-4.938.692.79-.921 1.482-2.007 2.074-3.258l.89-1.878c1.382-3.028 5.464-4.543 12.245-4.543 6.124 0 10.865 1.17 14.223 3.506 3.357 2.338 5.037 5.613 5.037 9.827 0 2.108-.396 5.531-1.186 10.271l-2.962 17.185-.988 5.629c0 1.382.494 2.272 1.482 2.666.46.132.888.232 1.284.296.394.067 1.086.1 2.074.1h.592l-2.666 4.444c-.988 1.911-1.828 3.11-2.518 3.604-.692.494-2.059.74-4.098.74l-4.05-.098-7.013.296c.396-2.172 1.448-4.312 3.16-6.419l-.394-.296-3.26 2.666c-3.752 2.831-7.933 4.246-12.541 4.246-4.148 0-7.507-1.317-10.075-3.95-2.436-2.766-3.654-6.42-3.654-10.963 0-6.978 2.188-13.003 6.568-18.074 4.377-5.069 9.629-7.605 15.752-7.605 4.936.002 8.525 2.011 10.763 6.027zm-19.258 18.567v.888c0 2.041.575 3.654 1.728 4.84 1.152 1.184 2.618 1.777 4.395 1.777 2.831 0 5.317-1.513 7.457-4.543 2.14-3.028 3.21-6.617 3.21-10.765 0-5.267-2.041-7.901-6.123-7.901-2.899 0-5.4 1.547-7.507 4.642-2.108 3.096-3.16 6.783-3.16 11.062z"/><path d="m125.896 101.668.494-1.382c.988-2.434 2.04-4.031 3.16-4.79 1.119-.756 3.424-1.134 6.914-1.134h10.567c-1.58.986-2.37 2.468-2.37 4.444 0 1.119.198 2.962.592 5.531l3.752 23.208.396 7.507 1.382-4.642 2.174-4.444 6.913-14.517c.723-1.58 1.317-3.028 1.778-4.346.46-1.317.69-2.303.69-2.962 0-1.844-1.515-2.766-4.543-2.766l-1.284.1.888-1.284 1.58-2.666c.923-1.317 1.778-2.174 2.568-2.568.79-.396 2.699-.592 5.728-.592h2.864 2.47l1.678.098 1.382-.098h1.876l-4.444 8.987-19.456 37.925c-1.713 3.491-3.258 5.861-4.642 7.111-1.184 1.317-2.897 2.172-5.135 2.567l-2.47.396c-.592 0-1.515.427-2.764 1.284l-.1-1.778-.888-6.321-5.531-35.061c-.33-2.37-.592-3.752-.79-4.148-.198-.854-.725-1.694-1.58-2.518-.857-.823-1.713-1.234-2.568-1.234h-.592z"/><path d="m217.251 105.816c-1.382 4.148-2.764 7.309-4.148 9.481-2.238 3.556-6.419 6.684-12.541 9.383l-16.395 6.914c.592 3.555 1.646 6.19 3.16 7.901 2.107 2.305 5.004 3.456 8.691 3.456.921 0 1.942-.098 3.062-.296 1.119-.198 2.403-.559 3.852-1.086 2.37-.79 3.916-1.186 4.641-1.186 1.646 0 3.028 1.778 4.148 5.334l-4.938 2.764c-2.764 1.318-5.465 2.306-8.099 2.962-2.634.658-5.498.988-8.591.988-6.716 0-11.951-2.024-15.703-6.074-3.754-4.049-5.63-9.793-5.63-17.234 0-9.875 2.864-18.271 8.593-25.184 5.728-6.913 12.707-10.369 20.938-10.369 2.83 0 5.596.559 8.297 1.678 2.699 1.12 5.398 3.819 8.099 8.099.589.989 1.443 1.811 2.564 2.469zm-20.74-3.456c-3.622 0-6.601 1.976-8.937 5.926-2.339 3.95-3.506 8.954-3.506 15.011l7.901-3.852c3.818-1.909 6.649-3.685 8.493-5.333 1.646-1.646 2.47-3.556 2.47-5.728 0-1.646-.609-3.062-1.828-4.246-1.219-1.186-2.75-1.778-4.593-1.778z"/><path d="m213.201 151.346 1.482-2.766c1.317-2.895 2.403-6.681 3.258-11.357l8.691-48.788.494-4.05c0-1.777-1.219-2.863-3.654-3.258l2.37-3.95c.923-1.513 1.695-2.436 2.322-2.766.625-.327 2.88-.492 6.765-.492h5.827l4.346.098-1.186 2.272c-1.382 2.764-2.468 6.157-3.258 10.171l-8.791 49.48c-.394 2.174-.592 3.787-.592 4.84 0 1.911 1.219 3.061 3.654 3.456-.79 1.713-2.009 3.72-3.654 6.025-.856.725-2.009 1.086-3.456 1.086h-5.136l-6.321.098z"/><path d="m243.026 99.199 1.284-1.976c1.184-1.907 2.732-2.863 4.642-2.863h8.591c-.658 1.646-.986 2.962-.986 3.95 0 1.448.427 4.281 1.284 8.493l6.815 34.271 17.776-32.987c1.646-3.095 2.47-5.167 2.47-6.222 0-1.58-1.876-2.37-5.63-2.37 1.317-2.501 2.503-4.049 3.556-4.642.658-.327 3.785-.492 9.383-.492h4.246l-26.37 48.195c-1.776 3.425-3.195 5.828-4.246 7.21-.725.923-1.974 1.613-3.752 2.074l-3.16.988-.1-1.68-.79-4.049-7.801-37.827-1.088-5.037-1.184-3.061c-.728-.921-2.372-1.579-4.94-1.975z"/><path d="m333.59 105.322c-1.12 3.623-2.37 6.486-3.752 8.593-.988 1.647-2.141 3.096-3.456 4.346-2.239 2.107-5.961 4.281-11.161 6.519l-18.272 7.901c.594 3.95 2.272 7.176 5.038 9.679 2.83 2.305 6.321 3.456 10.469 3.456 2.764 0 6.088-.756 9.975-2.272l2.666-.69c1.317 0 2.37 1.317 3.16 3.95l-3.753 1.776c-4.74 2.174-9.844 3.26-15.309 3.26-6.651 0-11.836-2.09-15.555-6.272-3.72-4.179-5.579-10.089-5.579-17.728 0-9.545 2.73-17.678 8.197-24.394 2.764-3.358 5.792-5.892 9.087-7.605 3.291-1.711 6.913-2.568 10.863-2.568 3.556 0 6.419.692 8.593 2.074 2.172 1.384 4.246 3.886 6.221 7.507.594.988 1.447 1.812 2.568 2.468zm-37.233 19.852v1.68l17.383-7.408c6.582-2.764 9.875-6.682 9.875-11.753 0-2.567-.807-4.691-2.42-6.369-1.613-1.68-3.67-2.518-6.173-2.518-5.071 0-9.448 2.601-13.135 7.801-3.687 5.201-5.53 11.39-5.53 18.567z"/><path d="m332.996 151.346 2.074-3.752c.656-1.844 1.48-5.531 2.468-11.063l5.432-31.011.098-2.074c0-1.909-1.482-3.258-4.444-4.049l2.172-3.456c.923-.923 2.14-1.384 3.654-1.384h1.778l1.086.1c1.317 0 2.799-.362 4.444-1.086l-2.568 10.073.692.198c2.766-6.78 6.353-10.173 10.765-10.173.658 0 1.778.231 3.358.692l3.258.394 2.37-.198-2.666 4.544c-1.184 1.713-2.832 2.567-4.938 2.567l-2.567-.196h-1.68c-4.873 0-8.197 4.839-9.975 14.517l-3.456 19.95c-.592 3.358-.888 5.598-.888 6.716 0 2.503 1.415 3.885 4.246 4.148l-.592 1.58c-.594 1.317-1.22 2.172-1.878 2.567-.33.134-.757.232-1.284.298-.527.065-1.417.098-2.666.098z"/><path d="m358.969 144.531c.263-.527.577-1.102.94-1.728.36-.625.969-1.53 1.826-2.716.262-.198 1.004-.527 2.222-.988 1.217-.46 2.353-.888 3.407-1.284l-.296 2.272c0 1.778.905 3.343 2.716 4.691 1.811 1.351 4.033 2.026 6.667 2.026 3.028 0 5.563-.954 7.605-2.864 2.04-1.909 3.062-4.148 3.062-6.716 0-1.513-.592-3.126-1.778-4.839-1.58-2.107-3.852-4.708-6.815-7.803l-4.148-4.246-3.654-4.346c-1.974-2.699-2.962-5.333-2.962-7.901 0-4.081 1.546-7.57 4.642-10.469 3.093-2.897 6.815-4.346 11.159-4.346 1.58 0 3.26.198 5.038.594l2.962.69c1.382.265 2.32.413 2.814.446s1.069.048 1.728.048c.592 0 1.217-.033 1.876-.098.658-.065 1.384-.198 2.174-.396-.396.659-.79 1.318-1.186 1.976-.659.988-1.318 1.844-1.974 2.568-1.318 1.515-2.8 2.27-4.444 2.27-1.318 0-2.568-.196-3.754-.592-2.305-.79-4.246-1.184-5.827-1.184-2.172 0-3.968.609-5.383 1.826-1.417 1.219-2.124 2.814-2.124 4.79 0 1.713.658 3.325 1.976 4.839l3.555 3.852 3.458 3.654 3.752 3.654c4.477 4.345 6.716 8.493 6.716 12.443 0 4.874-1.893 9.004-5.68 12.395-3.787 3.392-8.51 5.086-14.172 5.086-1.186 0-2.074-.034-2.666-.098-.594-.067-1.516-.265-2.766-.594-3.292-.789-6.848-3.092-10.666-6.912z"/><path d="m445.681 105.322c-1.12 3.623-2.37 6.486-3.752 8.593-.988 1.647-2.141 3.096-3.456 4.346-2.239 2.107-5.961 4.281-11.161 6.519l-18.272 7.901c.594 3.95 2.272 7.176 5.038 9.679 2.83 2.305 6.321 3.456 10.469 3.456 2.764 0 6.088-.756 9.975-2.272l2.666-.69c1.317 0 2.37 1.317 3.16 3.95l-3.752 1.776c-4.74 2.174-9.844 3.26-15.309 3.26-6.651 0-11.836-2.09-15.555-6.272-3.72-4.179-5.579-10.089-5.579-17.728 0-9.545 2.73-17.678 8.197-24.394 2.764-3.358 5.792-5.892 9.087-7.605 3.291-1.711 6.913-2.568 10.863-2.568 3.556 0 6.419.692 8.593 2.074 2.172 1.384 4.246 3.886 6.221 7.507.593.988 1.447 1.812 2.567 2.468zm-37.233 19.852v1.68l17.383-7.408c6.582-2.764 9.875-6.682 9.875-11.753 0-2.567-.807-4.691-2.42-6.369-1.613-1.68-3.67-2.518-6.173-2.518-5.071 0-9.448 2.601-13.135 7.801-3.687 5.201-5.53 11.39-5.53 18.567z"/><path d="m486.075 101.471 2.172-13.235.888-5.728c0-2.501-1.449-3.883-4.345-4.147l1.086-2.074c.46-1.119.954-1.861 1.48-2.222.527-.362 1.547-.544 3.062-.544h1.186l1.58.098h6.816l-1.778 3.358c-.461 1.12-1.318 4.709-2.568 10.765l-8.987 50.666c-.79 4.477-1.186 7.539-1.186 9.185 0 1.053.362 2.305 1.086 3.752l-2.37.098c-2.436 0-4.066-.444-4.888-1.332-.824-.89-1.234-2.551-1.234-4.988-4.61 4.807-9.646 7.21-15.111 7.21-5.4 0-9.629-1.859-12.691-5.58-3.061-3.72-4.592-8.839-4.592-15.357 0-10.336 2.732-19.259 8.198-26.764 5.464-7.507 11.917-11.259 19.358-11.259 5.791 0 10.072 2.7 12.838 8.098zm-13.333-2.074c-5.136 0-9.598 3.195-13.383 9.579-3.787 6.388-5.679 13.96-5.679 22.716 0 4.412.954 7.901 2.864 10.469 1.909 2.568 4.477 3.852 7.703 3.852 3.62 0 6.83-1.267 9.631-3.802 2.797-2.534 4.854-6.107 6.173-10.717 1.052-3.883 1.842-7.372 2.37-10.469.525-3.093.79-5.892.79-8.395 0-4.014-.955-7.224-2.864-9.629-1.911-2.402-4.445-3.604-7.605-3.604z"/><path d="m213.794 31.202-38.915 39.37 38.915-29.149 1.52 9.464 15.201-3.331 28.275-38.557 13.681 30.691v-12.476l30.707 34.652 10.641-9.583 24.341 21.549-26.47-33.303-8.968 3.678-43.02-44.207-33.291 37.207z"/><path d="m0 178.791h7.76v1.763h-2.838v10.772h-2.103v-10.772h-2.819z"/><path d="m12.485 178.791h2.102v5.198h3.742v-5.198h2.102v12.535h-2.102v-5.583h-3.742v5.583h-2.102z"/><path d="m26.681 178.791h7.276v1.662h-5.174v3.581h4.057v1.671h-4.057v3.921h5.258v1.699h-7.36z"/><path d="m39.258 178.791h3.824c1.383 0 2.404.309 3.062.928.657.618.986 1.506.986 2.663 0 1.543-.648 2.636-1.944 3.278l2.411 5.666h-2.281l-1.975-5.234h-1.98v5.234h-2.102v-12.535zm2.102 1.607v4.087h1.61c.72 0 1.249-.196 1.586-.588.339-.392.508-.903.508-1.534 0-1.31-.692-1.965-2.076-1.965z"/><path d="m53.13 178.791h7.276v1.662h-5.174v3.581h4.057v1.671h-4.057v3.921h5.258v1.699h-7.36z"/><path d="m75.457 178.791h2.357l3.411 12.535h-2.13l-.797-3.141h-3.725l-.789 3.141h-2.006zm2.427 7.76-1.456-5.74-1.443 5.74z"/><path d="m86.302 178.791h3.824c1.383 0 2.404.309 3.062.928.657.618.986 1.506.986 2.663 0 1.543-.648 2.636-1.944 3.278l2.411 5.666h-2.281l-1.975-5.234h-1.98v5.234h-2.102v-12.535zm2.102 1.607v4.087h1.61c.72 0 1.249-.196 1.586-.588.339-.392.508-.903.508-1.534 0-1.31-.692-1.965-2.076-1.965z"/><path d="m100.173 178.791h7.276v1.662h-5.174v3.581h4.057v1.671h-4.057v3.921h5.258v1.699h-7.36z"/><path d="m118.944 178.791h2.134l1.724 9.385 1.991-9.385h1.824l1.973 9.385 1.807-9.385h1.78l-2.675 12.563h-1.899l-2.01-9.202-1.973 9.202h-1.937z"/><path d="m145.853 185.054c0 2.143-.388 3.762-1.164 4.858-.775 1.096-1.902 1.644-3.378 1.644-1.484 0-2.619-.546-3.407-1.639-.788-1.092-1.181-2.713-1.181-4.862 0-2.131.391-3.745 1.173-4.844s1.917-1.649 3.406-1.649c1.47 0 2.596.547 3.378 1.639.781 1.092 1.173 2.71 1.173 4.853zm-2.206.005c0-1.489-.175-2.661-.526-3.516s-.963-1.282-1.838-1.282-1.486.429-1.833 1.287c-.348.858-.521 2.028-.521 3.511 0 1.458.17 2.623.511 3.493s.964 1.305 1.871 1.305c.849 0 1.452-.421 1.804-1.264.356-.843.532-2.021.532-3.534z"/><path d="m151.609 178.791h2.477l4.177 9.036v-9.036h1.758v12.535h-1.963l-4.691-10.037v10.037h-1.758z"/><path d="m166.197 178.791h2.859c1.385 0 2.492.242 3.322.725.829.484 1.456 1.203 1.882 2.158s.638 2.014.638 3.177c0 1.224-.191 2.316-.573 3.274s-.966 1.731-1.752 2.319c-.785.588-1.905.882-3.358.882h-3.018zm2.102 1.662v9.211h.877c1.225 0 2.114-.418 2.667-1.254.553-.835.83-1.951.83-3.347 0-3.073-1.166-4.61-3.497-4.61z"/><path d="m180.719 178.791h7.276v1.662h-5.174v3.581h4.057v1.671h-4.057v3.921h5.258v1.699h-7.36z"/><path d="m193.297 178.791h3.824c1.383 0 2.404.309 3.062.928.657.618.986 1.506.986 2.663 0 1.543-.648 2.636-1.944 3.278l2.411 5.666h-2.281l-1.975-5.234h-1.98v5.234h-2.102v-12.535zm2.102 1.607v4.087h1.61c.72 0 1.249-.196 1.586-.588.339-.392.508-.903.508-1.534 0-1.31-.692-1.965-2.076-1.965z"/><path d="m214.732 181.592-1.796.615c-.212-.664-.489-1.155-.833-1.471-.345-.317-.814-.475-1.41-.475-.552 0-.978.161-1.28.484-.3.322-.451.692-.451 1.11 0 .46.169.827.507 1.101.339.273 1.013.6 2.024.979.862.324 1.526.634 1.991.928s.842.687 1.131 1.18c.288.493.432 1.064.432 1.713 0 1.053-.377 1.95-1.131 2.691-.753.741-1.81 1.111-3.168 1.111-2.345 0-3.797-1.169-4.355-3.508l1.88-.523c.329 1.543 1.185 2.314 2.568 2.314.676 0 1.189-.173 1.54-.519.35-.346.526-.773.526-1.281 0-.373-.121-.719-.363-1.038-.241-.318-.844-.658-1.804-1.019-1.018-.38-1.751-.701-2.201-.964-.449-.263-.833-.652-1.149-1.166-.317-.514-.475-1.099-.475-1.754 0-.998.352-1.837 1.056-2.516.704-.68 1.639-1.019 2.806-1.019 2.066-.004 3.385 1.006 3.955 3.027z"/><path d="m229.437 178.791h2.103v7.797c0 1.292-.074 2.253-.223 2.884s-.469 1.136-.958 1.515c-.491.38-1.195.569-2.113.569-.471 0-1.033-.077-1.684-.23v-1.717c.433.116.843.174 1.228.174.452 0 .795-.083 1.028-.248.232-.165.393-.418.484-.758.09-.339.135-1.07.135-2.19z"/><path d="m237.65 178.791h2.057v7.778c0 .869.047 1.51.139 1.924.094.413.306.741.638.982.331.242.78.363 1.344.363.534 0 .949-.099 1.247-.298s.509-.481.633-.845.186-1.085.186-2.163v-7.741h1.889v7.64c0 1.224-.089 2.167-.266 2.828-.176.661-.586 1.209-1.228 1.644s-1.503.652-2.583.652c-.837 0-1.564-.136-2.182-.409-.617-.272-1.084-.713-1.4-1.322s-.475-1.694-.475-3.255v-7.778z"/><path d="m259.506 181.592-1.796.615c-.212-.664-.489-1.155-.833-1.471-.345-.317-.814-.475-1.41-.475-.552 0-.978.161-1.28.484-.3.322-.451.692-.451 1.11 0 .46.169.827.507 1.101.339.273 1.013.6 2.024.979.862.324 1.526.634 1.991.928s.842.687 1.131 1.18c.288.493.432 1.064.432 1.713 0 1.053-.377 1.95-1.131 2.691-.753.741-1.81 1.111-3.168 1.111-2.345 0-3.797-1.169-4.355-3.508l1.88-.523c.329 1.543 1.185 2.314 2.568 2.314.676 0 1.189-.173 1.54-.519.35-.346.526-.773.526-1.281 0-.373-.121-.719-.363-1.038-.241-.318-.844-.658-1.804-1.019-1.018-.38-1.751-.701-2.201-.964-.449-.263-.833-.652-1.149-1.166-.317-.514-.475-1.099-.475-1.754 0-.998.352-1.837 1.056-2.516.704-.68 1.639-1.019 2.806-1.019 2.065-.004 3.384 1.006 3.955 3.027z"/><path d="m264.221 178.791h7.76v1.763h-2.838v10.772h-2.103v-10.772h-2.819z"/><path d="m286.455 178.791h2.357l3.411 12.535h-2.13l-.797-3.141h-3.725l-.789 3.141h-2.006zm2.426 7.76-1.456-5.74-1.443 5.74z"/><path d="m297.3 178.791h3.824c1.383 0 2.404.309 3.062.928.657.618.986 1.506.986 2.663 0 1.543-.648 2.636-1.944 3.278l2.411 5.666h-2.281l-1.975-5.234h-1.98v5.234h-2.103zm2.102 1.607v4.087h1.61c.72 0 1.249-.196 1.586-.588.339-.392.508-.903.508-1.534 0-1.31-.692-1.965-2.076-1.965z"/><path d="m319.713 185.054c0 2.143-.388 3.762-1.164 4.858-.775 1.096-1.902 1.644-3.378 1.644-1.484 0-2.619-.546-3.407-1.639-.788-1.092-1.181-2.713-1.181-4.862 0-2.131.391-3.745 1.173-4.844s1.917-1.649 3.406-1.649c1.47 0 2.596.547 3.378 1.639.781 1.092 1.173 2.71 1.173 4.853zm-2.206.005c0-1.489-.175-2.661-.526-3.516s-.963-1.282-1.838-1.282-1.486.429-1.833 1.287c-.348.858-.521 2.028-.521 3.511 0 1.458.17 2.623.511 3.493s.964 1.305 1.871 1.305c.849 0 1.452-.421 1.804-1.264.356-.843.532-2.021.532-3.534z"/><path d="m325.441 178.791h2.057v7.778c0 .869.047 1.51.139 1.924.094.413.306.741.638.982.331.242.78.363 1.344.363.534 0 .949-.099 1.247-.298s.509-.481.633-.845.186-1.085.186-2.163v-7.741h1.889v7.64c0 1.224-.089 2.167-.266 2.828-.176.661-.586 1.209-1.228 1.644s-1.503.652-2.583.652c-.837 0-1.564-.136-2.182-.409-.617-.272-1.084-.713-1.4-1.322s-.475-1.694-.475-3.255v-7.778z"/><path d="m339.666 178.791h2.477l4.177 9.036v-9.036h1.758v12.535h-1.963l-4.691-10.037v10.037h-1.758z"/><path d="m354.254 178.791h2.859c1.385 0 2.492.242 3.322.725.829.484 1.456 1.203 1.882 2.158.425.955.638 2.014.638 3.177 0 1.224-.191 2.316-.573 3.274s-.966 1.731-1.752 2.319c-.785.588-1.905.882-3.358.882h-3.018zm2.102 1.662v9.211h.877c1.225 0 2.114-.418 2.667-1.254.553-.835.83-1.951.83-3.347 0-3.073-1.166-4.61-3.497-4.61z"/><path d="m374.616 178.791h7.76v1.763h-2.838v10.772h-2.103v-10.772h-2.819z"/><path d="m387.101 178.791h2.102v5.198h3.742v-5.198h2.102v12.535h-2.102v-5.583h-3.742v5.583h-2.102z"/><path d="m401.298 178.791h7.276v1.662h-5.174v3.581h4.057v1.671h-4.057v3.921h5.258v1.699h-7.36z"/><path d="m427.625 187.111 1.936.266c-.396 2.786-1.781 4.178-4.155 4.178-1.543 0-2.692-.585-3.448-1.754-.757-1.169-1.134-2.734-1.134-4.693 0-2.112.4-3.731 1.199-4.858.799-1.126 1.952-1.69 3.458-1.69 2.33 0 3.697 1.426 4.1 4.279l-1.955.285c-.21-1.898-.922-2.847-2.136-2.847-1.622 0-2.433 1.65-2.433 4.95 0 3.073.811 4.61 2.433 4.61.651 0 1.134-.234 1.453-.702.318-.468.546-1.143.682-2.024z"/><path d="m443.823 185.054c0 2.143-.388 3.762-1.164 4.858-.775 1.096-1.902 1.644-3.378 1.644-1.484 0-2.619-.546-3.407-1.639-.788-1.092-1.181-2.713-1.181-4.862 0-2.131.391-3.745 1.173-4.844s1.917-1.649 3.406-1.649c1.47 0 2.596.547 3.378 1.639.781 1.092 1.173 2.71 1.173 4.853zm-2.206.005c0-1.489-.175-2.661-.526-3.516s-.963-1.282-1.838-1.282-1.486.429-1.833 1.287c-.348.858-.521 2.028-.521 3.511 0 1.458.17 2.623.511 3.493s.964 1.305 1.871 1.305c.849 0 1.452-.421 1.804-1.264.356-.843.532-2.021.532-3.534z"/><path d="m449.645 178.791h3.824c1.383 0 2.404.309 3.062.928.657.618.986 1.506.986 2.663 0 1.543-.648 2.636-1.944 3.278l2.411 5.666h-2.281l-1.975-5.234h-1.98v5.234h-2.102v-12.535zm2.102 1.607v4.087h1.61c.72 0 1.249-.196 1.586-.588.339-.392.508-.903.508-1.534 0-1.31-.692-1.965-2.076-1.965z"/><path d="m463.45 178.791h2.477l4.177 9.036v-9.036h1.758v12.535h-1.963l-4.691-10.037v10.037h-1.758z"/><path d="m478.037 178.791h7.276v1.662h-5.174v3.581h4.057v1.671h-4.057v3.921h5.258v1.699h-7.36z"/><path d="m490.615 178.791h3.824c1.383 0 2.404.309 3.062.928.657.618.986 1.506.986 2.663 0 1.543-.648 2.636-1.944 3.278l2.411 5.666h-2.281l-1.975-5.234h-1.98v5.234h-2.102v-12.535zm2.102 1.607v4.087h1.61c.72 0 1.249-.196 1.586-.588.339-.392.508-.903.508-1.534 0-1.31-.692-1.965-2.076-1.965z"/></g></svg>