<svg enable-background="new 0 0 500 140.848" height="140.848" viewBox="0 0 500 140.848" width="500" xmlns="http://www.w3.org/2000/svg"><g fill="#fff"><path d="m0 53.386h13.466l19.049 66.079h.231l19.106-66.079h13.466l-27.738 86.748h-9.898z"/><path d="m71.457 96.76c0-10.096.287-16.853.864-20.272.615-3.418 1.555-6.181 2.823-8.288 2.035-3.99 5.299-7.547 9.792-10.668 4.416-3.161 9.927-4.78 16.532-4.861 6.683.08 12.25 1.706 16.705 4.879 4.416 3.134 7.604 6.704 9.562 10.71 1.42 2.103 2.399 4.86 2.936 8.27.498 3.412.748 10.155.748 20.23 0 9.916-.25 16.62-.748 20.11-.539 3.491-1.517 6.287-2.938 8.389-1.959 4.007-5.146 7.537-9.562 10.591-4.455 3.174-10.023 4.839-16.704 4.998-6.606-.158-12.116-1.824-16.532-4.998-4.494-3.054-7.758-6.584-9.793-10.591-.615-1.309-1.172-2.558-1.67-3.748-.461-1.229-.846-2.776-1.153-4.641-.574-3.49-.862-10.194-.862-20.11zm12.722 0c0 8.546.308 14.33.923 17.35.539 3.021 1.636 5.466 3.291 7.334 1.346 1.789 3.116 3.24 5.31 4.353 2.155 1.312 4.734 1.967 7.736 1.967 3.04 0 5.676-.655 7.909-1.967 2.116-1.113 3.81-2.564 5.08-4.353 1.655-1.868 2.79-4.312 3.406-7.334.576-3.021.866-8.804.866-17.35s-.289-14.369-.866-17.47c-.616-2.941-1.751-5.346-3.406-7.215-1.27-1.789-2.964-3.278-5.08-4.471-2.233-1.153-4.869-1.768-7.909-1.848-3.002.08-5.581.695-7.736 1.848-2.194 1.193-3.964 2.683-5.31 4.471-1.655 1.869-2.752 4.273-3.291 7.214-.615 3.102-.923 8.925-.923 17.471z"/><path d="m160.705 65.042h-23.03v-11.656h58.796v11.656h-23.044v75.092h-12.722z"/><path d="m207.352 53.386h53.678v12.37h-40.956v24.822h34.961v11.651h-34.961v25.535h40.956v12.37h-53.678z"/></g><path d="m273.666 53.234h12.722v86.9h-12.722z" fill="#b3b3b3"/><path d="m320.816 65.042h-23.03v-11.656h58.796v11.656h-23.044v75.092h-12.722z" fill="#b3b3b3"/><g fill="#fff"><path d="m441.584 53.386h30.459c3.306 0 6.498.317 9.576.952 3.076.833 6.191 2.539 9.345 5.116 2.648 1.944 4.796 4.72 6.448 8.329 1.726 3.491 2.59 7.616 2.59 12.375 0 6.426-2.193 12.275-6.578 17.551-4.5 5.553-11.078 8.409-19.732 8.566h-19.385v33.86h-12.722v-86.749zm12.721 40.524h18.883c4.735-.08 8.295-1.595 10.683-4.543 2.272-2.869 3.407-6.057 3.407-9.563 0-2.909-.462-5.36-1.386-7.353-.963-1.792-2.31-3.207-4.042-4.244-2.617-1.712-5.659-2.529-9.123-2.451h-18.422z"/><path d="m439.064 39.912 9.185-8.629-29.386-31.283-28.529 31.184 9.299 8.506 13.388-14.635-.102 84.308c-.077 5.916-1.693 10.421-4.848 13.517-3.233 3.256-7.331 4.883-12.293 4.883-4.964 0-9.022-1.628-12.178-4.883-3.232-3.096-4.887-7.601-4.964-13.517v-55.977h-12.722v57.391c.076 9.112 2.997 16.343 8.763 21.692 5.648 5.507 12.683 8.3 21.1 8.38 8.571-.08 15.661-2.875 21.272-8.389 5.572-5.355 8.436-12.593 8.59-21.717l-.016-85.143z"/></g></svg>