<svg enable-background="new 0 0 229.1 199.6" height="199.6" viewBox="0 0 229.1 199.6" width="229.1" xmlns="http://www.w3.org/2000/svg"><g fill="#00aeef"><path d="m153.8 47.2h9.1v9.1h-9.1z"/><path d="m144 61.2h7.7v7.7h-7.7z"/><path d="m157.1 36.9h7.7v7.7h-7.7z"/><path d="m140 52.4h7.7v7.7h-7.7z"/><path d="m110.3 1.9h7.7v7.7h-7.7z"/><path d="m163.2 27.9h7.7v7.7h-7.7z"/><path d="m133.2 70.1h15.2v15.2h-15.2z"/><path d="m136.5 88.1h11.9v11.9h-11.9z"/><path d="m139.9 39.2h11.9v11.9h-11.9z"/><path d="m148 12.9h11.9v11.9h-11.9z"/><path d="m156.2 3h11.9v11.9h-11.9z"/><path d="m140.6 102.4h4.4v4.4h-4.4z"/><path d="m130.4 92.2h4.4v4.4h-4.4z"/><path d="m123.2 88.7h4.4v4.4h-4.4z"/><path d="m160.4 75.3h4.4v4.4h-4.4z"/><path d="m161.9 16.6h4.4v4.4h-4.4z"/><path d="m166.8 20.8h4.4v4.4h-4.4z"/><path d="m103.1 32.5h5.3v5.3h-5.3z"/><path d="m123.8 31.8h7.8v7.8h-7.8z"/><path d="m122.6 41.9h7.6v7.6h-7.6z"/><path d="m125.8 54.7h12.1v12.1h-12.1z"/><path d="m145.7 26.3h15.2v15.2h-15.2z"/><path d="m119.4 62.8h15.2v15.2h-15.2z"/><path d="m126.3 80.7h8.5v8.5h-8.5z"/><path d="m109.6 30.3h12.1v12.1h-12.1z"/><path d="m100 40.5h7v7h-7z"/><path d="m108.4 22.4h7v7h-7z"/><path d="m125.4 11h7v7h-7z"/><path d="m111.5 44.3h15.2v15.2h-15.2z"/><path d="m107.7 61.2h9.3v9.3h-9.3z"/><path d="m64.5 17h9.3v9.3h-9.3z"/><path d="m55.7 7.6h9.3v9.3h-9.3z"/><path d="m75 8h9.3v9.3h-9.3z"/><path d="m109 10.7h9.3v9.3h-9.3z"/><path d="m118.6 20.1h9.3v9.3h-9.3z"/><path d="m107.7 72.1h6.4v6.4h-6.4z"/><path d="m103.4 49.3h10.3v10.3h-10.3z"/><path d="m90.5 61.9h15.2v15.2h-15.2z"/><path d="m90.5 79.4h15.2v15.2h-15.2z"/><path d="m94.8 95.9h7.2v7.2h-7.2z"/><path d="m149.7 89.7h7.2v7.2h-7.2z"/><path d="m87.8 101.4h4.5v4.5h-4.5z"/><path d="m108.1 80h3.2v3.2h-3.2z"/><path d="m99.9 29.3h3.2v3.2h-3.2z"/><path d="m123.5 5.2h3.2v3.2h-3.2z"/><path d="m166.7 39.4h3.2v3.2h-3.2z"/><path d="m119.4 8.1h3.2v3.2h-3.2z"/><path d="m149 7.9h3.2v3.2h-3.2z"/><path d="m72 26.3h15.2v15.2h-15.2z"/><path d="m84.7 50.4h11.8v11.8h-11.8z"/><path d="m72.8 58h15.2v15.2h-15.2z"/><path d="m77.4 75.3h10.6v10.6h-10.6z"/><path d="m149.5 72.5h10v10h-10z"/><path d="m80.9 88.1h8.9v8.9h-8.9z"/><path d="m154.5 60.2h9.7v9.7h-9.7z"/><path d="m64.6 43h10.2v10.2h-10.2z"/><path d="m76.3 44.5h7.3v7.3h-7.3z"/><path d="m66.8 55.9h4.8v4.7h-4.8z"/><path d="m60.8 35.6h4.7v4.7h-4.7z"/><path d="m65.6 30.7h4.8v4.7h-4.8z"/><path d="m86.9 42h4.7v4.8h-4.7z"/><path d="m70.7 1.8h4.8v4.7h-4.8z"/><path d="m81.9 2.4h4.7v4.8h-4.7z"/><path d="m56.3 24.6h4.7v4.7h-4.7z"/><path d="m71.3 76.6h4.8v4.8h-4.8z"/><path d="m72.2 85.9h5.2v5.2h-5.2z"/><path d="m104.1 20h4.4v4.4h-4.4z"/><path d="m126.8 0h4.4v4.4h-4.4z"/><path d="m169.5 11.6h6.2v6.2h-6.2z"/><path d="m174.6.7h4.4v4.4h-4.4z"/><path d="m120 14.4h4.4v4.4h-4.4z"/><path d="m103.2 2.1h4.4v4.4h-4.4z"/><path d="m75.4 18.4h4.4v4.4h-4.4z"/><path d="m81.6 20.6h4.4v4.4h-4.4z"/><path d="m58.1 17.5h4.4v4.4h-4.4z"/><path d="m102.9 10.6h4.4v4.4h-4.4z"/><path d="m50.8 1.3h4.4v4.4h-4.4z"/><path d="m50.4 11.3h4.4v4.4h-4.4z"/><path d="m63.2 3.6h4.4v4.4h-4.4z"/><path d="m67.7 9.6h4.4v4.4h-4.4z"/><path d="m150.3 3.1h3.2v3.2h-3.2z"/><path d="m170.5 5.8h3.2v3.2h-3.2z"/></g><path d="m43.4 132.2h-2.8l-2.2-6.8-2.2 6.8h-2.8l-3.8-13.9h3.6l1.8 7.3 2.2-7.3h2.4l2.2 7.3 1.8-7.3h3.6z" fill="#4f5858"/><path d="m56.1 132.2-.6-2.1h-4.3l-.7 2.1h-3.6l5.1-13.9h2.6l5.1 13.9zm-2.7-8.6-1.2 3.7h2.4z" fill="#4f5858"/><path d="m65.9 121.4v10.8h-3.4v-10.8h-3.4v-3h10.2v3z" fill="#4f5858"/><path d="m71.3 132.2v-13.9h9.4v3h-6v2.3h5.1v3h-5.1v2.4h6v3h-9.4z" fill="#4f5858"/><path d="m90.2 132.2-2.5-5.2h-1.2v5.2h-3.4v-13.9h5.5c3.1 0 4.7 2.2 4.7 4.5 0 1.9-1.2 3.1-2.3 3.6l3 5.8zm-1.7-10.8h-1.9v2.8h1.9c.9 0 1.5-.7 1.5-1.4s-.6-1.4-1.5-1.4z" fill="#4f5858"/><path d="m95.8 132.2v-13.9h3.4v10.8h5.8v3h-9.2z" fill="#4f5858"/><path d="m115.3 130.8c-1 1-2.2 1.6-3.9 1.6s-2.9-.5-3.9-1.6c-1.5-1.5-1.4-3.4-1.4-5.5s-.1-4 1.4-5.5c1-1 2.2-1.6 3.9-1.6s2.9.5 3.9 1.6c1.5 1.5 1.4 3.4 1.4 5.5s.1 4-1.4 5.5zm-2.5-8.9c-.3-.3-.7-.6-1.4-.6-.6 0-1.1.3-1.4.6-.3.4-.5.9-.5 3.4s.2 3 .5 3.4c.3.3.7.6 1.4.6.6 0 1.1-.3 1.4-.6.3-.4.5-.9.5-3.4s-.2-3-.5-3.4z" fill="#4f5858"/><path d="m127.8 130.8c-1 1-2.2 1.6-3.9 1.6s-2.9-.5-3.9-1.6c-1.5-1.5-1.4-3.4-1.4-5.5s-.1-4 1.4-5.5c1-1 2.2-1.6 3.9-1.6s2.9.5 3.9 1.6c1.5 1.5 1.4 3.4 1.4 5.5s0 4-1.4 5.5zm-2.5-8.9c-.3-.3-.7-.6-1.4-.6-.6 0-1.1.3-1.4.6-.3.4-.5.9-.5 3.4s.2 3 .5 3.4c.3.3.7.6 1.4.6.6 0 1.1-.3 1.4-.6.3-.4.5-.9.5-3.4s-.2-3-.5-3.4z" fill="#4f5858"/><path d="m143.6 132.2-.6-2.1h-4.3l-.7 2.1h-3.6l5-13.9h2.6l5.1 13.9zm-2.7-8.6-1.2 3.7h2.4z" fill="#4f5858"/><path d="m155.6 132.2-2.5-5.2h-1.1v5.2h-3.4v-13.9h5.5c3.1 0 4.7 2.2 4.7 4.5 0 1.9-1.2 3.1-2.3 3.6l3 5.8zm-1.7-10.8h-1.9v2.8h1.9c.9 0 1.5-.7 1.5-1.4s-.5-1.4-1.5-1.4z" fill="#4f5858"/><path d="m161.3 132.2v-13.9h9.4v3h-6v2.3h5.1v3h-5.1v2.4h6v3h-9.4z" fill="#4f5858"/><path d="m180.9 132.2-.6-2.1h-4.3l-.7 2.1h-3.6l5.1-13.9h2.6l5 13.9zm-2.7-8.6-1.2 3.7h2.4z" fill="#4f5858"/><path d="m184 123.5v-5.2h3.2v2.9z" fill="#4f5858"/><path d="m193.7 132.4c-2.1 0-3.9-.4-5.3-1.8l2.2-2.2c.7.7 2 1 3.1 1 1.3 0 2-.4 2-1.2 0-.3-.1-.6-.3-.8s-.5-.3-.9-.4l-1.7-.2c-1.2-.2-2.2-.6-2.8-1.2-.6-.7-1-1.6-1-2.8 0-2.5 1.9-4.4 5.1-4.4 2 0 3.5.5 4.7 1.7l-2.1 2.1c-.9-.9-2-.8-2.6-.8-1.2 0-1.7.7-1.7 1.3 0 .2.1.4.3.6s.5.4 1 .4l1.7.2c1.2.2 2.1.6 2.7 1.1.7.7 1 1.8 1 3 0 2.8-2.5 4.4-5.4 4.4z" fill="#4f5858"/><path d="m10.5 145.1v16.6h-5.3v-16.6h-5.2v-4.7h15.7v4.7z" fill="#4f5858"/><path d="m31.5 159.5c-1.6 1.6-3.3 2.4-6 2.4-2.6 0-4.4-.8-5.9-2.4-2.2-2.2-2.2-5.2-2.2-8.4s-.1-6.2 2.2-8.4c1.6-1.6 3.3-2.4 5.9-2.4s4.4.8 6 2.4c2.2 2.2 2.2 5.2 2.2 8.4 0 3.1.1 6.1-2.2 8.4zm-3.8-13.7c-.4-.5-1.1-.9-2.1-.9s-1.7.4-2.1.9c-.5.6-.8 1.3-.8 5.2s.3 4.6.8 5.2c.4.5 1.1 1 2.1 1s1.7-.4 2.1-1c.5-.6.8-1.3.8-5.2-.1-3.8-.4-4.6-.8-5.2z" fill="#4f5858"/><path d="m45.7 154.1h-3.2v7.6h-5.2v-21.3h8.4c4.7 0 7.3 3.3 7.3 6.8s-2.6 6.9-7.3 6.9zm-.2-9h-3v4.3h3c1.4 0 2.3-1 2.3-2.2s-.9-2.1-2.3-2.1z" fill="#4f5858"/><path d="m62.7 161.7v-21.3h14.5v4.7h-9.2v3.6h7.9v4.7h-7.9v3.7h9.2v4.7z" fill="#4f5858"/><path d="m95.5 161.7v-10.2l-3 5.3h-3.3l-3-5.3v10.2h-5.2v-21.3h5l4.8 9.4 4.8-9.4h5.1v21.3z" fill="#4f5858"/><path d="m113.4 154.1h-3.2v7.6h-5.2v-21.3h8.4c4.7 0 7.3 3.3 7.3 6.8s-2.5 6.9-7.3 6.9zm-.2-9h-3v4.3h3c1.4 0 2.3-1 2.3-2.2s-.9-2.1-2.3-2.1z" fill="#4f5858"/><path d="m123.7 161.7v-21.3h5.2v16.6h8.9v4.7z" fill="#4f5858"/><path d="m153.6 159.5c-1.6 1.6-3.3 2.4-5.9 2.4s-4.4-.8-5.9-2.4c-2.2-2.2-2.2-5.2-2.2-8.4s-.1-6.2 2.2-8.4c1.6-1.6 3.3-2.4 5.9-2.4s4.4.8 5.9 2.4c2.2 2.2 2.2 5.2 2.2 8.4-.1 3.1 0 6.1-2.2 8.4zm-3.9-13.7c-.4-.5-1.1-.9-2.1-.9s-1.7.4-2.1.9c-.5.6-.8 1.3-.8 5.2s.3 4.6.8 5.2c.4.5 1.1 1 2.1 1s1.7-.4 2.1-1c.5-.6.8-1.3.8-5.2 0-3.8-.3-4.6-.8-5.2z" fill="#4f5858"/><path d="m168.5 153v8.7h-5.2v-8.7l-6.4-12.6h5.7l3.3 7.7 3.3-7.7h5.7z" fill="#4f5858"/><path d="m177.1 161.7v-21.3h14.5v4.7h-9.2v3.6h7.9v4.7h-7.9v3.7h9.2v4.7z" fill="#4f5858"/><path d="m206.1 161.7-3.8-7.9h-1.8v7.9h-5.2v-21.3h8.4c4.7 0 7.3 3.3 7.3 6.8 0 2.9-1.8 4.7-3.5 5.6l4.6 8.9zm-2.6-16.6h-3v4.3h3c1.4 0 2.3-1 2.3-2.2s-.9-2.1-2.3-2.1z" fill="#4f5858"/><path d="m220.9 161.9c-3.3 0-5.9-.6-8.1-2.8l3.3-3.3c1.1 1.1 3 1.5 4.8 1.5 2.1 0 3-.7 3-1.9 0-.5-.1-.9-.4-1.3-.3-.3-.7-.5-1.4-.6l-2.6-.4c-1.9-.3-3.3-.9-4.3-1.9s-1.5-2.5-1.5-4.3c0-3.9 2.9-6.7 7.8-6.7 3 0 5.4.7 7.2 2.5l-3.3 3.3c-1.3-1.3-3.1-1.3-4-1.3-1.8 0-2.6 1-2.6 2 0 .3.1.7.4 1s.7.5 1.5.6l2.6.4c1.9.3 3.3.9 4.2 1.8 1.1 1.1 1.6 2.7 1.6 4.7 0 4.3-3.8 6.7-8.2 6.7z" fill="#4f5858"/><path d="m69.3 195.7 11.6-13.1c1.1-1.3 1.1-2.1 1.1-3.6 0-1.4 0-3-3.1-3-1.9 0-3.1.7-3.1 1.9v2.2h-6.4v-2.1c0-3.2 4.3-5.9 9.6-5.9 6.7 0 9.5 3.2 9.5 6.8 0 2.6-.1 3.3-2.1 5.6l-9.4 10.9h11.6v3.9h-19.3z" fill="#f36c23"/><path d="m93.9 178c0-3.6 4.5-5.8 9.5-5.8 5.1 0 9.5 2.2 9.5 5.8v15.8c0 3.6-4.5 5.8-9.5 5.8-5.1 0-9.5-2.2-9.5-5.8zm6.4 15.8c0 1.1 1.3 1.9 3.1 1.9s3.1-.8 3.1-1.9v-15.8c0-1.1-1.3-1.9-3.1-1.9s-3.1.8-3.1 1.9z" fill="#f36c23"/><path d="m116 195.7 11.6-13.1c1.1-1.3 1.1-2.1 1.1-3.6 0-1.4 0-3-3.1-3-1.9 0-3.1.7-3.1 1.9v2.2h-6.5v-2.1c0-3.2 4.3-5.9 9.6-5.9 6.7 0 9.5 3.2 9.5 6.8 0 2.6-.1 3.3-2.1 5.6l-9.4 10.9h11.6v3.9h-19.2z" fill="#f36c23"/><path d="m138.1 178c0-3.6 4.5-5.8 9.5-5.8 5.1 0 9.5 2.2 9.5 5.8v15.8c0 3.6-4.5 5.8-9.5 5.8-5.1 0-9.5-2.2-9.5-5.8zm6.4 15.8c0 1.1 1.3 1.9 3.1 1.9s3.1-.8 3.1-1.9v-15.8c0-1.1-1.3-1.9-3.1-1.9s-3.1.8-3.1 1.9z" fill="#f36c23"/></svg>