<svg enable-background="new 0 0 1920 160" viewBox="0 0 1920 160" xmlns="http://www.w3.org/2000/svg"><path d="m1920 130.9v-31.6c-22.7 2.1-46 3.1-69.3 3.1-19 0-38.4-.7-57.7-2.1-20.9-1.5-42.1-3.9-63.2-7-22.6-3.4-45.6-7.7-68.2-12.9-24.2-5.6-48.7-12.3-72.9-19.9-26.5-8.4-54.7-15.8-83.8-21.9-27.4-5.8-56.2-10.5-85.8-14.3-27.6-3.5-56.6-6.1-86.1-7.7-27.3-1.5-55.8-2.3-84.7-2.3-38.3 0-78.3 1.4-119.1 4.1-34.6 2.3-70.4 5.7-106.7 9.9-29 3.4-58 7.4-88.6 12.1-25.9 4-47.5 7.7-64.9 10.7h-.1-.3l-1.1.2h-.3c-3.4.6-6.7 1.1-9.7 1.7-.4.1-14.9 2.8-38.8 6.7-22.1 3.5-57.4 8.9-100.7 14.3-48.3 6-96.2 10.8-142.3 14.2-57.6 4.3-112.6 6.4-163.6 6.4-38.5 0-75.2-1.2-109.2-3.7-18.2-1.3-36.1-3-53-5-17.7-2.1-34.8-4.6-50.9-7.5-16.8-3-33-6.4-48.2-10.2-15.7-4-30.8-8.4-44.7-13.3-13.8-4.8-27.3-10.3-40.5-16.6-12.3-5.9-24.2-12.6-35.5-20.1-10.5-7.1-20.6-13.4-30.1-18.7v131.4z" fill="#5e6f88"/><path d="m1920 160v-59.9c-27.6 3-55.3 4.5-83 4.5-81.7 0-165.5-12.6-248.9-37.5-24.5-7.3-50.5-13.7-77.1-19-25.2-5-51.8-9.3-78.8-12.5-25.5-3.1-52.2-5.4-79.2-6.9-25.3-1.4-51.7-2.1-78.3-2.1-40.9 0-83.7 1.7-127.5 4.9-37.1 2.8-75.6 6.7-114.5 11.8-31.1 4.1-62.2 8.8-95.1 14.4-27.8 4.7-50.7 9.1-69.2 12.6h-.2c-3.6.7-7.6 1.4-11.2 2.1-.3.1-15.2 3.2-42 7.9-23.9 4.2-62.1 10.6-108.5 17-51.8 7.2-103 12.9-152 16.9-61.2 5.1-119.2 7.7-172.4 7.7-35.6 0-69.6-1.2-101.1-3.5-16.8-1.2-33.2-2.8-48.8-4.7-16.2-2-32-4.3-46.8-6.9-15.4-2.8-30.3-5.9-44.3-9.4-14.5-3.6-28.3-7.7-41.2-12.1-12.9-4.3-25.5-9.3-37.7-15-11.5-5.4-22.6-11.5-33.2-18.3-10.2-6.5-19.9-12.3-29-17.3v125.3z" fill="#475569"/></svg>