<svg enable-background="new 0 0 1920 160" viewBox="0 0 1920 160" xmlns="http://www.w3.org/2000/svg"><path d="m1920 28.6v131.4c-9.5-5.3-19.6-11.6-30.1-18.7-11.3-7.5-23.2-14.2-35.5-20.1-13.2-6.3-26.7-11.8-40.5-16.6-13.9-4.9-29-9.3-44.7-13.3-15.2-3.8-31.4-7.2-48.2-10.2-16.1-2.9-33.2-5.4-50.9-7.5-16.9-2-34.8-3.7-53-5-34-2.5-70.7-3.7-109.2-3.7-51 0-106 2.1-163.6 6.4-46.1 3.4-94 8.2-142.3 14.2-43.3 5.4-78.6 10.8-100.7 14.3-23.9 3.9-38.4 6.6-38.8 6.7-3 .6-6.3 1.1-9.7 1.7h-.3l-1.1.2h-.3-.1c-17.4 3-39 6.7-64.9 10.7-30.6 4.7-59.6 8.7-88.6 12.1-36.3 4.2-72.1 7.6-106.7 9.9-40.8 2.7-80.8 4.1-119.1 4.1-28.9 0-57.4-.8-84.7-2.3-29.5-1.6-58.5-4.2-86.1-7.7-29.6-3.8-58.4-8.5-85.8-14.3-29.1-6.1-57.3-13.5-83.8-21.9-24.2-7.6-48.7-14.3-72.9-19.9-22.6-5.2-45.6-9.5-68.2-12.9-21.1-3.1-42.3-5.5-63.2-7-19.3-1.4-38.7-2.1-57.7-2.1-23.3 0-46.6 1-69.3 3.1v-31.6h1920z" fill="#5e6f88"/><path d="m1920-.5v125.3c-9.1-5-18.8-10.8-28.9-17.3-10.7-6.8-21.8-13-33.3-18.3-12.2-5.7-24.8-10.7-37.7-15-12.9-4.4-26.7-8.5-41.2-12.1-14-3.5-28.9-6.6-44.3-9.4-14.8-2.6-30.6-4.9-46.8-6.9-15.6-1.9-32-3.5-48.8-4.7-31.5-2.3-65.5-3.5-101.1-3.5-53.2 0-111.2 2.6-172.4 7.7-49 4-100.2 9.7-152 16.9-46.4 6.4-84.6 12.8-108.5 17-26.8 4.7-41.7 7.8-42 7.9-3.6.7-7.6 1.4-11.2 2.1h-.2c-18.5 3.5-41.4 7.9-69.2 12.6-32.9 5.6-64 10.3-95.1 14.4-38.9 5.1-77.4 9-114.5 11.8-43.8 3.2-86.6 4.9-127.5 4.9-26.6 0-53-.7-78.3-2.1-27-1.5-53.7-3.8-79.2-6.9-27-3.2-53.6-7.5-78.8-12.5-26.6-5.3-52.6-11.7-77.1-19-83.4-24.9-167.2-37.5-248.9-37.5-27.7 0-55.4 1.5-83 4.5v-59.9z" fill="#475569"/></svg>